<?xml version="1.0" encoding="UTF-8" standalone="no"?>
<svg xmlns="http://www.w3.org/2000/svg" width="300" height="380" viewBox="0 0 300 380" version="1.1">

  <!-- Background -->
  <rect width="300" height="380" fill="#d8d6d0"/>
  <rect x="5" y="5" width="290" height="370" fill="#eceae4" rx="2"/>

  <!-- Mounting holes -->
  <circle cx="15" cy="15" r="10" fill="#c8c5be" stroke="#aaa" stroke-width="2"/>
  <circle cx="285" cy="15" r="10" fill="#c8c5be" stroke="#aaa" stroke-width="2"/>
  <circle cx="15" cy="365" r="10" fill="#c8c5be" stroke="#aaa" stroke-width="2"/>
  <circle cx="285" cy="365" r="10" fill="#c8c5be" stroke="#aaa" stroke-width="2"/>

  <!-- Separators -->
  <line x1="10" y1="62" x2="290" y2="62" stroke="#ccc" stroke-width="1"/>
  <line x1="10" y1="120" x2="290" y2="120" stroke="#bbb" stroke-width="1"/>
  <line x1="10" y1="205" x2="290" y2="205" stroke="#bbb" stroke-width="1"/>
  <line x1="10" y1="293" x2="290" y2="293" stroke="#bbb" stroke-width="1"/>
  <line x1="10" y1="355" x2="290" y2="355" stroke="#bbb" stroke-width="1"/>

  <!-- ===== 8 OUTPUT JACKS y=77 ===== -->
  <!-- x: 16,54,93,131,169,207,246,284 -->
  <circle cx="16"  cy="77" r="13" fill="#b8b5ae" stroke="#888" stroke-width="2"/><circle cx="16"  cy="77" r="8" fill="#111"/><circle cx="16"  cy="77" r="2.5" fill="#555"/>
  <circle cx="54"  cy="77" r="13" fill="#b8b5ae" stroke="#888" stroke-width="2"/><circle cx="54"  cy="77" r="8" fill="#111"/><circle cx="54"  cy="77" r="2.5" fill="#555"/>
  <circle cx="93"  cy="77" r="13" fill="#b8b5ae" stroke="#888" stroke-width="2"/><circle cx="93"  cy="77" r="8" fill="#111"/><circle cx="93"  cy="77" r="2.5" fill="#555"/>
  <circle cx="131" cy="77" r="13" fill="#b8b5ae" stroke="#888" stroke-width="2"/><circle cx="131" cy="77" r="8" fill="#111"/><circle cx="131" cy="77" r="2.5" fill="#555"/>
  <circle cx="169" cy="77" r="13" fill="#b8b5ae" stroke="#888" stroke-width="2"/><circle cx="169" cy="77" r="8" fill="#111"/><circle cx="169" cy="77" r="2.5" fill="#555"/>
  <circle cx="207" cy="77" r="13" fill="#b8b5ae" stroke="#888" stroke-width="2"/><circle cx="207" cy="77" r="8" fill="#111"/><circle cx="207" cy="77" r="2.5" fill="#555"/>
  <circle cx="246" cy="77" r="13" fill="#b8b5ae" stroke="#888" stroke-width="2"/><circle cx="246" cy="77" r="8" fill="#111"/><circle cx="246" cy="77" r="2.5" fill="#555"/>
  <circle cx="284" cy="77" r="13" fill="#b8b5ae" stroke="#888" stroke-width="2"/><circle cx="284" cy="77" r="8" fill="#111"/><circle cx="284" cy="77" r="2.5" fill="#555"/>

  <!-- Red LEDs y=100 -->
  <circle cx="16"  cy="100" r="6" fill="#cc2020"/>
  <circle cx="54"  cy="100" r="6" fill="#cc2020"/>
  <circle cx="93"  cy="100" r="6" fill="#cc2020"/>
  <circle cx="131" cy="100" r="6" fill="#cc2020"/>
  <circle cx="169" cy="100" r="6" fill="#cc2020"/>
  <circle cx="207" cy="100" r="6" fill="#cc2020"/>
  <circle cx="246" cy="100" r="6" fill="#cc2020"/>
  <circle cx="284" cy="100" r="6" fill="#cc2020"/>

  <!-- ===== LEFT COLUMN: CLK/CV y=142, SWITCH, RST/HLD y=183 ===== -->
  <circle cx="23" cy="142" r="13" fill="#b8b5ae" stroke="#888" stroke-width="2"/><circle cx="23" cy="142" r="8" fill="#111"/><circle cx="23" cy="142" r="2.5" fill="#555"/>

  <!-- Switch centred between jacks -->
  <rect x="42" cy="129" width="28" height="38" rx="4" fill="#ccc" stroke="#999" stroke-width="1.5"/>
  <rect x="45" y="132" width="11" height="15" rx="2.5" fill="#111"/>
  <rect x="45" y="149" width="11" height="15" rx="2.5" fill="#bbb"/>

  <circle cx="23" cy="183" r="13" fill="#b8b5ae" stroke="#888" stroke-width="2"/><circle cx="23" cy="183" r="8" fill="#111"/><circle cx="23" cy="183" r="2.5" fill="#555"/>

  <!-- ===== KNOBS y=159 ===== -->
  <circle cx="98"  cy="159" r="20" fill="#ccc" stroke="#999" stroke-width="1.5"/><circle cx="98"  cy="159" r="15" fill="#222" stroke="#444" stroke-width="1"/><line x1="98"  y1="140" x2="98"  y2="148" stroke="#ddd" stroke-width="3"/>
  <circle cx="148" cy="159" r="20" fill="#ccc" stroke="#999" stroke-width="1.5"/><circle cx="148" cy="159" r="15" fill="#222" stroke="#444" stroke-width="1"/><line x1="148" y1="140" x2="148" y2="148" stroke="#ddd" stroke-width="3"/>
  <circle cx="198" cy="159" r="20" fill="#ccc" stroke="#999" stroke-width="1.5"/><circle cx="198" cy="159" r="15" fill="#222" stroke="#444" stroke-width="1"/><line x1="198" y1="140" x2="198" y2="148" stroke="#ddd" stroke-width="3"/>

  <!-- ===== MODE BUTTONS 2x3 ===== -->
  <!-- Row 1 y=136: MUTE, LENGTH, SHIFT -->
  <circle cx="228" cy="136" r="17" fill="#d0cece" stroke="#aaa" stroke-width="1.5"/>
  <circle cx="257" cy="136" r="17" fill="#d0cece" stroke="#aaa" stroke-width="1.5"/>
  <circle cx="284" cy="136" r="17" fill="#d0cece" stroke="#aaa" stroke-width="1.5"/>
  <!-- Row 2 y=177: SCALE, SAVE, RECALL -->
  <circle cx="228" cy="177" r="17" fill="#d0cece" stroke="#aaa" stroke-width="1.5"/>
  <circle cx="257" cy="177" r="17" fill="#d0cece" stroke="#aaa" stroke-width="1.5"/>
  <circle cx="284" cy="177" r="17" fill="#d0cece" stroke="#aaa" stroke-width="1.5"/>

  <!-- ===== 8 SLIDERS y=213-283 ===== -->
  <rect x="10"  y="213" width="14" height="70" rx="7" fill="#c8c5be" stroke="#aaa" stroke-width="1"/>
  <rect x="48"  y="213" width="14" height="70" rx="7" fill="#c8c5be" stroke="#aaa" stroke-width="1"/>
  <rect x="87"  y="213" width="14" height="70" rx="7" fill="#c8c5be" stroke="#aaa" stroke-width="1"/>
  <rect x="125" y="213" width="14" height="70" rx="7" fill="#c8c5be" stroke="#aaa" stroke-width="1"/>
  <rect x="163" y="213" width="14" height="70" rx="7" fill="#c8c5be" stroke="#aaa" stroke-width="1"/>
  <rect x="201" y="213" width="14" height="70" rx="7" fill="#c8c5be" stroke="#aaa" stroke-width="1"/>
  <rect x="240" y="213" width="14" height="70" rx="7" fill="#c8c5be" stroke="#aaa" stroke-width="1"/>
  <rect x="278" y="213" width="14" height="70" rx="7" fill="#c8c5be" stroke="#aaa" stroke-width="1"/>

  <!-- Slider handles at y=243 -->
  <rect x="7"   y="243" width="20" height="22" rx="4" fill="#333" stroke="#222" stroke-width="1"/>
  <rect x="45"  y="243" width="20" height="22" rx="4" fill="#333" stroke="#222" stroke-width="1"/>
  <rect x="84"  y="243" width="20" height="22" rx="4" fill="#333" stroke="#222" stroke-width="1"/>
  <rect x="122" y="243" width="20" height="22" rx="4" fill="#333" stroke="#222" stroke-width="1"/>
  <rect x="160" y="243" width="20" height="22" rx="4" fill="#333" stroke="#222" stroke-width="1"/>
  <rect x="198" y="243" width="20" height="22" rx="4" fill="#333" stroke="#222" stroke-width="1"/>
  <rect x="237" y="243" width="20" height="22" rx="4" fill="#333" stroke="#222" stroke-width="1"/>
  <rect x="275" y="243" width="20" height="22" rx="4" fill="#333" stroke="#222" stroke-width="1"/>

  <!-- Slider LEDs on handles y=254 -->
  <circle cx="17"  cy="254" r="5" fill="#cc2020"/>
  <circle cx="55"  cy="254" r="5" fill="#cc2020"/>
  <circle cx="94"  cy="254" r="5" fill="#cc2020"/>
  <circle cx="132" cy="254" r="5" fill="#cc2020"/>
  <circle cx="170" cy="254" r="5" fill="#cc2020"/>
  <circle cx="208" cy="254" r="5" fill="#cc2020"/>
  <circle cx="247" cy="254" r="5" fill="#cc2020"/>
  <circle cx="285" cy="254" r="5" fill="#cc2020"/>

  <!-- ===== STEP BUTTONS ===== -->
  <!-- 8 red LEDs above row 1 y=301 -->
  <circle cx="16"  cy="301" r="5" fill="#cc2020"/>
  <circle cx="54"  cy="301" r="5" fill="#cc2020"/>
  <circle cx="93"  cy="301" r="5" fill="#cc2020"/>
  <circle cx="131" cy="301" r="5" fill="#cc2020"/>
  <circle cx="169" cy="301" r="5" fill="#cc2020"/>
  <circle cx="207" cy="301" r="5" fill="#cc2020"/>
  <circle cx="246" cy="301" r="5" fill="#cc2020"/>
  <circle cx="284" cy="301" r="5" fill="#cc2020"/>

  <!-- Row 1 buttons y=322 r=18 -->
  <circle cx="16"  cy="322" r="18" fill="#484848" stroke="#333" stroke-width="1.5"/>
  <circle cx="54"  cy="322" r="18" fill="#484848" stroke="#333" stroke-width="1.5"/>
  <circle cx="93"  cy="322" r="18" fill="#484848" stroke="#333" stroke-width="1.5"/>
  <circle cx="131" cy="322" r="18" fill="#484848" stroke="#333" stroke-width="1.5"/>
  <circle cx="169" cy="322" r="18" fill="#484848" stroke="#333" stroke-width="1.5"/>
  <circle cx="207" cy="322" r="18" fill="#484848" stroke="#333" stroke-width="1.5"/>
  <circle cx="246" cy="322" r="18" fill="#484848" stroke="#333" stroke-width="1.5"/>
  <circle cx="284" cy="322" r="18" fill="#484848" stroke="#333" stroke-width="1.5"/>

  <!-- LEDs between rows y=344 + 2 PCB screws -->
  <circle cx="16"  cy="344" r="5" fill="#cc2020"/>
  <circle cx="35"  cy="344" r="5" fill="#d5d2cb" stroke="#bbb" stroke-width="1.5"/><circle cx="35"  cy="344" r="2.5" fill="#aaa"/>
  <circle cx="54"  cy="344" r="5" fill="#cc2020"/>
  <circle cx="93"  cy="344" r="5" fill="#cc2020"/>
  <circle cx="131" cy="344" r="5" fill="#cc2020"/>
  <circle cx="169" cy="344" r="5" fill="#cc2020"/>
  <circle cx="207" cy="344" r="5" fill="#cc2020"/>
  <circle cx="246" cy="344" r="5" fill="#cc2020"/>
  <circle cx="265" cy="344" r="5" fill="#d5d2cb" stroke="#bbb" stroke-width="1.5"/><circle cx="265" cy="344" r="2.5" fill="#aaa"/>
  <circle cx="284" cy="344" r="5" fill="#cc2020"/>

  <!-- Row 2 buttons y=363 r=18 - BUT 363+18=381 overflows! use r=15 y=360 -->
  <circle cx="16"  cy="360" r="15" fill="#484848" stroke="#333" stroke-width="1.5"/>
  <circle cx="54"  cy="360" r="15" fill="#484848" stroke="#333" stroke-width="1.5"/>
  <circle cx="93"  cy="360" r="15" fill="#484848" stroke="#333" stroke-width="1.5"/>
  <circle cx="131" cy="360" r="15" fill="#484848" stroke="#333" stroke-width="1.5"/>
  <circle cx="169" cy="360" r="15" fill="#484848" stroke="#333" stroke-width="1.5"/>
  <circle cx="207" cy="360" r="15" fill="#484848" stroke="#333" stroke-width="1.5"/>
  <circle cx="246" cy="360" r="15" fill="#484848" stroke="#333" stroke-width="1.5"/>
  <circle cx="284" cy="360" r="15" fill="#484848" stroke="#333" stroke-width="1.5"/>

</svg>
