<?xml version="1.0" encoding="UTF-8" standalone="no"?>
<svg
   width="101.6"
   height="180"
   viewBox="0 0 101.6 180"
   version="1.1"
   id="svg132"
   sodipodi:docname="Skyline.svg"
   inkscape:version="1.3.2 (091e20e, 2023-11-25, custom)"
   xmlns:inkscape="http://www.inkscape.org/namespaces/inkscape"
   xmlns:sodipodi="http://sodipodi.sourceforge.net/DTD/sodipodi-0.dtd"
   xmlns="http://www.w3.org/2000/svg"
   xmlns:svg="http://www.w3.org/2000/svg">
  <defs
     id="defs132" />
  <sodipodi:namedview
     id="namedview132"
     pagecolor="#ffffff"
     bordercolor="#000000"
     borderopacity="0.25"
     inkscape:showpageshadow="2"
     inkscape:pageopacity="0.0"
     inkscape:pagecheckerboard="0"
     inkscape:deskcolor="#d1d1d1"
     showgrid="false"
     inkscape:zoom="6.3166667"
     inkscape:cx="50.817942"
     inkscape:cy="90"
     inkscape:window-width="2560"
     inkscape:window-height="1351"
     inkscape:window-x="-9"
     inkscape:window-y="-9"
     inkscape:window-maximized="1"
     inkscape:current-layer="svg132" />
  <!-- Panel: 101.6mm wide x 128.5mm tall = 20HP x 3U -->
  <!-- ViewBox 101.6 x 380px where 1px = 1mm (VCV renders at 2.953px/mm) -->
  <!-- All coordinates derived from approved preview, scaled to real dimensions -->
  <!-- Background -->
  <path
     id="rect1"
     style="fill:#d8d6d0"
     d="M 0,0 H 101.6 V 180 H 0 Z" />
  <path
     id="rect2"
     style="fill:#eceae4"
     d="m 3,2 h 95.599998 c 0.554,0 1,0.446 1,1 v 174 c 0,0.554 -0.446,1 -1,1 H 3 c -0.554,0 -1,-0.446 -1,-1 V 3 C 2,2.446 2.446,2 3,2 Z" />
  <path
     id="line2"
     style="stroke:#cccccc;stroke-width:0.4"
     d="M 2,2 V 178" />
  <path
     id="line3"
     style="stroke:#cccccc;stroke-width:0.4"
     d="M 99.599998,2 V 178" />
  <!-- Mounting holes -->
  <path
     id="circle3"
     style="fill:#c8c5be;stroke:#aaaaaa"
     d="m 11.5,7.5 a 4,4 0 0 1 -4,4 4,4 0 0 1 -4,-4 4,4 0 0 1 4,-4 4,4 0 0 1 4,4 z" />
  <path
     id="circle4"
     style="fill:#c8c5be;stroke:#aaaaaa"
     d="m 98.099998,7.5 a 4,4 0 0 1 -4,4 4,4 0 0 1 -4,-4 4,4 0 0 1 4,-4 4,4 0 0 1 4,4 z" />
  <path
     id="circle5"
     style="fill:#c8c5be;stroke:#aaaaaa"
     d="m 11.5,172.5 a 4,4 0 0 1 -4,4 4,4 0 0 1 -4,-4 4,4 0 0 1 4,-4 4,4 0 0 1 4,4 z" />
  <path
     id="circle6"
     style="fill:#c8c5be;stroke:#aaaaaa"
     d="m 98.099998,172.5 a 4,4 0 0 1 -4,4 4,4 0 0 1 -4,-4 4,4 0 0 1 4,-4 4,4 0 0 1 4,4 z" />
  <!-- Title -->
  <path
     d="M 4.7743645,18 2.9833488,12.989258 h 1.097168 L 5.3485832,16.697754 6.575634,12.989258 H 7.6488762 L 5.8544426,18 Z m 6.1855465,-2.474609 q 0,-0.765625 0.229004,-1.285157 0.170899,-0.382812 0.464844,-0.687011 0.297363,-0.3042 0.649414,-0.451172 0.468262,-0.198242 1.080078,-0.198242 1.107422,0 1.770508,0.687011 0.666504,0.687012 0.666504,1.910645 0,1.213379 -0.659668,1.90039 -0.659668,0.683594 -1.763672,0.683594 -1.117676,0 -1.777344,-0.680176 -0.659668,-0.683593 -0.659668,-1.879882 z m 1.042481,-0.03418 q 0,0.851074 0.393066,1.291992 0.393067,0.4375 0.998047,0.4375 0.604981,0 0.991211,-0.434082 0.389648,-0.4375 0.389648,-1.309082 0,-0.861328 -0.379394,-1.285156 -0.375977,-0.423828 -1.001465,-0.423828 -0.625488,0 -1.008301,0.430664 -0.382812,0.427246 -0.382812,1.291992 z M 19.637157,18 v -4.969727 h 1.011719 v 4.125489 h 2.515625 V 18 Z m 7.856934,0 v -4.163086 h -1.486816 v -0.847656 h 3.981933 v 0.847656 H 28.50581 V 18 Z m 10.146973,0 h -1.100586 l -0.4375,-1.138184 h -2.00293 L 33.686474,18 h -1.073242 l 1.95166,-5.010742 h 1.069824 z m -1.862793,-1.982422 -0.69043,-1.859375 -0.676758,1.859375 z m 7.730468,0.140137 v -0.844238 h 2.180665 v 1.996093 q -0.317872,0.307617 -0.922852,0.543457 -0.601563,0.232422 -1.220215,0.232422 -0.786133,0 -1.370605,-0.328125 -0.584473,-0.331543 -0.878418,-0.943359 -0.293946,-0.615235 -0.293946,-1.336426 0,-0.782715 0.328125,-1.391113 0.328125,-0.608399 0.96045,-0.933106 0.481933,-0.249511 1.199707,-0.249511 0.933105,0 1.456054,0.393066 0.526368,0.389648 0.676758,1.080078 l -1.004883,0.187988 q -0.105957,-0.36914 -0.399902,-0.581054 -0.290527,-0.215332 -0.728027,-0.215332 -0.663086,0 -1.056153,0.42041 -0.389648,0.42041 -0.389648,1.247558 0,0.89209 0.396484,1.339844 0.396485,0.444336 1.039063,0.444336 0.317871,0 0.635742,-0.123047 0.321289,-0.126465 0.550293,-0.304199 V 16.157715 Z M 49.622509,18 v -5.010742 h 3.715332 v 0.847656 h -2.703613 v 1.11084 h 2.515625 v 0.844238 h -2.515625 v 1.36377 h 2.799316 V 18 Z m 12.617188,-5.010742 h 2.002929 q 0.594727,0 0.885254,0.05127 0.293945,0.04785 0.522949,0.205078 0.232422,0.157227 0.386231,0.420411 0.153808,0.259765 0.153808,0.584472 0,0.352051 -0.191406,0.645996 -0.187988,0.293946 -0.512695,0.440918 0.458008,0.133301 0.704101,0.45459 0.246094,0.321289 0.246094,0.755371 0,0.341797 -0.160644,0.666504 -0.157227,0.321289 -0.434082,0.516113 -0.273438,0.191407 -0.676758,0.23584 -0.25293,0.02734 -1.220215,0.03418 h -1.705566 z m 1.011718,0.833984 v 1.158692 h 0.663086 q 0.591309,0 0.734863,-0.01709 0.259766,-0.03076 0.406739,-0.177735 0.15039,-0.15039 0.15039,-0.393066 0,-0.232422 -0.129882,-0.375977 -0.126465,-0.146972 -0.379395,-0.177734 -0.150391,-0.01709 -0.864746,-0.01709 z m 0,1.992676 v 1.339844 h 0.936524 q 0.546875,0 0.693847,-0.03076 0.225586,-0.04102 0.365723,-0.198242 0.143555,-0.160645 0.143555,-0.427246 0,-0.225586 -0.109375,-0.382813 -0.109375,-0.157226 -0.317871,-0.229004 -0.205079,-0.07178 -0.895508,-0.07178 z M 70.318798,18 v -4.969727 h 1.011719 v 4.125489 h 2.515625 V 18 Z m 7.043457,-2.474609 q 0,-0.765625 0.229004,-1.285157 0.170898,-0.382812 0.464844,-0.687011 0.297363,-0.3042 0.649414,-0.451172 0.468262,-0.198242 1.080078,-0.198242 1.107422,0 1.770508,0.687011 0.666504,0.687012 0.666504,1.910645 0,1.213379 -0.659668,1.90039 -0.659668,0.683594 -1.763672,0.683594 -1.117676,0 -1.777344,-0.680176 -0.659668,-0.683593 -0.659668,-1.879882 z m 1.042481,-0.03418 q 0,0.851074 0.393066,1.291992 0.393066,0.4375 0.998047,0.4375 0.60498,0 0.991211,-0.434082 0.389648,-0.4375 0.389648,-1.309082 0,-0.861328 -0.379394,-1.285156 -0.375977,-0.423828 -1.001465,-0.423828 -0.625488,0 -1.008301,0.430664 -0.382812,0.427246 -0.382812,1.291992 z m 10.813476,0.666504 0.980957,0.311035 q -0.225586,0.820312 -0.751953,1.220215 -0.522949,0.396484 -1.32959,0.396484 -0.998047,0 -1.640625,-0.680176 -0.642578,-0.683593 -0.642578,-1.86621 0,-1.250977 0.645996,-1.941407 0.645996,-0.693847 1.698731,-0.693847 0.919433,0 1.493652,0.543457 0.341797,0.321289 0.512695,0.922851 l -1.001465,0.239258 q -0.08887,-0.389648 -0.372558,-0.615234 -0.280274,-0.225586 -0.683594,-0.225586 -0.557129,0 -0.905762,0.399902 -0.345214,0.399902 -0.345214,1.29541 0,0.950195 0.341796,1.353516 0.341797,0.40332 0.888672,0.40332 0.403321,0 0.693848,-0.256348 0.290527,-0.256347 0.416992,-0.80664 z M 94.081005,18 v -5.010742 h 1.011719 v 2.225097 l 2.043945,-2.225097 h 1.360352 L 96.610302,14.940918 98.59956,18 H 97.290478 L 95.913036,15.648438 95.092724,16.48584 V 18 Z"
     id="text6"
     style="font-weight:700;font-size:7px;font-family:'Arial Narrow', Arial, sans-serif;letter-spacing:3;text-anchor:middle;fill:#111111"
     aria-label="VOLTAGE BLOCK" />
  <path
     d="m 11.422436,22.641357 q -0.191406,-0.07007 -0.283692,-0.199951 -0.09229,-0.129883 -0.09229,-0.311035 0,-0.273437 0.196533,-0.459717 0.196534,-0.186279 0.52295,-0.186279 0.328125,0 0.528076,0.191406 0.199951,0.189698 0.199951,0.463135 0,0.174316 -0.09229,0.304199 -0.09058,0.128174 -0.276856,0.198242 0.230713,0.0752 0.350342,0.242676 0.121338,0.167481 0.121338,0.399903 0,0.321289 -0.227295,0.540039 -0.227295,0.21875 -0.598144,0.21875 -0.37085,0 -0.598145,-0.21875 -0.227295,-0.220459 -0.227295,-0.548584 0,-0.244385 0.123047,-0.408448 0.124756,-0.165771 0.35376,-0.225586 z m -0.06152,-0.52124 q 0,0.177735 0.114502,0.290528 0.114502,0.112792 0.297364,0.112792 0.177734,0 0.290527,-0.111083 0.114502,-0.112793 0.114502,-0.275147 0,-0.169189 -0.11792,-0.283691 -0.116211,-0.116211 -0.290527,-0.116211 -0.176026,0 -0.292237,0.112793 -0.116211,0.112793 -0.116211,0.270019 z m -0.09912,1.156983 q 0,0.131591 0.06152,0.254638 0.06323,0.123047 0.186279,0.191407 0.123047,0.06665 0.264893,0.06665 0.220459,0 0.364013,-0.141846 0.143555,-0.141845 0.143555,-0.360595 0,-0.222168 -0.148682,-0.367432 -0.146972,-0.145264 -0.36914,-0.145264 -0.217041,0 -0.360596,0.143555 -0.141846,0.143555 -0.141846,0.358887 z m 7.518555,-0.155518 0.331543,0.08374 q -0.104248,0.408448 -0.375977,0.62378 -0.270019,0.213623 -0.661377,0.213623 -0.405029,0 -0.659668,-0.164063 -0.252929,-0.165771 -0.38623,-0.478516 -0.131592,-0.312744 -0.131592,-0.67163 0,-0.391358 0.148682,-0.681885 0.15039,-0.292236 0.425537,-0.442627 0.276855,-0.1521 0.608398,-0.1521 0.375977,0 0.632325,0.191407 0.256347,0.191406 0.357177,0.53833 l -0.326416,0.0769 q -0.08716,-0.273438 -0.252929,-0.398193 -0.165772,-0.124756 -0.416993,-0.124756 -0.288818,0 -0.483642,0.138427 -0.193115,0.138428 -0.271729,0.372559 -0.07861,0.232422 -0.07861,0.480225 0,0.31958 0.09228,0.558838 0.09399,0.237548 0.290528,0.355468 0.196533,0.11792 0.425537,0.11792 0.278564,0 0.471679,-0.160644 0.193116,-0.160645 0.261475,-0.476807 z M 21.03059,24 v -2.505371 h 0.331543 v 1.028808 h 1.302246 v -1.028808 h 0.331543 V 24 H 22.664379 V 22.819092 H 21.362133 V 24 Z m 3.742188,0 0.962158,-2.505371 h 0.357177 L 27.117504,24 H 26.739819 L 26.447582,23.241211 H 25.399975 L 25.124828,24 Z m 0.7229,-1.028809 h 0.849365 l -0.261474,-0.693847 q -0.119629,-0.316162 -0.177735,-0.519532 -0.04785,0.240967 -0.13501,0.478516 z M 28.878979,24 v -2.505371 h 0.340088 l 1.315918,1.967041 v -1.967041 h 0.317871 V 24 H 30.512768 L 29.19685,22.03125 V 24 Z m 4.027588,0 v -2.505371 h 0.340088 l 1.315917,1.967041 v -1.967041 h 0.317872 V 24 H 34.540356 L 33.224438,22.03125 V 24 Z m 4.037841,0 v -2.505371 h 1.811524 v 0.295654 h -1.479981 v 0.767334 h 1.385987 v 0.293945 h -1.385987 v 0.852784 h 1.538086 V 24 Z m 3.813965,0 v -2.505371 h 0.331543 v 2.209717 h 1.233887 V 24 Z m 7.590332,-0.878418 0.331543,0.08374 q -0.104248,0.408448 -0.375976,0.62378 -0.27002,0.213623 -0.661377,0.213623 -0.40503,0 -0.659668,-0.164063 -0.25293,-0.165771 -0.386231,-0.478516 -0.131591,-0.312744 -0.131591,-0.67163 0,-0.391358 0.148681,-0.681885 0.150391,-0.292236 0.425537,-0.442627 0.276856,-0.1521 0.608399,-0.1521 0.375976,0 0.632324,0.191407 0.256348,0.191406 0.357178,0.53833 l -0.326416,0.0769 q -0.08716,-0.273438 -0.25293,-0.398193 -0.165772,-0.124756 -0.416992,-0.124756 -0.288819,0 -0.483643,0.138427 -0.193115,0.138428 -0.271728,0.372559 -0.07861,0.232422 -0.07861,0.480225 0,0.31958 0.09229,0.558838 0.09399,0.237548 0.290527,0.355468 0.196533,0.11792 0.425537,0.11792 0.278564,0 0.47168,-0.160644 0.193115,-0.160645 0.261474,-0.476807 z M 51.30476,24 50.334057,21.494629 h 0.358887 l 0.651123,1.820068 q 0.07861,0.21875 0.131591,0.410157 0.05811,-0.205079 0.13501,-0.410157 l 0.676758,-1.820068 h 0.338379 L 51.644848,24 Z m 5.478027,-0.804932 0.312744,-0.02734 q 0.02222,0.187988 0.10254,0.309326 0.08203,0.119629 0.252929,0.194824 0.170899,0.07349 0.384522,0.07349 0.189697,0 0.334961,-0.0564 0.145263,-0.0564 0.215332,-0.153809 0.07178,-0.09912 0.07178,-0.215332 0,-0.11792 -0.06836,-0.205078 -0.06836,-0.08887 -0.225586,-0.148682 -0.10083,-0.03931 -0.446045,-0.121337 -0.345215,-0.08374 -0.483643,-0.157227 -0.179443,-0.09399 -0.26831,-0.232422 -0.08716,-0.140137 -0.08716,-0.312744 0,-0.189697 0.107666,-0.35376 0.107666,-0.165771 0.314454,-0.25122 0.206787,-0.08545 0.459716,-0.08545 0.278565,0 0.490479,0.09058 0.213623,0.08887 0.328125,0.263184 0.114502,0.174316 0.123047,0.394775 l -0.317871,0.02393 q -0.02564,-0.237549 -0.174317,-0.358886 -0.146972,-0.121338 -0.435791,-0.121338 -0.300781,0 -0.439209,0.111084 -0.136718,0.109375 -0.136718,0.264892 0,0.13501 0.09741,0.222168 0.0957,0.08716 0.499023,0.179444 0.405029,0.09058 0.55542,0.158935 0.21875,0.10083 0.322998,0.256348 0.104248,0.153808 0.104248,0.355468 0,0.199952 -0.114502,0.377686 -0.114502,0.176025 -0.329834,0.275146 -0.213623,0.09741 -0.481933,0.09741 -0.340088,0 -0.570801,-0.09912 -0.229004,-0.09912 -0.360596,-0.297364 -0.129883,-0.199951 -0.136719,-0.451172 z M 60.736889,24 v -2.505371 h 1.811523 v 0.295654 h -1.47998 v 0.767334 h 1.385986 v 0.293945 h -1.385986 v 0.852784 h 1.538086 V 24 Z m 5.726318,-0.268311 q 0.230713,0.158936 0.425537,0.232422 l -0.09741,0.230713 q -0.270019,-0.09741 -0.53833,-0.307617 -0.278564,0.155518 -0.615234,0.155518 -0.340088,0 -0.616944,-0.164063 -0.276855,-0.164062 -0.427246,-0.461426 -0.148681,-0.297363 -0.148681,-0.669922 0,-0.370849 0.15039,-0.675048 0.150391,-0.3042 0.427246,-0.463135 0.278565,-0.158936 0.622071,-0.158936 0.346924,0 0.625488,0.165772 0.278564,0.164062 0.423828,0.461426 0.146973,0.295654 0.146973,0.668212 0,0.309327 -0.09399,0.557129 -0.09399,0.246094 -0.283692,0.428955 z m -0.729736,-0.423828 q 0.287109,0.08032 0.473389,0.239258 0.292236,-0.266601 0.292236,-0.801514 0,-0.304199 -0.104248,-0.531494 -0.102539,-0.227295 -0.30249,-0.35205 -0.198243,-0.126465 -0.446045,-0.126465 -0.37085,0 -0.615235,0.254638 -0.244384,0.25293 -0.244384,0.75708 0,0.48877 0.240966,0.750245 0.242676,0.261474 0.618653,0.261474 0.177734,0 0.334961,-0.06665 -0.155518,-0.10083 -0.328125,-0.143555 z m 4.69751,-1.813232 h 0.331543 v 1.44751 q 0,0.377685 -0.08545,0.599853 -0.08545,0.222168 -0.309326,0.362305 -0.222168,0.138428 -0.584472,0.138428 -0.352051,0 -0.575928,-0.121338 -0.223877,-0.121338 -0.31958,-0.350342 -0.0957,-0.230713 -0.0957,-0.628906 v -1.44751 h 0.331543 v 1.445801 q 0,0.326416 0.05981,0.481933 0.06152,0.153809 0.208496,0.237549 0.148682,0.08374 0.362305,0.08374 0.365723,0 0.52124,-0.165771 0.155518,-0.165772 0.155518,-0.637451 z M 72.821362,24 v -2.505371 h 1.811523 v 0.295654 h -1.47998 v 0.767334 h 1.385986 v 0.293945 h -1.385986 v 0.852784 H 74.69099 V 24 Z m 3.824218,0 v -2.505371 h 0.340088 l 1.315918,1.967041 v -1.967041 h 0.317871 V 24 H 78.279369 L 76.963451,22.03125 V 24 Z m 5.818604,-0.878418 0.331543,0.08374 q -0.104248,0.408448 -0.375977,0.62378 -0.270019,0.213623 -0.661377,0.213623 -0.405029,0 -0.659668,-0.164063 -0.252929,-0.165771 -0.38623,-0.478516 -0.131592,-0.312744 -0.131592,-0.67163 0,-0.391358 0.148682,-0.681885 0.15039,-0.292236 0.425537,-0.442627 0.276855,-0.1521 0.608398,-0.1521 0.375977,0 0.632324,0.191407 0.256348,0.191406 0.357178,0.53833 l -0.326416,0.0769 q -0.08716,-0.273438 -0.25293,-0.398193 -0.165771,-0.124756 -0.416992,-0.124756 -0.288818,0 -0.483642,0.138427 -0.193116,0.138428 -0.271729,0.372559 -0.07861,0.232422 -0.07861,0.480225 0,0.31958 0.09229,0.558838 0.09399,0.237548 0.290527,0.355468 0.196534,0.11792 0.425538,0.11792 0.278564,0 0.471679,-0.160644 0.193115,-0.160645 0.261475,-0.476807 z M 84.71101,24 v -2.505371 h 1.811523 v 0.295654 h -1.47998 v 0.767334 h 1.385986 v 0.293945 h -1.385986 v 0.852784 h 1.538086 V 24 Z m 3.832764,0 v -2.505371 h 1.110839 q 0.334961,0 0.509278,0.06836 0.174316,0.06665 0.278564,0.237549 0.104248,0.170899 0.104248,0.377686 0,0.266601 -0.172607,0.449463 -0.172608,0.182861 -0.533203,0.232421 0.131592,0.06323 0.199951,0.124756 0.145264,0.133301 0.275146,0.333252 L 90.751781,24 h -0.416992 l -0.331543,-0.52124 q -0.145263,-0.225586 -0.239258,-0.345215 -0.09399,-0.119629 -0.169189,-0.167481 -0.07349,-0.04785 -0.150391,-0.06665 -0.0564,-0.01196 -0.18457,-0.01196 H 88.875317 V 24 Z m 0.331543,-1.399658 h 0.712646 q 0.227295,0 0.355469,-0.04614 0.128174,-0.04785 0.194824,-0.15039 0.06665,-0.104248 0.06665,-0.225586 0,-0.177735 -0.129882,-0.292237 -0.128174,-0.114502 -0.406739,-0.114502 h -0.792968 z"
     id="text7"
     style="font-size:3.5px;font-family:Arial, sans-serif;letter-spacing:1.5;text-anchor:middle;fill:#aaaaaa"
     aria-label="8 CHANNEL CV SEQUENCER" />
  <path
     id="line7"
     style="stroke:#cccccc;stroke-width:0.3"
     d="M 4,27 H 97.599998" />
  <!-- ===== TOP ROW: 8 OUTPUT JACKS ===== -->
  <!-- x: 8.89,20.96,33.02,45.09,57.15,69.22,81.28,93.34  y: 33 -->
  <!-- Channel numbers -->
  <path
     d="M 9.2206888,29 H 8.9130716 v -1.960205 q -0.111084,0.105957 -0.2922363,0.211914 -0.1794434,0.105957 -0.322998,0.158936 v -0.297364 q 0.2580566,-0.121338 0.4511718,-0.293945 0.1931153,-0.172607 0.2734375,-0.334961 h 0.1982422 z"
     id="text8"
     style="font-size:3.5px;font-family:Arial;text-anchor:middle;fill:#666666"
     aria-label="1" />
  <path
     d="M 21.748695,28.704346 V 29 H 20.09269 q -0.0034,-0.111084 0.03589,-0.213623 0.06323,-0.16919 0.20166,-0.333252 0.140137,-0.164063 0.403321,-0.379395 0.408447,-0.33496 0.552002,-0.529785 0.143554,-0.196533 0.143554,-0.370849 0,-0.182862 -0.131592,-0.307617 -0.129882,-0.126465 -0.340087,-0.126465 -0.222168,0 -0.355469,0.1333 -0.133301,0.133301 -0.13501,0.369141 l -0.316162,-0.03247 q 0.03247,-0.353759 0.244385,-0.53833 0.211914,-0.186279 0.569092,-0.186279 0.360595,0 0.5708,0.199951 0.210205,0.199951 0.210205,0.495606 0,0.15039 -0.06152,0.295654 -0.06152,0.145264 -0.205078,0.305908 -0.141846,0.160645 -0.473389,0.440918 -0.276855,0.232422 -0.355469,0.316162 -0.07861,0.08203 -0.129882,0.165772 z"
     id="text9"
     style="font-size:3.5px;font-family:Arial;text-anchor:middle;fill:#666666"
     aria-label="2" />
  <path
     d="m 32.193707,28.338623 0.307617,-0.04102 q 0.05298,0.261475 0.179443,0.377686 0.128174,0.114502 0.311035,0.114502 0.217041,0 0.365723,-0.150391 0.15039,-0.15039 0.15039,-0.372558 0,-0.211914 -0.138427,-0.348633 -0.138428,-0.138428 -0.352051,-0.138428 -0.08716,0 -0.217041,0.03418 l 0.03418,-0.27002 q 0.03076,0.0034 0.04956,0.0034 0.196533,0 0.35376,-0.102539 0.157227,-0.102539 0.157227,-0.316162 0,-0.169189 -0.114502,-0.280273 -0.114502,-0.111084 -0.295655,-0.111084 -0.179443,0 -0.299072,0.112793 -0.119629,0.112793 -0.153809,0.338379 l -0.307617,-0.05469 q 0.0564,-0.309326 0.256348,-0.478516 0.199951,-0.170898 0.497314,-0.170898 0.205078,0 0.377686,0.08887 0.172607,0.08716 0.263183,0.239258 0.09229,0.1521 0.09229,0.322998 0,0.162354 -0.08716,0.295654 -0.08716,0.133301 -0.258056,0.211914 0.222168,0.05127 0.345215,0.213623 0.123047,0.160645 0.123047,0.403321 0,0.328125 -0.239258,0.557129 -0.239258,0.227295 -0.604981,0.227295 -0.329834,0 -0.548584,-0.196534 -0.217041,-0.196533 -0.247802,-0.509277 z"
     id="text10"
     style="font-size:3.5px;font-family:Arial;text-anchor:middle;fill:#666666"
     aria-label="3" />
  <path
     d="m 45.248081,29 v -0.599854 h -1.086914 v -0.281982 l 1.143311,-1.623535 h 0.25122 v 1.623535 h 0.338379 v 0.281982 H 45.555698 V 29 Z m 0,-0.881836 v -1.129639 l -0.784424,1.129639 z"
     id="text11"
     style="font-size:3.5px;font-family:Arial;text-anchor:middle;fill:#666666"
     aria-label="4" />
  <path
     d="m 56.321999,28.34375 0.322998,-0.02734 q 0.03589,0.23584 0.165771,0.355469 0.131592,0.11792 0.316162,0.11792 0.222168,0 0.375977,-0.167481 0.153808,-0.16748 0.153808,-0.444335 0,-0.263184 -0.148681,-0.415284 -0.146973,-0.152099 -0.386231,-0.152099 -0.148681,0 -0.26831,0.06836 -0.119629,0.06665 -0.187989,0.174316 l -0.288818,-0.0376 0.242676,-1.286865 h 1.245849 v 0.293945 h -0.999755 l -0.13501,0.67334 q 0.225586,-0.157227 0.473389,-0.157227 0.328125,0 0.55371,0.227295 0.225586,0.227295 0.225586,0.584473 0,0.340088 -0.198242,0.58789 -0.240967,0.3042 -0.657959,0.3042 -0.341797,0 -0.558838,-0.191407 -0.215332,-0.191406 -0.246093,-0.507568 z"
     id="text12"
     style="font-size:3.5px;font-family:Arial;text-anchor:middle;fill:#666666"
     aria-label="5" />
  <path
     d="m 69.98819,27.108154 -0.305909,0.02393 q -0.04102,-0.181152 -0.11621,-0.263184 -0.124756,-0.131591 -0.307618,-0.131591 -0.146972,0 -0.258056,0.08203 -0.145264,0.105957 -0.229004,0.309326 -0.08374,0.203369 -0.08716,0.579346 0.111084,-0.16919 0.271728,-0.251221 0.160645,-0.08203 0.33667,-0.08203 0.307617,0 0.522949,0.227295 0.217041,0.225586 0.217041,0.584472 0,0.23584 -0.102539,0.439209 -0.10083,0.201661 -0.278564,0.309327 -0.177735,0.107666 -0.403321,0.107666 -0.384521,0 -0.627197,-0.281983 -0.242676,-0.283691 -0.242676,-0.933105 0,-0.726319 0.268311,-1.056153 0.234131,-0.287109 0.630615,-0.287109 0.295654,0 0.483643,0.165771 0.189697,0.165772 0.227295,0.458008 z m -1.256104,1.080078 q 0,0.158936 0.06665,0.3042 0.06836,0.145263 0.189697,0.222168 0.121338,0.0752 0.254639,0.0752 0.194824,0 0.33496,-0.157227 0.140137,-0.157226 0.140137,-0.427246 0,-0.259765 -0.138428,-0.408447 -0.138427,-0.150391 -0.348632,-0.150391 -0.208496,0 -0.35376,0.150391 -0.145264,0.148682 -0.145264,0.391357 z"
     id="text13"
     style="font-size:3.5px;font-family:Arial;text-anchor:middle;fill:#666666"
     aria-label="6" />
  <path
     d="M 80.472504,26.822754 V 26.5271 h 1.621826 v 0.239257 q -0.239258,0.254639 -0.475098,0.676758 -0.234131,0.422119 -0.362305,0.868164 Q 81.164642,28.625732 81.139008,29 h -0.316163 q 0.0051,-0.295654 0.116211,-0.714355 0.111084,-0.418702 0.317871,-0.806641 0.208497,-0.389649 0.442627,-0.65625 z"
     id="text14"
     style="font-size:3.5px;font-family:Arial;text-anchor:middle;fill:#666666"
     aria-label="7" />
  <path
     d="m 92.985382,27.641357 q -0.191406,-0.07007 -0.283691,-0.199951 -0.09228,-0.129883 -0.09228,-0.311035 0,-0.273437 0.196533,-0.459717 0.196533,-0.186279 0.522949,-0.186279 0.328125,0 0.528076,0.191406 0.199951,0.189698 0.199951,0.463135 0,0.174316 -0.09229,0.304199 -0.09058,0.128174 -0.276855,0.198242 0.230713,0.0752 0.350341,0.242676 0.121338,0.167481 0.121338,0.399903 0,0.321289 -0.227295,0.540039 -0.227294,0.21875 -0.598144,0.21875 -0.37085,0 -0.598145,-0.21875 -0.227295,-0.220459 -0.227295,-0.548584 0,-0.244385 0.123047,-0.408448 0.124756,-0.165771 0.35376,-0.225586 z m -0.06152,-0.52124 q 0,0.177735 0.114502,0.290528 0.114502,0.112792 0.297363,0.112792 0.177734,0 0.290527,-0.111083 0.114502,-0.112793 0.114502,-0.275147 0,-0.169189 -0.11792,-0.283691 -0.116211,-0.116211 -0.290527,-0.116211 -0.176025,0 -0.292236,0.112793 -0.116211,0.112793 -0.116211,0.270019 z m -0.09912,1.156983 q 0,0.131591 0.06152,0.254638 0.06323,0.123047 0.186279,0.191407 0.123047,0.06665 0.264893,0.06665 0.220459,0 0.364014,-0.141846 0.143554,-0.141845 0.143554,-0.360595 0,-0.222168 -0.148681,-0.367432 -0.146973,-0.145264 -0.369141,-0.145264 -0.217041,0 -0.360596,0.143555 -0.141845,0.143555 -0.141845,0.358887 z"
     id="text15"
     style="font-size:3.5px;font-family:Arial;text-anchor:middle;fill:#666666"
     aria-label="8" />
  <!-- Jacks y=33 -->
  <path
     id="circle15"
     style="fill:#b8b5ae;stroke:#888888;stroke-width:0.8"
     d="m 13.39,33 a 4.5,4.5 0 0 1 -4.4999997,4.5 4.5,4.5 0 0 1 -4.5,-4.5 4.5,4.5 0 0 1 4.5,-4.5 A 4.5,4.5 0 0 1 13.39,33 Z" />
  <path
     id="circle16"
     style="fill:#111111"
     d="m 11.59,33 a 2.7,2.7 0 0 1 -2.6999997,2.7 2.7,2.7 0 0 1 -2.7,-2.7 2.7,2.7 0 0 1 2.7,-2.7 A 2.7,2.7 0 0 1 11.59,33 Z" />
  <path
     id="circle17"
     style="fill:#555555"
     d="m 9.7900003,33 a 0.89999998,0.89999998 0 0 1 -0.9,0.9 0.89999998,0.89999998 0 0 1 -0.8999999,-0.9 0.89999998,0.89999998 0 0 1 0.8999999,-0.9 0.89999998,0.89999998 0 0 1 0.9,0.9 z" />
  <path
     id="circle18"
     style="fill:#b8b5ae;stroke:#888888;stroke-width:0.8"
     d="m 25.459999,33 a 4.5,4.5 0 0 1 -4.5,4.5 4.5,4.5 0 0 1 -4.5,-4.5 4.5,4.5 0 0 1 4.5,-4.5 4.5,4.5 0 0 1 4.5,4.5 z" />
  <path
     id="circle19"
     style="fill:#111111"
     d="m 23.659999,33 a 2.7,2.7 0 0 1 -2.7,2.7 2.7,2.7 0 0 1 -2.7,-2.7 2.7,2.7 0 0 1 2.7,-2.7 2.7,2.7 0 0 1 2.7,2.7 z" />
  <path
     id="circle20"
     style="fill:#555555"
     d="m 21.859999,33 a 0.89999998,0.89999998 0 0 1 -0.9,0.9 0.89999998,0.89999998 0 0 1 -0.9,-0.9 0.89999998,0.89999998 0 0 1 0.9,-0.9 0.89999998,0.89999998 0 0 1 0.9,0.9 z" />
  <path
     id="circle21"
     style="fill:#b8b5ae;stroke:#888888;stroke-width:0.8"
     d="m 37.52,33 a 4.5,4.5 0 0 1 -4.5,4.5 4.5,4.5 0 0 1 -4.5,-4.5 4.5,4.5 0 0 1 4.5,-4.5 4.5,4.5 0 0 1 4.5,4.5 z" />
  <path
     id="circle22"
     style="fill:#111111"
     d="M 35.720001,33 A 2.7,2.7 0 0 1 33.02,35.7 2.7,2.7 0 0 1 30.32,33 a 2.7,2.7 0 0 1 2.7,-2.7 2.7,2.7 0 0 1 2.700001,2.7 z" />
  <path
     id="circle23"
     style="fill:#555555"
     d="m 33.92,33 a 0.89999998,0.89999998 0 0 1 -0.9,0.9 0.89999998,0.89999998 0 0 1 -0.9,-0.9 0.89999998,0.89999998 0 0 1 0.9,-0.9 0.89999998,0.89999998 0 0 1 0.9,0.9 z" />
  <path
     id="circle24"
     style="fill:#b8b5ae;stroke:#888888;stroke-width:0.8"
     d="m 49.59,33 a 4.5,4.5 0 0 1 -4.5,4.5 4.5,4.5 0 0 1 -4.5,-4.5 4.5,4.5 0 0 1 4.5,-4.5 4.5,4.5 0 0 1 4.5,4.5 z" />
  <path
     id="circle25"
     style="fill:#111111"
     d="m 47.79,33 a 2.7,2.7 0 0 1 -2.7,2.7 2.7,2.7 0 0 1 -2.7,-2.7 2.7,2.7 0 0 1 2.7,-2.7 2.7,2.7 0 0 1 2.7,2.7 z" />
  <path
     id="circle26"
     style="fill:#555555"
     d="m 45.99,33 a 0.89999998,0.89999998 0 0 1 -0.9,0.9 0.89999998,0.89999998 0 0 1 -0.9,-0.9 0.89999998,0.89999998 0 0 1 0.9,-0.9 0.89999998,0.89999998 0 0 1 0.9,0.9 z" />
  <path
     id="circle27"
     style="fill:#b8b5ae;stroke:#888888;stroke-width:0.8"
     d="m 61.650002,33 a 4.5,4.5 0 0 1 -4.5,4.5 4.5,4.5 0 0 1 -4.5,-4.5 4.5,4.5 0 0 1 4.5,-4.5 4.5,4.5 0 0 1 4.5,4.5 z" />
  <path
     id="circle28"
     style="fill:#111111"
     d="m 59.850002,33 a 2.7,2.7 0 0 1 -2.7,2.7 2.7,2.7 0 0 1 -2.700001,-2.7 2.7,2.7 0 0 1 2.700001,-2.7 2.7,2.7 0 0 1 2.7,2.7 z" />
  <path
     id="circle29"
     style="fill:#555555"
     d="m 58.050002,33 a 0.89999998,0.89999998 0 0 1 -0.9,0.9 0.89999998,0.89999998 0 0 1 -0.9,-0.9 0.89999998,0.89999998 0 0 1 0.9,-0.9 0.89999998,0.89999998 0 0 1 0.9,0.9 z" />
  <path
     id="circle30"
     style="fill:#b8b5ae;stroke:#888888;stroke-width:0.8"
     d="m 73.720001,33 a 4.5,4.5 0 0 1 -4.5,4.5 4.5,4.5 0 0 1 -4.5,-4.5 4.5,4.5 0 0 1 4.5,-4.5 4.5,4.5 0 0 1 4.5,4.5 z" />
  <path
     id="circle31"
     style="fill:#111111"
     d="m 71.920001,33 a 2.7,2.7 0 0 1 -2.7,2.7 2.7,2.7 0 0 1 -2.7,-2.7 2.7,2.7 0 0 1 2.7,-2.7 2.7,2.7 0 0 1 2.7,2.7 z" />
  <path
     id="circle32"
     style="fill:#555555"
     d="m 70.120001,33 a 0.89999998,0.89999998 0 0 1 -0.9,0.9 0.89999998,0.89999998 0 0 1 -0.9,-0.9 0.89999998,0.89999998 0 0 1 0.9,-0.9 0.89999998,0.89999998 0 0 1 0.9,0.9 z" />
  <path
     id="circle33"
     style="fill:#b8b5ae;stroke:#888888;stroke-width:0.8"
     d="m 85.779999,33 a 4.5,4.5 0 0 1 -4.5,4.5 4.5,4.5 0 0 1 -4.5,-4.5 4.5,4.5 0 0 1 4.5,-4.5 4.5,4.5 0 0 1 4.5,4.5 z" />
  <path
     id="circle34"
     style="fill:#111111"
     d="m 83.979999,33 a 2.7,2.7 0 0 1 -2.7,2.7 2.7,2.7 0 0 1 -2.7,-2.7 2.7,2.7 0 0 1 2.7,-2.7 2.7,2.7 0 0 1 2.7,2.7 z" />
  <path
     id="circle35"
     style="fill:#555555"
     d="m 82.179999,33 a 0.89999998,0.89999998 0 0 1 -0.9,0.9 0.89999998,0.89999998 0 0 1 -0.9,-0.9 0.89999998,0.89999998 0 0 1 0.9,-0.9 0.89999998,0.89999998 0 0 1 0.9,0.9 z" />
  <path
     id="circle36"
     style="fill:#b8b5ae;stroke:#888888;stroke-width:0.8"
     d="m 97.839996,33 a 4.5,4.5 0 0 1 -4.5,4.5 4.5,4.5 0 0 1 -4.5,-4.5 4.5,4.5 0 0 1 4.5,-4.5 4.5,4.5 0 0 1 4.5,4.5 z" />
  <path
     id="circle37"
     style="fill:#111111"
     d="m 96.039996,33 a 2.7,2.7 0 0 1 -2.7,2.7 2.7,2.7 0 0 1 -2.7,-2.7 2.7,2.7 0 0 1 2.7,-2.7 2.7,2.7 0 0 1 2.7,2.7 z" />
  <path
     id="circle38"
     style="fill:#555555"
     d="m 94.239996,33 a 0.89999998,0.89999998 0 0 1 -0.9,0.9 0.89999998,0.89999998 0 0 1 -0.9,-0.9 0.89999998,0.89999998 0 0 1 0.9,-0.9 0.89999998,0.89999998 0 0 1 0.9,0.9 z" />
  <!-- Red LEDs below jacks y=40 -->
  <path
     id="circle39"
     style="fill:#cc2020"
     d="m 10.89,40 a 2,2 0 0 1 -1.9999997,2 2,2 0 0 1 -2,-2 2,2 0 0 1 2,-2 A 2,2 0 0 1 10.89,40 Z" />
  <path
     id="circle40"
     style="fill:#cc2020"
     d="m 22.959999,40 a 2,2 0 0 1 -2,2 2,2 0 0 1 -2,-2 2,2 0 0 1 2,-2 2,2 0 0 1 2,2 z" />
  <path
     id="circle41"
     style="fill:#cc2020"
     d="m 35.02,40 a 2,2 0 0 1 -2,2 2,2 0 0 1 -2,-2 2,2 0 0 1 2,-2 2,2 0 0 1 2,2 z" />
  <path
     id="circle42"
     style="fill:#cc2020"
     d="m 47.09,40 a 2,2 0 0 1 -2,2 2,2 0 0 1 -2,-2 2,2 0 0 1 2,-2 2,2 0 0 1 2,2 z" />
  <path
     id="circle43"
     style="fill:#cc2020"
     d="m 59.150002,40 a 2,2 0 0 1 -2,2 2,2 0 0 1 -2,-2 2,2 0 0 1 2,-2 2,2 0 0 1 2,2 z" />
  <path
     id="circle44"
     style="fill:#cc2020"
     d="m 71.220001,40 a 2,2 0 0 1 -2,2 2,2 0 0 1 -2,-2 2,2 0 0 1 2,-2 2,2 0 0 1 2,2 z" />
  <path
     id="circle45"
     style="fill:#cc2020"
     d="m 83.279999,40 a 2,2 0 0 1 -2,2 2,2 0 0 1 -2,-2 2,2 0 0 1 2,-2 2,2 0 0 1 2,2 z" />
  <path
     id="circle46"
     style="fill:#cc2020"
     d="m 95.339996,40 a 2,2 0 0 1 -2,2 2,2 0 0 1 -2,-2 2,2 0 0 1 2,-2 2,2 0 0 1 2,2 z" />
  <path
     id="line46"
     style="stroke:#bbbbbb;stroke-width:0.3"
     d="M 4,44 H 97.599998" />
  <!-- ===== LEFT COLUMN: CLK/CV, SWITCH, RST/HLD ===== -->
  <path
     d="m 4.2852149,47.24707 0.2841797,0.07178 q -0.089355,0.350097 -0.3222656,0.534668 -0.2314453,0.183105 -0.5668946,0.183105 -0.3471679,0 -0.5654297,-0.140625 -0.2167968,-0.14209 -0.3310546,-0.410156 -0.112793,-0.268067 -0.112793,-0.575684 0,-0.335449 0.1274414,-0.584472 0.1289062,-0.250489 0.3647461,-0.379395 0.2373047,-0.130371 0.5214844,-0.130371 0.3222656,0 0.5419922,0.164062 0.2197265,0.164063 0.3061523,0.461426 l -0.2797852,0.06592 Q 4.1782813,46.272949 4.0361915,46.166016 3.8941016,46.059082 3.6787696,46.059082 q -0.2475586,0 -0.4145508,0.118652 -0.1655273,0.118653 -0.2329101,0.319336 -0.067383,0.199219 -0.067383,0.411621 0,0.273926 0.079102,0.479004 0.080566,0.203614 0.2490234,0.304688 0.1684571,0.101074 0.3647461,0.101074 0.2387696,0 0.4042969,-0.137695 0.1655274,-0.137696 0.2241211,-0.408692 z M 4.9077735,48 v -2.147461 h 0.2841797 v 1.894043 H 6.2495704 V 48 Z m 1.668457,0 V 45.852539 H 6.8604102 V 46.91748 L 7.9268165,45.852539 H 8.3120704 L 7.4111915,46.722656 8.3516212,48 h -0.375 L 7.2119727,46.913086 6.8604102,47.255859 V 48 Z m 1.78125,0.03662 0.6225586,-2.220703 h 0.2109375 l -0.6210937,2.220703 z m 2.5971675,-0.789551 0.28418,0.07178 q -0.08935,0.350097 -0.322265,0.534668 -0.231446,0.183105 -0.566895,0.183105 -0.347168,0 -0.5654297,-0.140625 -0.2167968,-0.14209 -0.3310546,-0.410156 -0.112793,-0.268067 -0.112793,-0.575684 0,-0.335449 0.1274414,-0.584472 0.1289062,-0.250489 0.3647461,-0.379395 0.2373048,-0.130371 0.5214848,-0.130371 0.322265,0 0.541992,0.164062 0.219726,0.164063 0.306152,0.461426 l -0.279785,0.06592 q -0.07471,-0.234375 -0.216797,-0.341308 -0.14209,-0.106934 -0.357422,-0.106934 -0.247558,0 -0.4145506,0.118652 -0.1655273,0.118653 -0.2329102,0.319336 -0.067383,0.199219 -0.067383,0.411621 0,0.273926 0.079102,0.479004 0.080566,0.203614 0.2490234,0.304688 0.1684566,0.101074 0.3647466,0.101074 0.238769,0 0.404296,-0.137695 0.165528,-0.137696 0.224121,-0.408692 z M 12.202695,48 11.370664,45.852539 h 0.307617 l 0.558106,1.560059 q 0.06738,0.1875 0.112793,0.351562 0.0498,-0.175781 0.115722,-0.351562 l 0.580079,-1.560059 H 13.33502 L 12.494199,48 Z"
     id="text46"
     style="font-size:3px;font-family:Arial;text-anchor:middle;fill:#555555"
     aria-label="CLK/CV" />
  <path
     id="circle47"
     style="fill:#b8b5ae;stroke:#888888;stroke-width:0.8"
     d="m 12.44,53 a 4.5,4.5 0 0 1 -4.4999999,4.5 4.5,4.5 0 0 1 -4.5,-4.5 4.5,4.5 0 0 1 4.5,-4.5 A 4.5,4.5 0 0 1 12.44,53 Z" />
  <path
     id="circle48"
     style="fill:#111111"
     d="M 10.64,53 A 2.7,2.7 0 0 1 7.9400001,55.7 2.7,2.7 0 0 1 5.24,53 2.7,2.7 0 0 1 7.9400001,50.3 2.7,2.7 0 0 1 10.64,53 Z" />
  <path
     id="circle49"
     style="fill:#555555"
     d="m 8.84,53 a 0.89999998,0.89999998 0 0 1 -0.8999999,0.9 0.89999998,0.89999998 0 0 1 -0.9,-0.9 0.89999998,0.89999998 0 0 1 0.9,-0.9 A 0.89999998,0.89999998 0 0 1 8.84,53 Z" />
  <!-- Switch centred between jack and OFFSET knob -->
  <path
     id="rect49"
     style="fill:#cccccc;stroke:#999999;stroke-width:0.5"
     d="m 17.5,50 h 6 c 0.831,0 1.5,0.669 1.5,1.5 v 10 c 0,0.831 -0.669,1.5 -1.5,1.5 h -6 C 16.669,63 16,62.331 16,61.5 v -10 C 16,50.669 16.669,50 17.5,50 Z" />
  <path
     id="rect50"
     style="fill:#111111"
     d="m 18,51 h 1 c 0.554,0 1,0.446 1,1 v 3 c 0,0.554 -0.446,1 -1,1 h -1 c -0.554,0 -1,-0.446 -1,-1 v -3 c 0,-0.554 0.446,-1 1,-1 z" />
  <path
     id="rect51"
     style="fill:#bbbbbb"
     d="m 18,57 h 1 c 0.554,0 1,0.446 1,1 v 3 c 0,0.554 -0.446,1 -1,1 h -1 c -0.554,0 -1,-0.446 -1,-1 v -3 c 0,-0.554 0.446,-1 1,-1 z" />
  <path
     d="m 23.646094,53.297266 0.265234,0.06699 q -0.0834,0.326758 -0.300781,0.499023 -0.216016,0.170899 -0.529102,0.170899 -0.324023,0 -0.527734,-0.13125 -0.202344,-0.132617 -0.308984,-0.382813 -0.105274,-0.250195 -0.105274,-0.537304 0,-0.313086 0.118945,-0.545508 0.120313,-0.233789 0.34043,-0.354102 0.221484,-0.12168 0.486719,-0.12168 0.300781,0 0.505859,0.153125 0.205078,0.153125 0.285742,0.430665 l -0.261132,0.06152 q -0.06973,-0.21875 -0.202344,-0.318555 -0.132617,-0.0998 -0.333594,-0.0998 -0.231055,0 -0.386914,0.110742 -0.154492,0.110742 -0.217383,0.298047 -0.06289,0.185937 -0.06289,0.384179 0,0.255664 0.07383,0.447071 0.0752,0.190039 0.232422,0.284375 0.157226,0.09434 0.340429,0.09434 0.222852,0 0.377344,-0.128516 0.154492,-0.128516 0.20918,-0.381445 z M 24.227148,54 v -2.004297 h 0.265235 v 1.767774 h 0.987109 V 54 Z m 1.557227,0 v -2.004297 h 0.265234 v 0.993945 l 0.995313,-0.993945 h 0.35957 l -0.84082,0.81211 L 27.441406,54 h -0.35 l -0.713672,-1.014453 -0.328125,0.319922 V 54 Z"
     id="text51"
     style="font-size:2.8px;font-family:Arial;fill:#555555"
     aria-label="CLK" />
  <path
     d="m 23.646094,58.297266 0.265234,0.06699 q -0.0834,0.326758 -0.300781,0.499023 -0.216016,0.170899 -0.529102,0.170899 -0.324023,0 -0.527734,-0.13125 -0.202344,-0.132617 -0.308984,-0.382813 -0.105274,-0.250195 -0.105274,-0.537304 0,-0.313086 0.118945,-0.545508 0.120313,-0.233789 0.34043,-0.354102 0.221484,-0.12168 0.486719,-0.12168 0.300781,0 0.505859,0.153125 0.205078,0.153125 0.285742,0.430665 l -0.261132,0.06152 q -0.06973,-0.21875 -0.202344,-0.318555 -0.132617,-0.0998 -0.333594,-0.0998 -0.231055,0 -0.386914,0.110742 -0.154492,0.110742 -0.217383,0.298047 -0.06289,0.185937 -0.06289,0.384179 0,0.255664 0.07383,0.447071 0.0752,0.190039 0.232422,0.284375 0.157226,0.09434 0.340429,0.09434 0.222852,0 0.377344,-0.128516 0.154492,-0.128516 0.20918,-0.381445 z M 24.810937,59 24.034375,56.995703 h 0.287109 l 0.520899,1.456055 q 0.06289,0.175 0.105273,0.328125 0.04648,-0.164063 0.108008,-0.328125 l 0.541406,-1.456055 h 0.270703 L 25.083008,59 Z"
     id="text52"
     style="font-size:2.8px;font-family:Arial;fill:#555555"
     aria-label="CV" />
  <path
     d="m 22.125781,63.356055 0.250196,-0.02187 q 0.01777,0.15039 0.08203,0.247461 0.06563,0.0957 0.202344,0.155859 0.136718,0.05879 0.307617,0.05879 0.151758,0 0.267968,-0.04512 0.116211,-0.04512 0.172266,-0.123047 0.05742,-0.0793 0.05742,-0.172266 0,-0.09434 -0.05469,-0.164062 -0.05469,-0.07109 -0.180468,-0.118945 -0.08066,-0.03145 -0.356836,-0.09707 -0.276172,-0.06699 -0.386914,-0.125781 -0.143555,-0.0752 -0.214649,-0.185937 -0.06973,-0.11211 -0.06973,-0.250196 0,-0.151758 0.08613,-0.283008 0.08613,-0.132617 0.251562,-0.200976 0.16543,-0.06836 0.367773,-0.06836 0.222852,0 0.392383,0.07246 0.170899,0.07109 0.2625,0.210547 0.0916,0.139453 0.09844,0.315821 l -0.254297,0.01914 q -0.02051,-0.190039 -0.139453,-0.287109 -0.117578,-0.09707 -0.348633,-0.09707 -0.240625,0 -0.351367,0.08887 -0.109375,0.0875 -0.109375,0.211914 0,0.108008 0.07793,0.177734 0.07656,0.06973 0.399219,0.143555 0.324024,0.07246 0.444336,0.127148 0.175,0.08066 0.258399,0.205078 0.0834,0.123047 0.0834,0.284375 0,0.159961 -0.0916,0.302149 -0.0916,0.14082 -0.263867,0.220117 -0.170898,0.07793 -0.385547,0.07793 -0.27207,0 -0.45664,-0.0793 -0.183203,-0.0793 -0.288477,-0.237891 -0.103906,-0.159961 -0.109375,-0.360937 z M 24.072656,64 v -2.004297 h 0.265235 v 1.767774 H 25.325 V 64 Z m 1.933203,0 -0.776562,-2.004297 h 0.287109 l 0.520899,1.456055 q 0.06289,0.175 0.105273,0.328125 0.04648,-0.164063 0.108008,-0.328125 l 0.541406,-1.456055 h 0.270703 L 26.27793,64 Z"
     id="text53"
     style="font-size:2.8px;font-family:Arial;fill:#555555"
     aria-label="SLV" />
  <path
     id="circle53"
     style="fill:#b8b5ae;stroke:#888888;stroke-width:0.8"
     d="m 12.44,68 a 4.5,4.5 0 0 1 -4.4999999,4.5 4.5,4.5 0 0 1 -4.5,-4.5 4.5,4.5 0 0 1 4.5,-4.5 A 4.5,4.5 0 0 1 12.44,68 Z" />
  <path
     id="circle54"
     style="fill:#111111"
     d="M 10.64,68 A 2.7,2.7 0 0 1 7.9400001,70.7 2.7,2.7 0 0 1 5.24,68 2.7,2.7 0 0 1 7.9400001,65.3 2.7,2.7 0 0 1 10.64,68 Z" />
  <path
     id="circle55"
     style="fill:#555555"
     d="m 8.84,68 a 0.89999998,0.89999998 0 0 1 -0.8999999,0.9 0.89999998,0.89999998 0 0 1 -0.9,-0.9 0.89999998,0.89999998 0 0 1 0.9,-0.9 A 0.89999998,0.89999998 0 0 1 8.84,68 Z" />
  <path
     d="m 1.7583594,75 v -2.147461 h 0.9521485 q 0.2871093,0 0.4365234,0.05859 0.1494141,0.05713 0.2387695,0.203613 0.089355,0.146484 0.089355,0.323731 0,0.228515 -0.1479492,0.385253 -0.1479492,0.156739 -0.4570313,0.199219 0.112793,0.0542 0.1713868,0.106934 0.1245117,0.114258 0.2358398,0.285644 L 3.6509376,75 H 3.2935157 L 3.009336,74.553223 Q 2.8848243,74.359863 2.8042579,74.257324 2.7236915,74.154785 2.6592383,74.11377 2.5962501,74.072754 2.5303321,74.056641 2.4819922,74.046387 2.372129,74.046387 H 2.0425391 V 75 Z M 2.0425391,73.800293 H 2.653379 q 0.1948242,0 0.3046875,-0.03955 0.1098632,-0.04101 0.1669922,-0.128906 0.057129,-0.08936 0.057129,-0.193359 0,-0.152344 -0.1113282,-0.250489 -0.1098632,-0.09814 -0.3486328,-0.09814 H 2.0425391 Z m 1.78125,0.509766 0.2680664,-0.02344 q 0.019043,0.161133 0.087891,0.265137 0.070312,0.102539 0.2167968,0.166992 0.1464844,0.06299 0.3295899,0.06299 0.1625976,0 0.2871093,-0.04834 0.1245118,-0.04834 0.1845704,-0.131836 0.061523,-0.08496 0.061523,-0.18457 0,-0.101074 -0.058594,-0.175781 Q 5.1421485,74.165039 5.0073829,74.11377 4.9209571,74.080078 4.6250587,74.009766 4.3291602,73.937988 4.2105079,73.875 4.0566993,73.794434 3.9805274,73.675781 q -0.074707,-0.120117 -0.074707,-0.268066 0,-0.162598 0.092285,-0.303223 0.092285,-0.14209 0.2695313,-0.215332 0.1772461,-0.07324 0.3940429,-0.07324 0.2387696,0 0.4204102,0.07764 0.1831055,0.07617 0.28125,0.225586 0.098145,0.149414 0.1054688,0.338379 l -0.272461,0.02051 Q 5.1743751,73.274414 5.0469337,73.17041 4.9209571,73.066406 4.6733985,73.066406 q -0.2578125,0 -0.3764648,0.09521 -0.1171875,0.09375 -0.1171875,0.227051 0,0.115723 0.083496,0.19043 0.082031,0.07471 0.4277344,0.153808 0.347168,0.07764 0.4760742,0.136231 0.1875,0.08643 0.2768555,0.219726 0.089355,0.131836 0.089355,0.304688 0,0.171386 -0.098145,0.32373 -0.098145,0.150879 -0.2827148,0.23584 -0.1831055,0.0835 -0.4130859,0.0835 -0.2915039,0 -0.4892578,-0.08496 Q 4.0537696,74.866699 3.9409766,74.696777 3.8296485,74.525391 3.8237891,74.310059 Z M 6.4678321,75 V 73.105957 H 5.7603126 V 72.852539 H 7.462461 v 0.253418 H 6.7520118 V 75 Z m 1.0546875,0.03662 0.6225586,-2.220703 H 8.3560157 L 7.7349219,75.036621 Z M 8.5962501,75 v -2.147461 h 0.2841796 v 0.881836 h 1.116211 V 72.852539 H 10.28082 V 75 H 9.9966407 V 73.987793 H 8.8804297 V 75 Z m 2.1459959,0 v -2.147461 h 0.28418 v 1.894043 h 1.057617 V 75 Z m 1.680176,0 v -2.147461 h 0.739746 q 0.250488,0 0.382324,0.03076 0.184571,0.04248 0.314942,0.153808 0.169922,0.143555 0.253418,0.367676 0.08496,0.222656 0.08496,0.509766 0,0.244629 -0.05713,0.433594 -0.05713,0.188964 -0.146485,0.313476 -0.08935,0.123047 -0.196289,0.194824 -0.105469,0.07031 -0.256347,0.106934 Q 13.392148,75 13.197324,75 Z m 0.28418,-0.253418 h 0.458496 q 0.212402,0 0.332519,-0.03955 0.121582,-0.03955 0.19336,-0.111328 0.101074,-0.101074 0.156738,-0.270996 0.05713,-0.171387 0.05713,-0.414551 0,-0.336914 -0.111328,-0.51709 -0.109864,-0.18164 -0.268067,-0.243164 -0.114258,-0.04394 -0.367676,-0.04394 h -0.451171 z"
     id="text55"
     style="font-size:3px;font-family:Arial;text-anchor:middle;fill:#555555"
     aria-label="RST/HLD" />
  <!-- ===== KNOBS: OFFSET, ATTEN, DIVIDE ===== -->
  <path
     d="m 27.568516,46.954102 q 0,-0.534668 0.287109,-0.836426 0.28711,-0.303223 0.741211,-0.303223 0.297363,0 0.536133,0.14209 0.238769,0.14209 0.363281,0.396973 0.125977,0.253418 0.125977,0.575683 0,0.32666 -0.131836,0.584473 -0.131836,0.257812 -0.373535,0.391113 -0.2417,0.131836 -0.521485,0.131836 -0.303222,0 -0.541992,-0.146484 -0.238769,-0.146485 -0.361816,-0.399903 -0.123047,-0.253418 -0.123047,-0.536132 z m 0.292969,0.0044 q 0,0.388184 0.208007,0.612305 0.209473,0.222656 0.524414,0.222656 0.320801,0 0.527344,-0.225586 0.208008,-0.225586 0.208008,-0.640137 0,-0.262207 -0.08936,-0.457031 -0.08789,-0.196289 -0.259277,-0.303223 -0.169922,-0.108398 -0.382324,-0.108398 -0.301758,0 -0.52002,0.208008 -0.216796,0.206543 -0.216796,0.691406 z M 30.003086,48 v -2.147461 h 1.448731 v 0.253418 h -1.164551 v 0.665039 h 1.007812 v 0.253418 H 30.287266 V 48 Z m 1.83252,0 v -2.147461 h 1.44873 v 0.253418 h -1.164551 v 0.665039 h 1.007813 v 0.253418 H 32.119785 V 48 Z m 1.721191,-0.689941 0.268066,-0.02344 q 0.01904,0.161133 0.08789,0.265137 0.07031,0.102539 0.216797,0.166992 0.146484,0.06299 0.32959,0.06299 0.162597,0 0.287109,-0.04834 0.124512,-0.04834 0.18457,-0.131836 0.06152,-0.08496 0.06152,-0.18457 0,-0.101074 -0.05859,-0.175781 -0.05859,-0.07617 -0.193359,-0.127441 -0.08643,-0.03369 -0.382324,-0.104004 -0.295899,-0.07178 -0.414551,-0.134766 -0.153809,-0.08057 -0.229981,-0.199219 -0.07471,-0.120117 -0.07471,-0.268066 0,-0.162598 0.09229,-0.303223 0.09229,-0.14209 0.269532,-0.215332 0.177246,-0.07324 0.394043,-0.07324 0.238769,0 0.42041,0.07764 0.183105,0.07617 0.28125,0.225586 0.09814,0.149414 0.105469,0.338379 l -0.272461,0.02051 q -0.02197,-0.203613 -0.149414,-0.307617 -0.125977,-0.104004 -0.373536,-0.104004 -0.257812,0 -0.376464,0.09521 -0.117188,0.09375 -0.117188,0.227051 0,0.115723 0.0835,0.19043 0.08203,0.07471 0.427735,0.153808 0.347167,0.07764 0.476074,0.136231 0.1875,0.08642 0.276855,0.219726 0.08936,0.131836 0.08936,0.304688 0,0.171386 -0.09814,0.32373 -0.09814,0.150879 -0.282715,0.23584 -0.183105,0.0835 -0.413086,0.0835 -0.291504,0 -0.489257,-0.08496 -0.19629,-0.08496 -0.309082,-0.254883 -0.111329,-0.171386 -0.117188,-0.386718 z M 35.660313,48 v -2.147461 h 1.552734 v 0.253418 h -1.268555 v 0.657715 h 1.187989 v 0.251953 h -1.187989 v 0.730957 h 1.31836 V 48 Z m 2.541504,0 v -1.894043 h -0.70752 v -0.253418 h 1.702148 v 0.253418 H 38.485996 V 48 Z"
     id="text56"
     style="font-size:3px;font-family:Arial;text-anchor:middle;fill:#555555"
     aria-label="OFFSET" />
  <path
     id="circle56"
     style="fill:#cccccc;stroke:#999999;stroke-width:0.7"
     d="m 39.34,57 a 6,6 0 0 1 -6,6 6,6 0 0 1 -6,-6 6,6 0 0 1 6,-6 6,6 0 0 1 6,6 z" />
  <path
     id="circle57"
     style="fill:#222222;stroke:#444444;stroke-width:0.5"
     d="m 37.84,57 a 4.5,4.5 0 0 1 -4.5,4.5 4.5,4.5 0 0 1 -4.5,-4.5 4.5,4.5 0 0 1 4.5,-4.5 4.5,4.5 0 0 1 4.5,4.5 z" />
  <path
     id="line57"
     style="stroke:#dddddd;stroke-width:1.2"
     d="M 33.34,51.5 V 54" />
  <path
     d="m 42.180187,48 0.824707,-2.147461 h 0.306153 L 44.189953,48 H 43.866222 L 43.615734,47.349609 H 42.717785 L 42.481945,48 Z m 0.619629,-0.881836 h 0.728027 l -0.224121,-0.594727 q -0.102539,-0.270996 -0.152343,-0.445312 -0.04102,0.206543 -0.115723,0.410156 z M 44.740734,48 v -1.894043 h -0.707519 v -0.253418 h 1.702148 v 0.253418 H 45.024914 V 48 Z m 1.83252,0 v -1.894043 h -0.70752 v -0.253418 h 1.702149 v 0.253418 h -0.71045 V 48 Z m 1.291992,0 v -2.147461 h 1.552734 v 0.253418 h -1.268554 v 0.657715 h 1.187988 v 0.251953 h -1.187988 v 0.730957 h 1.318359 V 48 Z m 1.992187,0 v -2.147461 h 0.291504 l 1.12793,1.686035 v -1.686035 h 0.272461 V 48 h -0.291504 l -1.12793,-1.6875 V 48 Z"
     id="text57"
     style="font-size:3px;font-family:Arial;text-anchor:middle;fill:#555555"
     aria-label="ATTEN" />
  <path
     id="circle58"
     style="fill:#cccccc;stroke:#999999;stroke-width:0.7"
     d="m 52.990002,57 a 6,6 0 0 1 -6,6 6,6 0 0 1 -6,-6 6,6 0 0 1 6,-6 6,6 0 0 1 6,6 z" />
  <path
     id="circle59"
     style="fill:#222222;stroke:#444444;stroke-width:0.5"
     d="m 51.490002,57 a 4.5,4.5 0 0 1 -4.5,4.5 4.5,4.5 0 0 1 -4.5,-4.5 4.5,4.5 0 0 1 4.5,-4.5 4.5,4.5 0 0 1 4.5,4.5 z" />
  <path
     id="line59"
     style="stroke:#dddddd;stroke-width:1.2"
     d="M 46.990002,51.5 V 54" />
  <path
     d="m 55.870468,48 v -2.147461 h 0.739746 q 0.250489,0 0.382324,0.03076 0.184571,0.04248 0.314942,0.153808 0.169922,0.143555 0.253418,0.367676 0.08496,0.222656 0.08496,0.509766 0,0.244629 -0.05713,0.433594 -0.05713,0.188964 -0.146485,0.313476 -0.08935,0.123047 -0.196289,0.194824 -0.105468,0.07031 -0.256347,0.106934 Q 56.840195,48 56.64537,48 Z m 0.28418,-0.253418 h 0.458496 q 0.212402,0 0.332519,-0.03955 0.121582,-0.03955 0.19336,-0.111328 0.101074,-0.101074 0.156738,-0.270996 0.05713,-0.171387 0.05713,-0.414551 0,-0.336914 -0.111328,-0.51709 -0.109863,-0.18164 -0.268067,-0.243164 -0.114257,-0.04395 -0.367675,-0.04395 H 56.154648 Z M 58.085312,48 v -2.147461 h 0.28418 V 48 Z m 1.398926,0 -0.832032,-2.147461 h 0.307618 l 0.558105,1.560059 q 0.06738,0.1875 0.112793,0.351562 0.0498,-0.175781 0.115723,-0.351562 l 0.580078,-1.560059 h 0.290039 L 59.775742,48 Z m 1.435547,0 v -2.147461 h 0.284179 V 48 Z m 0.785156,0 v -2.147461 h 0.739746 q 0.250488,0 0.382324,0.03076 0.18457,0.04248 0.314942,0.153808 0.169921,0.143555 0.253417,0.367676 0.08496,0.222656 0.08496,0.509766 0,0.244629 -0.05713,0.433594 -0.05713,0.188964 -0.146485,0.313476 -0.08936,0.123047 -0.196289,0.194824 -0.105469,0.07031 -0.256348,0.106934 Q 62.674667,48 62.479843,48 Z m 0.284179,-0.253418 h 0.458497 q 0.212402,0 0.332519,-0.03955 0.121582,-0.03955 0.193359,-0.111328 0.101075,-0.101074 0.156739,-0.270996 0.05713,-0.171387 0.05713,-0.414551 0,-0.336914 -0.111328,-0.51709 -0.109864,-0.18164 -0.268067,-0.243164 -0.114258,-0.04395 -0.367676,-0.04395 H 61.98912 Z M 63.877304,48 v -2.147461 h 1.552734 v 0.253418 h -1.268554 v 0.657715 h 1.187988 v 0.251953 h -1.187988 v 0.730957 h 1.318359 V 48 Z"
     id="text59"
     style="font-size:3px;font-family:Arial;text-anchor:middle;fill:#555555"
     aria-label="DIVIDE" />
  <path
     id="circle60"
     style="fill:#cccccc;stroke:#999999;stroke-width:0.7"
     d="m 66.639999,57 a 6,6 0 0 1 -6,6 6,6 0 0 1 -6,-6 6,6 0 0 1 6,-6 6,6 0 0 1 6,6 z" />
  <path
     id="circle61"
     style="fill:#222222;stroke:#444444;stroke-width:0.5"
     d="m 65.139999,57 a 4.5,4.5 0 0 1 -4.5,4.5 4.5,4.5 0 0 1 -4.5,-4.5 4.5,4.5 0 0 1 4.5,-4.5 4.5,4.5 0 0 1 4.5,4.5 z" />
  <path
     id="line61"
     style="stroke:#dddddd;stroke-width:1.2"
     d="M 60.639999,51.5 V 54" />
  <!-- ===== MODE BUTTONS 2x3 ===== -->
  <path
     id="circle62"
     style="fill:#d0cece;stroke:#aaaaaa;stroke-width:0.7"
     d="m 78.529999,52 a 5.5,5.5 0 0 1 -5.5,5.5 5.5,5.5 0 0 1 -5.5,-5.5 5.5,5.5 0 0 1 5.5,-5.5 5.5,5.5 0 0 1 5.5,5.5 z" />
  <path
     d="m 69.003143,61 v -2.147461 h 0.427735 l 0.5083,1.520508 q 0.07031,0.212402 0.10254,0.317871 0.03662,-0.117188 0.114257,-0.344238 l 0.51416,-1.494141 H 71.05246 V 61 H 70.778534 V 59.202637 L 70.15451,61 H 69.898163 L 69.277069,59.171875 V 61 Z m 3.916992,-2.147461 h 0.28418 v 1.240723 q 0,0.32373 -0.07324,0.51416 -0.07324,0.19043 -0.265137,0.310547 -0.190429,0.118652 -0.500976,0.118652 -0.301758,0 -0.493653,-0.104004 -0.191894,-0.104004 -0.273925,-0.300293 -0.08203,-0.197754 -0.08203,-0.539062 v -1.240723 h 0.28418 v 1.239258 q 0,0.279785 0.05127,0.413086 0.05273,0.131836 0.17871,0.203613 0.127442,0.07178 0.310547,0.07178 0.313477,0 0.446778,-0.142089 0.1333,-0.14209 0.1333,-0.546387 z M 74.223846,61 v -1.894043 h -0.707519 v -0.253418 h 1.702148 v 0.253418 H 74.508026 V 61 Z m 1.291993,0 v -2.147461 h 1.552734 v 0.253418 h -1.268555 v 0.657715 h 1.187989 v 0.251953 h -1.187989 v 0.730957 h 1.31836 V 61 Z"
     id="text62"
     style="font-size:3px;font-family:Arial;text-anchor:middle;fill:#444444"
     aria-label="MUTE" />
  <path
     id="circle63"
     style="fill:#d0cece;stroke:#aaaaaa;stroke-width:0.7"
     d="m 88.370003,52 a 5.5,5.5 0 0 1 -5.5,5.5 5.5,5.5 0 0 1 -5.5,-5.5 5.5,5.5 0 0 1 5.5,-5.5 5.5,5.5 0 0 1 5.5,5.5 z" />
  <path
     d="m 77.005501,61 v -2.147461 h 0.284179 v 1.894043 h 1.057618 V 61 Z m 1.686035,0 v -2.147461 h 1.552734 v 0.253418 h -1.268554 v 0.657715 h 1.187988 v 0.251953 h -1.187988 v 0.730957 h 1.318359 V 61 Z m 1.992187,0 v -2.147461 h 0.291504 l 1.12793,1.686035 v -1.686035 h 0.272461 V 61 h -0.291504 l -1.12793,-1.6875 V 61 Z m 3.174317,-0.842285 v -0.251953 l 0.909668,-0.0015 v 0.796875 q -0.209473,0.166992 -0.432129,0.251953 -0.222656,0.0835 -0.457031,0.0835 -0.316407,0 -0.575684,-0.134766 -0.257812,-0.13623 -0.389648,-0.392578 -0.131836,-0.256347 -0.131836,-0.572754 0,-0.313476 0.130371,-0.584472 0.131836,-0.272461 0.377929,-0.404297 0.246094,-0.131836 0.566895,-0.131836 0.23291,0 0.42041,0.07617 0.188965,0.07471 0.295899,0.209472 0.106933,0.134766 0.162597,0.351563 l -0.256347,0.07031 q -0.04834,-0.164062 -0.120118,-0.257812 -0.07178,-0.09375 -0.205078,-0.149414 -0.1333,-0.05713 -0.295898,-0.05713 -0.194824,0 -0.336914,0.06006 -0.14209,0.05859 -0.229981,0.155273 -0.08643,0.09668 -0.134765,0.212402 -0.08203,0.199219 -0.08203,0.432129 0,0.28711 0.09815,0.480469 0.09961,0.193359 0.288574,0.287109 0.188965,0.09375 0.401367,0.09375 0.184571,0 0.360352,-0.07031 0.175781,-0.07178 0.266602,-0.152344 V 60.157715 Z M 85.73304,61 v -1.894043 h -0.70752 v -0.253418 h 1.702149 v 0.253418 H 86.01722 V 61 Z m 1.294922,0 v -2.147461 h 0.284179 v 0.881836 h 1.116211 v -0.881836 h 0.28418 V 61 h -0.28418 V 59.987793 H 87.312141 V 61 Z"
     id="text63"
     style="font-size:3px;font-family:Arial;text-anchor:middle;fill:#444444"
     aria-label="LENGTH" />
  <path
     id="circle64"
     style="fill:#d0cece;stroke:#aaaaaa;stroke-width:0.7"
     d="m 98.209999,52 a 5.5,5.5 0 0 1 -5.5,5.5 5.5,5.5 0 0 1 -5.5,-5.5 5.5,5.5 0 0 1 5.5,-5.5 5.5,5.5 0 0 1 5.5,5.5 z" />
  <path
     d="m 88.511757,60.310059 0.268066,-0.02344 q 0.01904,0.161133 0.08789,0.265137 0.07031,0.102539 0.216797,0.166992 0.146484,0.06299 0.32959,0.06299 0.162597,0 0.287109,-0.04834 0.124512,-0.04834 0.18457,-0.131836 0.06152,-0.08496 0.06152,-0.18457 0,-0.101074 -0.05859,-0.175781 -0.05859,-0.07617 -0.193359,-0.127441 -0.08643,-0.03369 -0.382325,-0.104004 -0.295898,-0.07178 -0.41455,-0.134766 -0.153809,-0.08057 -0.229981,-0.199219 -0.07471,-0.120117 -0.07471,-0.268066 0,-0.162598 0.09228,-0.303223 0.09229,-0.14209 0.269532,-0.215332 0.177246,-0.07324 0.394043,-0.07324 0.238769,0 0.42041,0.07764 0.183105,0.07617 0.28125,0.225586 0.09814,0.149414 0.105468,0.338379 l -0.272461,0.02051 q -0.02197,-0.203613 -0.149414,-0.307617 -0.125976,-0.104004 -0.373535,-0.104004 -0.257812,0 -0.376465,0.09521 -0.117187,0.09375 -0.117187,0.227051 0,0.115723 0.0835,0.19043 0.08203,0.07471 0.427734,0.153808 0.347168,0.07764 0.476075,0.136231 0.1875,0.08642 0.276855,0.219726 0.08936,0.131836 0.08936,0.304688 0,0.171386 -0.09815,0.32373 -0.09815,0.150879 -0.282715,0.23584 -0.183105,0.0835 -0.413086,0.0835 -0.291504,0 -0.489258,-0.08496 -0.196289,-0.08496 -0.309082,-0.254883 -0.111328,-0.171386 -0.117187,-0.386718 z M 90.618202,61 v -2.147461 h 0.28418 v 0.881836 h 1.116211 v -0.881836 h 0.28418 V 61 h -0.28418 V 59.987793 H 90.902382 V 61 Z m 2.206055,0 v -2.147461 h 0.28418 V 61 Z m 0.799805,0 v -2.147461 h 1.44873 v 0.253418 h -1.164551 v 0.665039 h 1.007813 v 0.253418 H 93.908241 V 61 Z m 2.364257,0 V 59.105957 H 95.2808 v -0.253418 h 1.702148 v 0.253418 H 96.272499 V 61 Z"
     id="text64"
     style="font-size:3px;font-family:Arial;text-anchor:middle;fill:#444444"
     aria-label="SHIFT" />
  <path
     id="circle65"
     style="fill:#d0cece;stroke:#aaaaaa;stroke-width:0.7"
     d="m 78.529999,65 a 5.5,5.5 0 0 1 -5.5,5.5 5.5,5.5 0 0 1 -5.5,-5.5 5.5,5.5 0 0 1 5.5,-5.5 5.5,5.5 0 0 1 5.5,5.5 z" />
  <path
     d="m 68.245819,73.310059 0.268066,-0.02344 q 0.01904,0.161133 0.08789,0.265137 0.07031,0.102539 0.216797,0.166992 0.146484,0.06299 0.32959,0.06299 0.162597,0 0.287109,-0.04834 0.124512,-0.04834 0.184571,-0.131836 0.06152,-0.08496 0.06152,-0.18457 0,-0.101074 -0.05859,-0.175781 -0.05859,-0.07617 -0.193359,-0.127441 -0.08643,-0.03369 -0.382324,-0.104004 -0.295899,-0.07178 -0.414551,-0.134766 -0.153809,-0.08057 -0.229981,-0.199219 -0.07471,-0.120117 -0.07471,-0.268066 0,-0.162598 0.09229,-0.303223 0.09229,-0.14209 0.269532,-0.215332 0.177246,-0.07324 0.394043,-0.07324 0.238769,0 0.42041,0.07764 0.183105,0.07617 0.28125,0.225586 0.09814,0.149414 0.105469,0.338379 l -0.272461,0.02051 q -0.02197,-0.203613 -0.149414,-0.307617 -0.125977,-0.104004 -0.373536,-0.104004 -0.257812,0 -0.376464,0.09521 -0.117188,0.09375 -0.117188,0.227051 0,0.115723 0.0835,0.19043 0.08203,0.07471 0.427735,0.153808 0.347168,0.07764 0.476074,0.136231 0.1875,0.08643 0.276855,0.219726 0.08936,0.131836 0.08936,0.304688 0,0.171386 -0.09815,0.32373 -0.09814,0.150879 -0.282715,0.23584 -0.183105,0.0835 -0.413086,0.0835 -0.291503,0 -0.489257,-0.08496 -0.196289,-0.08496 -0.309082,-0.254883 -0.111329,-0.171386 -0.117188,-0.386718 z m 3.629883,-0.06299 0.28418,0.07178 q -0.08936,0.350097 -0.322266,0.534668 -0.231445,0.183105 -0.566895,0.183105 -0.347168,0 -0.565429,-0.140625 -0.216797,-0.14209 -0.331055,-0.410156 -0.112793,-0.268067 -0.112793,-0.575684 0,-0.335449 0.127441,-0.584472 0.128907,-0.250489 0.364747,-0.379395 0.237304,-0.130371 0.521484,-0.130371 0.322266,0 0.541992,0.164062 0.219727,0.164063 0.306152,0.461426 l -0.279785,0.06592 q -0.07471,-0.234375 -0.216797,-0.341308 -0.142089,-0.106934 -0.357421,-0.106934 -0.247559,0 -0.414551,0.118652 -0.165528,0.118653 -0.23291,0.319336 -0.06738,0.199219 -0.06738,0.411621 0,0.273926 0.0791,0.479004 0.08057,0.203614 0.249024,0.304688 0.168457,0.101074 0.364746,0.101074 0.238769,0 0.404297,-0.137695 0.165527,-0.137696 0.224121,-0.408692 z M 72.274139,74 73.098846,71.852539 h 0.306153 L 74.283905,74 h -0.32373 L 73.709686,73.349609 H 72.811737 L 72.575897,74 Z m 0.619629,-0.881836 h 0.728028 l -0.224121,-0.594727 q -0.10254,-0.270996 -0.152344,-0.445312 -0.04102,0.206543 -0.115723,0.410156 z M 74.499237,74 v -2.147461 h 0.28418 v 1.894043 h 1.057617 V 74 Z m 1.686035,0 v -2.147461 h 1.552735 v 0.253418 h -1.268555 v 0.657715 h 1.187988 v 0.251953 h -1.187988 v 0.730957 h 1.318359 V 74 Z"
     id="text65"
     style="font-size:3px;font-family:Arial;text-anchor:middle;fill:#444444"
     aria-label="SCALE" />
  <path
     id="circle66"
     style="fill:#d0cece;stroke:#aaaaaa;stroke-width:0.7"
     d="m 88.370003,65 a 5.5,5.5 0 0 1 -5.5,5.5 5.5,5.5 0 0 1 -5.5,-5.5 5.5,5.5 0 0 1 5.5,-5.5 5.5,5.5 0 0 1 5.5,5.5 z" />
  <path
     d="m 79.114143,73.310059 0.268067,-0.02344 q 0.01904,0.161133 0.08789,0.265137 0.07031,0.102539 0.216797,0.166992 0.146485,0.06299 0.32959,0.06299 0.162598,0 0.287109,-0.04834 0.124512,-0.04834 0.184571,-0.131836 0.06152,-0.08496 0.06152,-0.18457 0,-0.101074 -0.05859,-0.175781 -0.05859,-0.07617 -0.193359,-0.127441 -0.08643,-0.03369 -0.382324,-0.104004 -0.295899,-0.07178 -0.414551,-0.134766 -0.153808,-0.08057 -0.22998,-0.199219 -0.07471,-0.120117 -0.07471,-0.268066 0,-0.162598 0.09229,-0.303223 0.09229,-0.14209 0.269531,-0.215332 0.177246,-0.07324 0.394043,-0.07324 0.23877,0 0.42041,0.07764 0.183106,0.07617 0.28125,0.225586 0.09815,0.149414 0.105469,0.338379 l -0.272461,0.02051 q -0.02197,-0.203613 -0.149414,-0.307617 -0.125977,-0.104004 -0.373535,-0.104004 -0.257813,0 -0.376465,0.09521 -0.117188,0.09375 -0.117188,0.227051 0,0.115723 0.0835,0.19043 0.08203,0.07471 0.427735,0.153808 0.347168,0.07764 0.476074,0.136231 0.1875,0.08643 0.276856,0.219726 0.08935,0.131836 0.08935,0.304688 0,0.171386 -0.09815,0.32373 -0.09814,0.150879 -0.282714,0.23584 -0.183106,0.0835 -0.413086,0.0835 -0.291504,0 -0.489258,-0.08496 -0.196289,-0.08496 -0.309082,-0.254883 -0.111328,-0.171386 -0.117188,-0.386718 z M 80.97596,74 81.800667,71.852539 h 0.306152 L 82.985725,74 h -0.32373 l -0.250488,-0.650391 h -0.89795 L 81.277718,74 Z m 0.619629,-0.881836 h 0.728027 l -0.224121,-0.594727 q -0.102539,-0.270996 -0.152344,-0.445312 -0.04102,0.206543 -0.115722,0.410156 z M 83.603889,74 82.771858,71.852539 h 0.307617 l 0.558106,1.560059 q 0.06738,0.1875 0.112793,0.351562 0.04981,-0.175781 0.115722,-0.351562 l 0.580079,-1.560059 h 0.290039 L 83.895393,74 Z m 1.393067,0 v -2.147461 h 1.552734 v 0.253418 h -1.268554 v 0.657715 h 1.187988 v 0.251953 h -1.187988 v 0.730957 h 1.318359 V 74 Z"
     id="text66"
     style="font-size:3px;font-family:Arial;text-anchor:middle;fill:#444444"
     aria-label="SAVE" />
  <path
     id="circle67"
     style="fill:#d0cece;stroke:#aaaaaa;stroke-width:0.7"
     d="m 98.209999,65 a 5.5,5.5 0 0 1 -5.5,5.5 5.5,5.5 0 0 1 -5.5,-5.5 5.5,5.5 0 0 1 5.5,-5.5 5.5,5.5 0 0 1 5.5,5.5 z" />
  <path
     d="m 87.109901,74 v -2.147461 h 0.952149 q 0.287109,0 0.436523,0.05859 0.149414,0.05713 0.23877,0.203613 0.08935,0.146484 0.08935,0.323731 0,0.228515 -0.147949,0.385253 -0.147949,0.156739 -0.457031,0.199219 0.112793,0.0542 0.171387,0.106934 0.124511,0.114258 0.235839,0.285644 L 89.00248,74 h -0.357422 l -0.28418,-0.446777 q -0.124512,-0.19336 -0.205078,-0.295899 -0.08057,-0.102539 -0.14502,-0.143554 -0.06299,-0.04102 -0.128906,-0.05713 -0.04834,-0.01025 -0.158203,-0.01025 h -0.32959 V 74 Z m 0.28418,-1.199707 h 0.61084 q 0.194824,0 0.304687,-0.03955 0.109864,-0.04101 0.166993,-0.128906 0.05713,-0.08936 0.05713,-0.193359 0,-0.152344 -0.111329,-0.250489 -0.109863,-0.09814 -0.348632,-0.09814 H 87.394081 Z M 89.27787,74 v -2.147461 h 1.552735 v 0.253418 H 89.56205 v 0.657715 h 1.187988 v 0.251953 H 89.56205 v 0.730957 h 1.318359 V 74 Z m 3.527344,-0.75293 0.28418,0.07178 q -0.08936,0.350097 -0.322266,0.534668 -0.231445,0.183105 -0.566895,0.183105 -0.347168,0 -0.565429,-0.140625 -0.216797,-0.14209 -0.331055,-0.410156 -0.112793,-0.268067 -0.112793,-0.575684 0,-0.335449 0.127442,-0.584472 0.128906,-0.250489 0.364746,-0.379395 0.237304,-0.130371 0.521484,-0.130371 0.322266,0 0.541992,0.164062 0.219727,0.164063 0.306153,0.461426 l -0.279786,0.06592 q -0.07471,-0.234375 -0.216797,-0.341308 -0.142089,-0.106934 -0.357421,-0.106934 -0.247559,0 -0.414551,0.118652 -0.165528,0.118653 -0.23291,0.319336 -0.06738,0.199219 -0.06738,0.411621 0,0.273926 0.0791,0.479004 0.08057,0.203614 0.249024,0.304688 0.168457,0.101074 0.364746,0.101074 0.238769,0 0.404297,-0.137695 0.165527,-0.137696 0.224121,-0.408692 z M 93.203651,74 94.028358,71.852539 h 0.306153 L 95.213417,74 h -0.32373 L 94.639198,73.349609 H 93.741249 L 93.505409,74 Z m 0.619629,-0.881836 h 0.728028 l -0.224121,-0.594727 q -0.102539,-0.270996 -0.152344,-0.445312 -0.04102,0.206543 -0.115723,0.410156 z M 95.428749,74 v -2.147461 h 0.28418 v 1.894043 h 1.057617 V 74 Z m 1.668457,0 v -2.147461 h 0.28418 v 1.894043 h 1.057617 V 74 Z"
     id="text67"
     style="font-size:3px;font-family:Arial;text-anchor:middle;fill:#444444"
     aria-label="RECALL" />
  <path
     id="line67"
     style="stroke:#bbbbbb;stroke-width:0.3"
     d="M 4,78 H 97.599998" />
  <!-- ===== 8 VERTICAL SLIDERS y=80-115 ===== -->
  <path
     id="rect67"
     style="fill:#c8c5be;stroke:#aaaaaa;stroke-width:0.5"
     d="M 8.8899999,80 C 10.275,80 11.39,81.115 11.39,82.5 v 30 c 0,1.385 -1.115,2.5 -2.5000001,2.5 -1.385,0 -2.5,-1.115 -2.5,-2.5 v -30 c 0,-1.385 1.115,-2.5 2.5,-2.5 z" />
  <path
     id="rect68"
     style="fill:#c8c5be;stroke:#aaaaaa;stroke-width:0.5"
     d="m 20.959999,80 c 1.385,0 2.5,1.115 2.5,2.5 v 30 c 0,1.385 -1.115,2.5 -2.5,2.5 -1.385,0 -2.5,-1.115 -2.5,-2.5 v -30 c 0,-1.385 1.115,-2.5 2.5,-2.5 z" />
  <path
     id="rect69"
     style="fill:#c8c5be;stroke:#aaaaaa;stroke-width:0.5"
     d="m 33.02,80 c 1.385,0 2.5,1.115 2.5,2.5 v 30 c 0,1.385 -1.115,2.5 -2.5,2.5 -1.385,0 -2.5,-1.115 -2.5,-2.5 v -30 c 0,-1.385 1.115,-2.5 2.5,-2.5 z" />
  <path
     id="rect70"
     style="fill:#c8c5be;stroke:#aaaaaa;stroke-width:0.5"
     d="m 45.09,80 c 1.385,0 2.5,1.115 2.5,2.5 v 30 c 0,1.385 -1.115,2.5 -2.5,2.5 -1.385,0 -2.5,-1.115 -2.5,-2.5 v -30 c 0,-1.385 1.115,-2.5 2.5,-2.5 z" />
  <path
     id="rect71"
     style="fill:#c8c5be;stroke:#aaaaaa;stroke-width:0.5"
     d="m 57.150002,80 c 1.385,0 2.5,1.115 2.5,2.5 v 30 c 0,1.385 -1.115,2.5 -2.5,2.5 -1.385,0 -2.5,-1.115 -2.5,-2.5 v -30 c 0,-1.385 1.115,-2.5 2.5,-2.5 z" />
  <path
     id="rect72"
     style="fill:#c8c5be;stroke:#aaaaaa;stroke-width:0.5"
     d="m 69.220001,80 c 1.385,0 2.5,1.115 2.5,2.5 v 30 c 0,1.385 -1.115,2.5 -2.5,2.5 -1.385,0 -2.5,-1.115 -2.5,-2.5 v -30 c 0,-1.385 1.115,-2.5 2.5,-2.5 z" />
  <path
     id="rect73"
     style="fill:#c8c5be;stroke:#aaaaaa;stroke-width:0.5"
     d="m 81.279999,80 c 1.385,0 2.5,1.115 2.5,2.5 v 30 c 0,1.385 -1.115,2.5 -2.5,2.5 -1.385,0 -2.5,-1.115 -2.5,-2.5 v -30 c 0,-1.385 1.115,-2.5 2.5,-2.5 z" />
  <path
     id="rect74"
     style="fill:#c8c5be;stroke:#aaaaaa;stroke-width:0.5"
     d="m 93.339996,80 c 1.385,0 2.5,1.115 2.5,2.5 v 30 c 0,1.385 -1.115,2.5 -2.5,2.5 -1.385,0 -2.5,-1.115 -2.5,-2.5 v -30 c 0,-1.385 1.115,-2.5 2.5,-2.5 z" />
  <!-- Handles at mid position -->
  <path
     id="rect75"
     style="fill:#333333;stroke:#222222;stroke-width:0.3"
     d="M 6.8899999,93 H 10.89 c 0.831,0 1.5,0.669 1.5,1.5 v 6 c 0,0.831 -0.669,1.5 -1.5,1.5 H 6.8899999 c -0.831,0 -1.5,-0.669 -1.5,-1.5 v -6 c 0,-0.831 0.669,-1.5 1.5,-1.5 z" />
  <path
     id="rect76"
     style="fill:#333333;stroke:#222222;stroke-width:0.3"
     d="m 18.959999,93 h 4 c 0.831,0 1.5,0.669 1.5,1.5 v 6 c 0,0.831 -0.669,1.5 -1.5,1.5 h -4 c -0.831,0 -1.5,-0.669 -1.5,-1.5 v -6 c 0,-0.831 0.669,-1.5 1.5,-1.5 z" />
  <path
     id="rect77"
     style="fill:#333333;stroke:#222222;stroke-width:0.3"
     d="m 31.02,93 h 4 c 0.831,0 1.5,0.669 1.5,1.5 v 6 c 0,0.831 -0.669,1.5 -1.5,1.5 h -4 c -0.831,0 -1.5,-0.669 -1.5,-1.5 v -6 c 0,-0.831 0.669,-1.5 1.5,-1.5 z" />
  <path
     id="rect78"
     style="fill:#333333;stroke:#222222;stroke-width:0.3"
     d="m 43.09,93 h 4 c 0.831,0 1.5,0.669 1.5,1.5 v 6 c 0,0.831 -0.669,1.5 -1.5,1.5 h -4 c -0.831,0 -1.5,-0.669 -1.5,-1.5 v -6 c 0,-0.831 0.669,-1.5 1.5,-1.5 z" />
  <path
     id="rect79"
     style="fill:#333333;stroke:#222222;stroke-width:0.3"
     d="m 55.150002,93 h 4 c 0.831,0 1.5,0.669 1.5,1.5 v 6 c 0,0.831 -0.669,1.5 -1.5,1.5 h -4 c -0.831,0 -1.5,-0.669 -1.5,-1.5 v -6 c 0,-0.831 0.669,-1.5 1.5,-1.5 z" />
  <path
     id="rect80"
     style="fill:#333333;stroke:#222222;stroke-width:0.3"
     d="m 67.220001,93 h 4 c 0.831,0 1.5,0.669 1.5,1.5 v 6 c 0,0.831 -0.669,1.5 -1.5,1.5 h -4 c -0.831,0 -1.5,-0.669 -1.5,-1.5 v -6 c 0,-0.831 0.669,-1.5 1.5,-1.5 z" />
  <path
     id="rect81"
     style="fill:#333333;stroke:#222222;stroke-width:0.3"
     d="m 79.279999,93 h 4 c 0.831,0 1.5,0.669 1.5,1.5 v 6 c 0,0.831 -0.669,1.5 -1.5,1.5 h -4 c -0.831,0 -1.5,-0.669 -1.5,-1.5 v -6 c 0,-0.831 0.669,-1.5 1.5,-1.5 z" />
  <path
     id="rect82"
     style="fill:#333333;stroke:#222222;stroke-width:0.3"
     d="m 91.339996,93 h 4 c 0.831,0 1.5,0.669 1.5,1.5 v 6 c 0,0.831 -0.669,1.5 -1.5,1.5 h -4 c -0.831,0 -1.5,-0.669 -1.5,-1.5 v -6 c 0,-0.831 0.669,-1.5 1.5,-1.5 z" />
  <!-- Slider LEDs on handles -->
  <path
     id="circle82"
     style="fill:#cc2020"
     d="m 10.39,97.5 a 1.5,1.5 0 0 1 -1.4999997,1.5 1.5,1.5 0 0 1 -1.5,-1.5 1.5,1.5 0 0 1 1.5,-1.5 A 1.5,1.5 0 0 1 10.39,97.5 Z" />
  <path
     id="circle83"
     style="fill:#cc2020"
     d="m 22.459999,97.5 a 1.5,1.5 0 0 1 -1.5,1.5 1.5,1.5 0 0 1 -1.5,-1.5 1.5,1.5 0 0 1 1.5,-1.5 1.5,1.5 0 0 1 1.5,1.5 z" />
  <path
     id="circle84"
     style="fill:#cc2020"
     d="m 34.52,97.5 a 1.5,1.5 0 0 1 -1.5,1.5 1.5,1.5 0 0 1 -1.5,-1.5 1.5,1.5 0 0 1 1.5,-1.5 1.5,1.5 0 0 1 1.5,1.5 z" />
  <path
     id="circle85"
     style="fill:#cc2020"
     d="m 46.59,97.5 a 1.5,1.5 0 0 1 -1.5,1.5 1.5,1.5 0 0 1 -1.5,-1.5 1.5,1.5 0 0 1 1.5,-1.5 1.5,1.5 0 0 1 1.5,1.5 z" />
  <path
     id="circle86"
     style="fill:#cc2020"
     d="m 58.650002,97.5 a 1.5,1.5 0 0 1 -1.5,1.5 1.5,1.5 0 0 1 -1.5,-1.5 1.5,1.5 0 0 1 1.5,-1.5 1.5,1.5 0 0 1 1.5,1.5 z" />
  <path
     id="circle87"
     style="fill:#cc2020"
     d="m 70.720001,97.5 a 1.5,1.5 0 0 1 -1.5,1.5 1.5,1.5 0 0 1 -1.5,-1.5 1.5,1.5 0 0 1 1.5,-1.5 1.5,1.5 0 0 1 1.5,1.5 z" />
  <path
     id="circle88"
     style="fill:#cc2020"
     d="m 82.779999,97.5 a 1.5,1.5 0 0 1 -1.5,1.5 1.5,1.5 0 0 1 -1.5,-1.5 1.5,1.5 0 0 1 1.5,-1.5 1.5,1.5 0 0 1 1.5,1.5 z" />
  <path
     id="circle89"
     style="fill:#cc2020"
     d="m 94.839996,97.5 a 1.5,1.5 0 0 1 -1.5,1.5 1.5,1.5 0 0 1 -1.5,-1.5 1.5,1.5 0 0 1 1.5,-1.5 1.5,1.5 0 0 1 1.5,1.5 z" />
  <path
     id="line89"
     style="stroke:#bbbbbb;stroke-width:0.3"
     d="M 4,118 H 97.599998" />
  <!-- ===== STEP BUTTONS ===== -->
  <!-- 8 red LEDs above row 1 y=122 -->
  <path
     id="circle90"
     style="fill:#cc2020"
     d="M 10.69,122 A 1.8,1.8 0 0 1 8.8900003,123.8 1.8,1.8 0 0 1 7.0900004,122 1.8,1.8 0 0 1 8.8900003,120.2 1.8,1.8 0 0 1 10.69,122 Z" />
  <path
     id="circle91"
     style="fill:#cc2020"
     d="m 22.759999,122 a 1.8,1.8 0 0 1 -1.8,1.8 1.8,1.8 0 0 1 -1.8,-1.8 1.8,1.8 0 0 1 1.8,-1.8 1.8,1.8 0 0 1 1.8,1.8 z" />
  <path
     id="circle92"
     style="fill:#cc2020"
     d="m 34.82,122 a 1.8,1.8 0 0 1 -1.8,1.8 1.8,1.8 0 0 1 -1.799999,-1.8 1.8,1.8 0 0 1 1.799999,-1.8 1.8,1.8 0 0 1 1.8,1.8 z" />
  <path
     id="circle93"
     style="fill:#cc2020"
     d="m 46.89,122 a 1.8,1.8 0 0 1 -1.8,1.8 1.8,1.8 0 0 1 -1.8,-1.8 1.8,1.8 0 0 1 1.8,-1.8 1.8,1.8 0 0 1 1.8,1.8 z" />
  <path
     id="circle94"
     style="fill:#cc2020"
     d="m 58.950001,122 a 1.8,1.8 0 0 1 -1.799999,1.8 1.8,1.8 0 0 1 -1.8,-1.8 1.8,1.8 0 0 1 1.8,-1.8 1.8,1.8 0 0 1 1.799999,1.8 z" />
  <path
     id="circle95"
     style="fill:#cc2020"
     d="m 71.020001,122 a 1.8,1.8 0 0 1 -1.8,1.8 1.8,1.8 0 0 1 -1.8,-1.8 1.8,1.8 0 0 1 1.8,-1.8 1.8,1.8 0 0 1 1.8,1.8 z" />
  <path
     id="circle96"
     style="fill:#cc2020"
     d="m 83.079999,122 a 1.8,1.8 0 0 1 -1.8,1.8 1.8,1.8 0 0 1 -1.8,-1.8 1.8,1.8 0 0 1 1.8,-1.8 1.8,1.8 0 0 1 1.8,1.8 z" />
  <path
     id="circle97"
     style="fill:#cc2020"
     d="m 95.139996,122 a 1.8,1.8 0 0 1 -1.8,1.8 1.8,1.8 0 0 1 -1.8,-1.8 1.8,1.8 0 0 1 1.8,-1.8 1.8,1.8 0 0 1 1.8,1.8 z" />
  <!-- Row 1 buttons y=131 r=7 -->
  <path
     id="circle98"
     style="fill:#484848;stroke:#333333;stroke-width:0.5"
     d="m 15.89,131 a 7,7 0 0 1 -6.9999997,7 7,7 0 0 1 -7,-7 7,7 0 0 1 7,-7 7,7 0 0 1 6.9999997,7 z" />
  <path
     id="circle99"
     style="fill:#484848;stroke:#333333;stroke-width:0.5"
     d="m 27.959999,131 a 7,7 0 0 1 -7,7 7,7 0 0 1 -7,-7 7,7 0 0 1 7,-7 7,7 0 0 1 7,7 z" />
  <path
     id="circle100"
     style="fill:#484848;stroke:#333333;stroke-width:0.5"
     d="m 40.02,131 a 7,7 0 0 1 -7,7 7,7 0 0 1 -7,-7 7,7 0 0 1 7,-7 7,7 0 0 1 7,7 z" />
  <path
     id="circle101"
     style="fill:#484848;stroke:#333333;stroke-width:0.5"
     d="m 52.09,131 a 7,7 0 0 1 -7,7 7,7 0 0 1 -7,-7 7,7 0 0 1 7,-7 7,7 0 0 1 7,7 z" />
  <path
     id="circle102"
     style="fill:#484848;stroke:#333333;stroke-width:0.5"
     d="m 64.150002,131 a 7,7 0 0 1 -7,7 7,7 0 0 1 -7,-7 7,7 0 0 1 7,-7 7,7 0 0 1 7,7 z" />
  <path
     id="circle103"
     style="fill:#484848;stroke:#333333;stroke-width:0.5"
     d="m 76.220001,131 a 7,7 0 0 1 -7,7 7,7 0 0 1 -7,-7 7,7 0 0 1 7,-7 7,7 0 0 1 7,7 z" />
  <path
     id="circle104"
     style="fill:#484848;stroke:#333333;stroke-width:0.5"
     d="m 88.279999,131 a 7,7 0 0 1 -7,7 7,7 0 0 1 -7,-7 7,7 0 0 1 7,-7 7,7 0 0 1 7,7 z" />
  <path
     id="circle105"
     style="fill:#484848;stroke:#333333;stroke-width:0.5"
     d="m 100.34,131 a 7,7 0 0 1 -7.000004,7 7,7 0 0 1 -7,-7 7,7 0 0 1 7,-7 7,7 0 0 1 7.000004,7 z" />
  <!-- 8 red LEDs between rows y=141 + 2 PCB screws -->
  <path
     id="circle106"
     style="fill:#cc2020"
     d="M 10.69,141 A 1.8,1.8 0 0 1 8.8900003,142.8 1.8,1.8 0 0 1 7.0900004,141 1.8,1.8 0 0 1 8.8900003,139.2 1.8,1.8 0 0 1 10.69,141 Z" />
  <!-- PCB screw between col1 and col2: x=14.92 -->
  <path
     id="circle107"
     style="fill:#d5d2cb;stroke:#bbbbbb;stroke-width:0.6"
     d="m 16.72,141 a 1.8,1.8 0 0 1 -1.8,1.8 1.8,1.8 0 0 1 -1.8,-1.8 1.8,1.8 0 0 1 1.8,-1.8 1.8,1.8 0 0 1 1.8,1.8 z" />
  <path
     id="circle108"
     style="fill:#aaaaaa"
     d="m 15.72,141 a 0.80000001,0.80000001 0 0 1 -0.8,0.8 0.80000001,0.80000001 0 0 1 -0.8,-0.8 0.80000001,0.80000001 0 0 1 0.8,-0.8 0.80000001,0.80000001 0 0 1 0.8,0.8 z" />
  <path
     id="circle109"
     style="fill:#cc2020"
     d="m 22.759999,141 a 1.8,1.8 0 0 1 -1.8,1.8 1.8,1.8 0 0 1 -1.8,-1.8 1.8,1.8 0 0 1 1.8,-1.8 1.8,1.8 0 0 1 1.8,1.8 z" />
  <path
     id="circle110"
     style="fill:#cc2020"
     d="m 34.82,141 a 1.8,1.8 0 0 1 -1.8,1.8 1.8,1.8 0 0 1 -1.799999,-1.8 1.8,1.8 0 0 1 1.799999,-1.8 1.8,1.8 0 0 1 1.8,1.8 z" />
  <path
     id="circle111"
     style="fill:#cc2020"
     d="m 46.89,141 a 1.8,1.8 0 0 1 -1.8,1.8 1.8,1.8 0 0 1 -1.8,-1.8 1.8,1.8 0 0 1 1.8,-1.8 1.8,1.8 0 0 1 1.8,1.8 z" />
  <path
     id="circle112"
     style="fill:#cc2020"
     d="m 58.950001,141 a 1.8,1.8 0 0 1 -1.799999,1.8 1.8,1.8 0 0 1 -1.8,-1.8 1.8,1.8 0 0 1 1.8,-1.8 1.8,1.8 0 0 1 1.799999,1.8 z" />
  <path
     id="circle113"
     style="fill:#cc2020"
     d="m 71.020001,141 a 1.8,1.8 0 0 1 -1.8,1.8 1.8,1.8 0 0 1 -1.8,-1.8 1.8,1.8 0 0 1 1.8,-1.8 1.8,1.8 0 0 1 1.8,1.8 z" />
  <path
     id="circle114"
     style="fill:#cc2020"
     d="m 83.079999,141 a 1.8,1.8 0 0 1 -1.8,1.8 1.8,1.8 0 0 1 -1.8,-1.8 1.8,1.8 0 0 1 1.8,-1.8 1.8,1.8 0 0 1 1.8,1.8 z" />
  <!-- PCB screw between col7 and col8: x=87.31 -->
  <path
     id="circle115"
     style="fill:#d5d2cb;stroke:#bbbbbb;stroke-width:0.6"
     d="m 89.109998,141 a 1.8,1.8 0 0 1 -1.8,1.8 1.8,1.8 0 0 1 -1.8,-1.8 1.8,1.8 0 0 1 1.8,-1.8 1.8,1.8 0 0 1 1.8,1.8 z" />
  <path
     id="circle116"
     style="fill:#aaaaaa"
     d="m 88.109998,141 a 0.80000001,0.80000001 0 0 1 -0.8,0.8 0.80000001,0.80000001 0 0 1 -0.8,-0.8 0.80000001,0.80000001 0 0 1 0.8,-0.8 0.80000001,0.80000001 0 0 1 0.8,0.8 z" />
  <path
     id="circle117"
     style="fill:#cc2020"
     d="m 95.139996,141 a 1.8,1.8 0 0 1 -1.8,1.8 1.8,1.8 0 0 1 -1.8,-1.8 1.8,1.8 0 0 1 1.8,-1.8 1.8,1.8 0 0 1 1.8,1.8 z" />
  <!-- Row 2 buttons y=151 r=7 -->
  <path
     id="circle118"
     style="fill:#484848;stroke:#333333;stroke-width:0.5"
     d="m 15.89,151 a 7,7 0 0 1 -6.9999997,7 7,7 0 0 1 -7,-7 7,7 0 0 1 7,-7 7,7 0 0 1 6.9999997,7 z" />
  <path
     id="circle119"
     style="fill:#484848;stroke:#333333;stroke-width:0.5"
     d="m 27.959999,151 a 7,7 0 0 1 -7,7 7,7 0 0 1 -7,-7 7,7 0 0 1 7,-7 7,7 0 0 1 7,7 z" />
  <path
     id="circle120"
     style="fill:#484848;stroke:#333333;stroke-width:0.5"
     d="m 40.02,151 a 7,7 0 0 1 -7,7 7,7 0 0 1 -7,-7 7,7 0 0 1 7,-7 7,7 0 0 1 7,7 z" />
  <path
     id="circle121"
     style="fill:#484848;stroke:#333333;stroke-width:0.5"
     d="m 52.09,151 a 7,7 0 0 1 -7,7 7,7 0 0 1 -7,-7 7,7 0 0 1 7,-7 7,7 0 0 1 7,7 z" />
  <path
     id="circle122"
     style="fill:#484848;stroke:#333333;stroke-width:0.5"
     d="m 64.150002,151 a 7,7 0 0 1 -7,7 7,7 0 0 1 -7,-7 7,7 0 0 1 7,-7 7,7 0 0 1 7,7 z" />
  <path
     id="circle123"
     style="fill:#484848;stroke:#333333;stroke-width:0.5"
     d="m 76.220001,151 a 7,7 0 0 1 -7,7 7,7 0 0 1 -7,-7 7,7 0 0 1 7,-7 7,7 0 0 1 7,7 z" />
  <path
     id="circle124"
     style="fill:#484848;stroke:#333333;stroke-width:0.5"
     d="m 88.279999,151 a 7,7 0 0 1 -7,7 7,7 0 0 1 -7,-7 7,7 0 0 1 7,-7 7,7 0 0 1 7,7 z" />
  <path
     id="circle125"
     style="fill:#484848;stroke:#333333;stroke-width:0.5"
     d="m 100.34,151 a 7,7 0 0 1 -7.000004,7 7,7 0 0 1 -7,-7 7,7 0 0 1 7,-7 7,7 0 0 1 7.000004,7 z" />
  <path
     id="line125"
     style="stroke:#bbbbbb;stroke-width:0.3"
     d="M 4,161 H 97.599998" />
  <!-- Bottom labels -->
  <path
     d="m 5.8678324,165.29727 0.2652344,0.067 q -0.083398,0.32676 -0.3007812,0.49902 -0.2160157,0.1709 -0.5291016,0.1709 -0.3240234,0 -0.5277344,-0.13125 -0.2023437,-0.13262 -0.3089843,-0.38281 -0.1052735,-0.2502 -0.1052735,-0.53731 0,-0.31308 0.1189453,-0.54551 0.1203125,-0.23378 0.3404297,-0.3541 0.2214844,-0.12168 0.4867188,-0.12168 0.3007812,0 0.5058593,0.15313 0.2050781,0.15312 0.2857422,0.43066 l -0.2611328,0.0615 q -0.069727,-0.21875 -0.2023437,-0.31856 -0.1326172,-0.0998 -0.3335938,-0.0998 -0.2310547,0 -0.386914,0.11074 -0.1544922,0.11074 -0.2173829,0.29805 -0.062891,0.18593 -0.062891,0.38418 0,0.25566 0.073828,0.44707 0.075195,0.19003 0.2324219,0.28437 0.1572266,0.0943 0.3404297,0.0943 0.2228516,0 0.3773437,-0.12852 0.1544922,-0.12851 0.2091797,-0.38144 z M 6.448887,166 v -2.0043 h 0.2652344 v 1.76778 H 7.7012307 V 166 Z m 1.5736327,0 v -2.0043 h 1.4492187 v 0.23653 H 8.287754 v 0.61386 h 1.1087891 v 0.23516 H 8.287754 v 0.68223 H 9.5182228 V 166 Z m 1.6419921,0 0.7697262,-2.0043 H 10.71998 L 11.540293,166 h -0.302148 l -0.23379,-0.60703 H 10.16627 L 9.9461524,166 Z m 0.5783202,-0.82305 h 0.679492 l -0.209179,-0.55507 q -0.0957,-0.25293 -0.142188,-0.41563 -0.03828,0.19277 -0.108008,0.38281 z M 11.756309,166 v -2.0043 h 0.888672 q 0.267969,0 0.407422,0.0547 0.139453,0.0533 0.222851,0.19004 0.0834,0.13672 0.0834,0.30215 0,0.21328 -0.138086,0.35957 -0.138086,0.14629 -0.426563,0.18594 0.105274,0.0506 0.159961,0.0998 0.116211,0.10664 0.220117,0.2666 L 13.522715,166 h -0.333594 l -0.265234,-0.41699 q -0.116211,-0.18047 -0.191406,-0.27617 -0.0752,-0.0957 -0.135352,-0.13399 -0.05879,-0.0383 -0.120312,-0.0533 -0.04512,-0.01 -0.147656,-0.01 H 12.021543 V 166 Z m 0.265234,-1.11973 h 0.570118 q 0.181835,0 0.284375,-0.0369 0.102539,-0.0383 0.155859,-0.12031 0.05332,-0.0834 0.05332,-0.18047 0,-0.14219 -0.103906,-0.23379 -0.102539,-0.0916 -0.325391,-0.0916 h -0.634375 z"
     id="text125"
     style="font-size:2.8px;font-family:Arial;text-anchor:middle;fill:#555555"
     aria-label="CLEAR" />
  <path
     d="m 14.94164,165.35605 0.250195,-0.0219 q 0.01777,0.15039 0.08203,0.24746 0.06563,0.0957 0.202344,0.15586 0.136719,0.0588 0.307617,0.0588 0.151758,0 0.267969,-0.0451 0.116211,-0.0451 0.172266,-0.12304 0.05742,-0.0793 0.05742,-0.17227 0,-0.0943 -0.05469,-0.16406 -0.05469,-0.0711 -0.180469,-0.11895 -0.08066,-0.0314 -0.356836,-0.0971 -0.276172,-0.067 -0.386914,-0.12578 -0.143554,-0.0752 -0.214648,-0.18594 -0.06973,-0.11211 -0.06973,-0.25019 0,-0.15176 0.08613,-0.28301 0.08613,-0.13262 0.251563,-0.20098 0.165429,-0.0684 0.367773,-0.0684 0.222852,0 0.392383,0.0725 0.170898,0.0711 0.2625,0.21055 0.0916,0.13945 0.09844,0.31582 l -0.254297,0.0191 q -0.02051,-0.19004 -0.139453,-0.28711 -0.117578,-0.0971 -0.348632,-0.0971 -0.240625,0 -0.351368,0.0889 -0.109375,0.0875 -0.109375,0.21191 0,0.10801 0.07793,0.17774 0.07656,0.0697 0.399219,0.14355 0.324023,0.0725 0.444336,0.12715 0.175,0.0807 0.258398,0.20508 0.0834,0.12305 0.0834,0.28437 0,0.15997 -0.0916,0.30215 -0.0916,0.14082 -0.263867,0.22012 -0.170899,0.0779 -0.385547,0.0779 -0.27207,0 -0.456641,-0.0793 -0.183203,-0.0793 -0.288476,-0.23789 -0.103906,-0.15996 -0.109375,-0.36094 z M 16.891249,166 v -2.0043 h 0.399219 l 0.474414,1.41914 q 0.06563,0.19825 0.0957,0.29668 0.03418,-0.10937 0.106641,-0.32129 l 0.479883,-1.39453 h 0.356835 V 166 H 18.54828 v -1.67754 L 17.965859,166 h -0.239258 l -0.579688,-1.70625 V 166 Z m 2.259961,-0.97617 q 0,-0.49903 0.267969,-0.78067 0.267968,-0.283 0.691797,-0.283 0.277539,0 0.50039,0.13261 0.222852,0.13262 0.339063,0.37051 0.117578,0.23652 0.117578,0.53731 0,0.30488 -0.123047,0.5455 -0.123047,0.24063 -0.348633,0.36504 -0.225586,0.12305 -0.486719,0.12305 -0.283007,0 -0.505859,-0.13672 -0.222852,-0.13672 -0.337695,-0.37324 -0.114844,-0.23652 -0.114844,-0.50039 z m 0.273437,0.004 q 0,0.3623 0.194141,0.57148 0.195508,0.20782 0.489453,0.20782 0.299414,0 0.492188,-0.21055 0.19414,-0.21055 0.19414,-0.59746 0,-0.24473 -0.0834,-0.42656 -0.08203,-0.18321 -0.241992,-0.28301 -0.158594,-0.10117 -0.356836,-0.10117 -0.281641,0 -0.485352,0.19414 -0.202344,0.19277 -0.202344,0.64531 z m 1.904493,-0.004 q 0,-0.49903 0.267969,-0.78067 0.267968,-0.283 0.691796,-0.283 0.277539,0 0.500391,0.13261 0.222852,0.13262 0.339063,0.37051 0.117578,0.23652 0.117578,0.53731 0,0.30488 -0.123047,0.5455 -0.123047,0.24063 -0.348633,0.36504 -0.225586,0.12305 -0.486719,0.12305 -0.283008,0 -0.505859,-0.13672 -0.222852,-0.13672 -0.337695,-0.37324 -0.114844,-0.23652 -0.114844,-0.50039 z m 0.273437,0.004 q 0,0.3623 0.194141,0.57148 0.195508,0.20782 0.489453,0.20782 0.299414,0 0.492188,-0.21055 0.19414,-0.21055 0.19414,-0.59746 0,-0.24473 -0.0834,-0.42656 -0.08203,-0.18321 -0.241992,-0.28301 -0.158594,-0.10117 -0.356836,-0.10117 -0.281641,0 -0.485352,0.19414 -0.202344,0.19277 -0.202344,0.64531 z M 24.097695,166 v -1.76777 h -0.660352 v -0.23653 h 1.588672 v 0.23653 H 24.362929 V 166 Z m 1.208593,0 v -2.0043 h 0.265234 v 0.82305 h 1.041797 v -0.82305 h 0.265234 V 166 h -0.265234 v -0.94473 H 25.571522 V 166 Z"
     id="text126"
     style="font-size:2.8px;font-family:Arial;text-anchor:middle;fill:#555555"
     aria-label="SMOOTH" />
  <path
     d="m 30.207012,166 v -2.0043 h 0.888672 q 0.267969,0 0.407422,0.0547 0.139453,0.0533 0.222852,0.19004 0.0834,0.13672 0.0834,0.30215 0,0.21328 -0.138086,0.35957 -0.138086,0.14629 -0.426562,0.18594 0.105273,0.0506 0.15996,0.0998 0.116211,0.10664 0.220118,0.2666 L 31.973418,166 h -0.333593 l -0.265235,-0.41699 q -0.116211,-0.18047 -0.191406,-0.27617 -0.0752,-0.0957 -0.135351,-0.13399 -0.05879,-0.0383 -0.120313,-0.0533 -0.04512,-0.01 -0.147656,-0.01 H 30.472247 V 166 Z m 0.265235,-1.11973 h 0.570117 q 0.181836,0 0.284375,-0.0369 0.102539,-0.0383 0.155859,-0.12031 0.05332,-0.0834 0.05332,-0.18047 0,-0.14219 -0.103906,-0.23379 -0.102539,-0.0916 -0.32539,-0.0916 H 30.472247 Z M 32.222246,166 v -2.0043 h 0.272071 l 1.052734,1.57364 v -1.57364 h 0.254297 V 166 h -0.27207 l -1.052735,-1.575 V 166 Z m 2.024805,0 v -2.0043 h 0.69043 q 0.233789,0 0.356836,0.0287 0.172265,0.0397 0.293945,0.14356 0.158594,0.13398 0.236523,0.34316 0.0793,0.20782 0.0793,0.47578 0,0.22832 -0.05332,0.40469 -0.05332,0.17637 -0.136719,0.29258 -0.0834,0.11484 -0.183203,0.18184 -0.09844,0.0656 -0.239258,0.0998 Q 35.152129,166 34.970293,166 Z m 0.265234,-0.23652 h 0.42793 q 0.198242,0 0.310352,-0.0369 0.113476,-0.0369 0.180468,-0.1039 0.09434,-0.0943 0.146289,-0.25293 0.05332,-0.15996 0.05332,-0.38692 0,-0.31445 -0.103907,-0.48261 -0.102539,-0.16954 -0.250195,-0.22696 -0.10664,-0.041 -0.343164,-0.041 h -0.421094 z"
     id="text127"
     style="font-size:2.8px;font-family:Arial;text-anchor:middle;fill:#555555"
     aria-label="RND" />
  <path
     d="m 39.796934,166 v -2.0043 h 1.352148 v 0.23653 h -1.086914 v 0.6207 h 0.940625 v 0.23652 H 40.062168 V 166 Z m 1.700781,0 v -2.0043 h 0.888672 q 0.267969,0 0.407422,0.0547 0.139453,0.0533 0.222851,0.19004 0.0834,0.13672 0.0834,0.30215 0,0.21328 -0.138086,0.35957 -0.138086,0.14629 -0.426563,0.18594 0.105274,0.0506 0.159961,0.0998 0.116211,0.10664 0.220118,0.2666 L 43.264121,166 h -0.333593 l -0.265235,-0.41699 q -0.116211,-0.18047 -0.191406,-0.27617 -0.0752,-0.0957 -0.135352,-0.13399 -0.05879,-0.0383 -0.120312,-0.0533 -0.04512,-0.01 -0.147656,-0.01 H 41.762949 V 166 Z m 0.265234,-1.11973 h 0.570118 q 0.181836,0 0.284375,-0.0369 0.102539,-0.0383 0.155859,-0.12031 0.05332,-0.0834 0.05332,-0.18047 0,-0.14219 -0.103906,-0.23379 -0.102539,-0.0916 -0.325391,-0.0916 H 41.762949 Z M 43.521153,166 v -2.0043 h 1.449218 v 0.23653 h -1.183984 v 0.61386 h 1.108789 v 0.23516 h -1.108789 v 0.68223 h 1.230469 V 166 Z m 1.867578,0 v -2.0043 h 1.449218 v 0.23653 h -1.183984 v 0.61386 h 1.108789 v 0.23516 h -1.108789 v 0.68223 h 1.230469 V 166 Z m 1.702148,0 v -0.24609 l 1.026758,-1.28379 q 0.109375,-0.13672 0.207812,-0.23789 H 47.20709 v -0.23653 h 1.435547 v 0.23653 l -1.125196,1.39043 -0.121679,0.14082 h 1.279687 V 166 Z m 1.875782,0 v -2.0043 h 1.449218 v 0.23653 h -1.183984 v 0.61386 h 1.108789 v 0.23516 h -1.108789 v 0.68223 h 1.230469 V 166 Z"
     id="text128"
     style="font-size:2.8px;font-family:Arial;text-anchor:middle;fill:#555555"
     aria-label="FREEZE" />
  <path
     d="m 54.192091,166 v -2.0043 h 1.352149 v 0.23653 h -1.086914 v 0.6207 h 0.940625 v 0.23652 H 54.457326 V 166 Z m 2.04668,0 -0.531836,-2.0043 h 0.272071 l 0.304882,1.31387 q 0.04922,0.20645 0.08477,0.41016 0.07656,-0.32129 0.09023,-0.37051 l 0.381446,-1.35352 h 0.319921 l 0.28711,1.01446 q 0.108008,0.37734 0.155859,0.70957 0.03828,-0.19004 0.09981,-0.43614 l 0.314453,-1.28789 h 0.266602 L 57.734474,166 H 57.47881 l -0.422461,-1.52715 q -0.05332,-0.1914 -0.06289,-0.23515 -0.03145,0.13808 -0.05879,0.23515 L 56.509474,166 Z m 2.292774,0 v -2.0043 h 0.690429 q 0.233789,0 0.356836,0.0287 0.172266,0.0397 0.293946,0.14356 0.158593,0.13398 0.236523,0.34316 0.0793,0.20782 0.0793,0.47578 0,0.22832 -0.05332,0.40469 -0.05332,0.17637 -0.136719,0.29258 -0.0834,0.11484 -0.183203,0.18184 -0.09844,0.0656 -0.239258,0.0998 Q 59.436623,166 59.254787,166 Z m 0.265234,-0.23652 h 0.42793 q 0.198242,0 0.310351,-0.0369 0.113477,-0.0369 0.180469,-0.1039 0.09434,-0.0943 0.146289,-0.25293 0.05332,-0.15996 0.05332,-0.38692 0,-0.31445 -0.103906,-0.48261 -0.102539,-0.16954 -0.250195,-0.22696 -0.106641,-0.041 -0.343164,-0.041 h -0.421094 z"
     id="text129"
     style="font-size:2.8px;font-family:Arial;text-anchor:middle;fill:#555555"
     aria-label="FWD" />
  <path
     d="m 66.561505,166 v -2.0043 h 0.888672 q 0.267969,0 0.407422,0.0547 0.139453,0.0533 0.222851,0.19004 0.0834,0.13672 0.0834,0.30215 0,0.21328 -0.138086,0.35957 -0.138086,0.14629 -0.426563,0.18594 0.105274,0.0506 0.159961,0.0998 0.116211,0.10664 0.220118,0.2666 L 68.327911,166 h -0.333593 l -0.265235,-0.41699 q -0.116211,-0.18047 -0.191406,-0.27617 -0.0752,-0.0957 -0.135352,-0.13399 -0.05879,-0.0383 -0.120312,-0.0533 -0.04512,-0.01 -0.147656,-0.01 H 66.82674 V 166 Z m 0.265235,-1.11973 h 0.570117 q 0.181836,0 0.284375,-0.0369 0.102539,-0.0383 0.155859,-0.12031 0.05332,-0.0834 0.05332,-0.18047 0,-0.14219 -0.103906,-0.23379 -0.102539,-0.0916 -0.32539,-0.0916 H 66.82674 Z M 68.584943,166 v -2.0043 h 1.449218 v 0.23653 h -1.183984 v 0.61386 h 1.108789 v 0.23516 h -1.108789 v 0.68223 h 1.230469 V 166 Z m 2.434961,0 -0.776563,-2.0043 h 0.287109 l 0.520899,1.45606 q 0.06289,0.175 0.105273,0.32812 0.04649,-0.16406 0.108008,-0.32812 l 0.541406,-1.45606 H 72.07674 L 71.291974,166 Z"
     id="text130"
     style="font-size:2.8px;font-family:Arial;text-anchor:middle;fill:#555555"
     aria-label="REV" />
  <path
     d="m 77.606366,166 v -2.0043 h 0.756055 q 0.199609,0 0.304883,0.0191 0.147656,0.0246 0.24746,0.0943 0.0998,0.0684 0.159961,0.19277 0.06152,0.12442 0.06152,0.27344 0,0.25566 -0.162695,0.4334 -0.162696,0.17637 -0.587891,0.17637 H 77.8716 V 166 Z m 0.265234,-1.05137 h 0.518164 q 0.257032,0 0.36504,-0.0957 0.108007,-0.0957 0.108007,-0.26934 0,-0.12578 -0.06426,-0.21464 -0.06289,-0.0902 -0.166797,-0.11895 -0.06699,-0.0178 -0.247461,-0.0178 H 77.8716 Z M 79.479413,166 v -2.0043 h 1.449219 v 0.23653 h -1.183985 v 0.61386 h 1.108789 v 0.23516 h -1.108789 v 0.68223 h 1.230469 V 166 Z m 1.859375,0 v -2.0043 h 0.27207 l 1.052735,1.57364 v -1.57364 h 0.254296 V 166 h -0.27207 l -1.052734,-1.575 V 166 Z m 2.024804,0 v -2.0043 h 0.69043 q 0.233789,0 0.356836,0.0287 0.172266,0.0397 0.293945,0.14356 0.158594,0.13398 0.236524,0.34316 0.0793,0.20782 0.0793,0.47578 0,0.22832 -0.05332,0.40469 -0.05332,0.17637 -0.136718,0.29258 -0.0834,0.11484 -0.183203,0.18184 -0.09844,0.0656 -0.239258,0.0998 Q 84.268671,166 84.086835,166 Z m 0.265235,-0.23652 h 0.42793 q 0.198242,0 0.310351,-0.0369 0.113477,-0.0369 0.180469,-0.1039 0.09434,-0.0943 0.146289,-0.25293 0.05332,-0.15996 0.05332,-0.38692 0,-0.31445 -0.103906,-0.48261 -0.102539,-0.16954 -0.250195,-0.22696 -0.106641,-0.041 -0.343164,-0.041 h -0.421094 z"
     id="text131"
     style="font-size:2.8px;font-family:Arial;text-anchor:middle;fill:#555555"
     aria-label="PEND" />
  <path
     d="m 87.841339,166 v -1.78955 h 0.793457 q 0.239258,0 0.36377,0.0488 0.124511,0.0476 0.198974,0.16968 0.07446,0.12207 0.07446,0.26977 0,0.19043 -0.123291,0.32105 -0.123291,0.13061 -0.380859,0.16601 0.09399,0.0452 0.142822,0.0891 0.10376,0.0952 0.196533,0.23804 L 89.418488,166 h -0.297852 l -0.236816,-0.37231 q -0.10376,-0.16114 -0.170899,-0.24659 -0.06714,-0.0855 -0.120849,-0.11963 -0.05249,-0.0342 -0.107422,-0.0476 -0.04028,-0.009 -0.131836,-0.009 H 88.078156 V 166 Z m 0.236817,-0.99976 h 0.509033 q 0.162353,0 0.253906,-0.0329 0.09155,-0.0342 0.13916,-0.10743 0.04761,-0.0745 0.04761,-0.16113 0,-0.12695 -0.09277,-0.20874 -0.09155,-0.0818 -0.290527,-0.0818 H 88.078156 Z M 89.640656,166 v -1.78955 h 0.242919 l 0.939942,1.40503 v -1.40503 h 0.227051 V 166 h -0.24292 l -0.939942,-1.40625 V 166 Z m 1.807861,0 v -1.78955 h 0.616455 q 0.20874,0 0.318603,0.0256 0.153809,0.0354 0.262452,0.12818 0.141601,0.11963 0.211181,0.30639 0.0708,0.18555 0.0708,0.42481 0,0.20386 -0.04761,0.36133 -0.04761,0.15747 -0.122071,0.26123 -0.07446,0.10254 -0.163574,0.16235 -0.08789,0.0586 -0.213623,0.0891 Q 92.256622,166 92.094269,166 Z m 0.236816,-0.21118 h 0.38208 q 0.177002,0 0.2771,-0.033 0.101318,-0.033 0.161133,-0.0928 0.08423,-0.0842 0.130615,-0.22583 0.04761,-0.14283 0.04761,-0.34546 0,-0.28076 -0.09277,-0.43091 -0.09155,-0.15137 -0.223389,-0.20264 -0.09521,-0.0366 -0.306396,-0.0366 h -0.375977 z m 2.182617,-0.36377 0.223389,-0.0195 q 0.01587,0.13427 0.07324,0.22094 0.05859,0.0854 0.180664,0.13916 0.122071,0.0525 0.274659,0.0525 0.135498,0 0.239257,-0.0403 0.10376,-0.0403 0.153809,-0.10986 0.05127,-0.0708 0.05127,-0.15381 0,-0.0842 -0.04883,-0.14648 -0.04883,-0.0635 -0.161132,-0.10621 -0.07202,-0.0281 -0.318604,-0.0867 -0.246582,-0.0598 -0.345459,-0.1123 -0.128174,-0.0671 -0.19165,-0.16602 -0.06226,-0.10009 -0.06226,-0.22338 0,-0.1355 0.0769,-0.25269 0.0769,-0.11841 0.224609,-0.17944 0.147706,-0.061 0.32837,-0.061 0.198974,0 0.350341,0.0647 0.152588,0.0635 0.234375,0.18799 0.08179,0.12451 0.08789,0.28198 l -0.227051,0.0171 q -0.01831,-0.16968 -0.124511,-0.25635 -0.104981,-0.0867 -0.31128,-0.0867 -0.214843,0 -0.31372,0.0794 -0.09766,0.0781 -0.09766,0.18921 0,0.0964 0.06958,0.15869 0.06836,0.0623 0.356446,0.12817 0.289306,0.0647 0.396728,0.11353 0.15625,0.072 0.230713,0.1831 0.07446,0.10987 0.07446,0.25391 0,0.14282 -0.08179,0.26977 -0.08179,0.12574 -0.235596,0.19654 -0.152588,0.0696 -0.344238,0.0696 -0.24292,0 -0.407715,-0.0708 -0.163574,-0.0708 -0.257568,-0.21241 -0.09277,-0.14282 -0.09766,-0.32226 z M 95.62088,166 v -1.78955 h 1.293945 v 0.21118 h -1.057128 v 0.5481 h 0.98999 v 0.20996 h -0.98999 v 0.60913 h 1.098632 V 166 Z m 3.018799,-0.19165 q 0.164795,0.11352 0.303955,0.16602 l -0.06958,0.16479 q -0.192871,-0.0696 -0.384522,-0.21973 -0.198974,0.11109 -0.439453,0.11109 -0.24292,0 -0.440673,-0.11719 -0.197754,-0.11719 -0.305176,-0.32959 -0.106201,-0.2124 -0.106201,-0.47852 0,-0.26489 0.107421,-0.48217 0.107422,-0.21729 0.305176,-0.33081 0.198975,-0.11353 0.444336,-0.11353 0.247803,0 0.446778,0.11841 0.198974,0.11719 0.302734,0.32959 0.10498,0.21118 0.10498,0.47729 0,0.22095 -0.06714,0.39795 -0.06714,0.17578 -0.202637,0.3064 z m -0.52124,-0.30273 q 0.205078,0.0574 0.338134,0.17089 0.208741,-0.19043 0.208741,-0.57251 0,-0.21728 -0.07446,-0.37963 -0.07324,-0.16236 -0.216065,-0.25147 -0.141601,-0.0903 -0.318603,-0.0903 -0.264893,0 -0.439453,0.18188 -0.174561,0.18067 -0.174561,0.54077 0,0.34913 0.172119,0.53589 0.17334,0.18677 0.441895,0.18677 0.126953,0 0.239258,-0.0476 -0.111084,-0.072 -0.234375,-0.10254 z"
     id="text132"
     style="font-size:2.5px;font-family:Arial;text-anchor:middle;fill:#555555"
     aria-label="RND SEQ" />
</svg>
