<?xml version="1.0" encoding="UTF-8" standalone="no"?>
<svg xmlns="http://www.w3.org/2000/svg" width="300" height="380" viewBox="0 0 300 380" version="1.1">

  <!-- Panel: 300x380px = 20HP x 3U - standard VCV dimensions -->
  <rect width="300" height="380" fill="#d8d6d0"/>
  <rect x="6" y="6" width="288" height="368" fill="#eceae4" rx="2"/>
  <line x1="6"   y1="6" x2="6"   y2="374" stroke="#ccc" stroke-width="1"/>
  <line x1="294" y1="6" x2="294" y2="374" stroke="#ccc" stroke-width="1"/>

  <!-- Mounting holes -->
  <circle cx="22"  cy="22"  r="12" fill="#c8c5be" stroke="#aaa" stroke-width="2"/>
  <circle cx="278" cy="22"  r="12" fill="#c8c5be" stroke="#aaa" stroke-width="2"/>
  <circle cx="22"  cy="358" r="12" fill="#c8c5be" stroke="#aaa" stroke-width="2"/>
  <circle cx="278" cy="358" r="12" fill="#c8c5be" stroke="#aaa" stroke-width="2"/>

  <!-- Title -->
  <text x="150" y="42" text-anchor="middle" font-size="18" font-family="Arial Narrow,Arial,sans-serif" font-weight="700" fill="#111" letter-spacing="4">VOLTAGE BLOCK</text>
  <text x="150" y="54" text-anchor="middle" font-size="10" font-family="Arial,sans-serif" fill="#aaa" letter-spacing="3">8 CHANNEL CV SEQUENCER</text>
  <line x1="12" y1="60" x2="288" y2="60" stroke="#ccc" stroke-width="1"/>

  <!-- Channel numbers above jacks -->
  <text x="26.3"  y="67" text-anchor="middle" font-size="10" font-family="Arial" fill="#666">1</text>
  <text x="61.9"  y="67" text-anchor="middle" font-size="10" font-family="Arial" fill="#666">2</text>
  <text x="97.5"  y="67" text-anchor="middle" font-size="10" font-family="Arial" fill="#666">3</text>
  <text x="133.1" y="67" text-anchor="middle" font-size="10" font-family="Arial" fill="#666">4</text>
  <text x="168.8" y="67" text-anchor="middle" font-size="10" font-family="Arial" fill="#666">5</text>
  <text x="204.4" y="67" text-anchor="middle" font-size="10" font-family="Arial" fill="#666">6</text>
  <text x="240.0" y="67" text-anchor="middle" font-size="10" font-family="Arial" fill="#666">7</text>
  <text x="275.6" y="67" text-anchor="middle" font-size="10" font-family="Arial" fill="#666">8</text>

  <!-- 8 output jacks y=69.7 -->
  <circle cx="26.3"  cy="70" r="13" fill="#b8b5ae" stroke="#888" stroke-width="2"/><circle cx="26.3"  cy="70" r="8" fill="#111"/><circle cx="26.3"  cy="70" r="2.5" fill="#555"/>
  <circle cx="61.9"  cy="70" r="13" fill="#b8b5ae" stroke="#888" stroke-width="2"/><circle cx="61.9"  cy="70" r="8" fill="#111"/><circle cx="61.9"  cy="70" r="2.5" fill="#555"/>
  <circle cx="97.5"  cy="70" r="13" fill="#b8b5ae" stroke="#888" stroke-width="2"/><circle cx="97.5"  cy="70" r="8" fill="#111"/><circle cx="97.5"  cy="70" r="2.5" fill="#555"/>
  <circle cx="133.1" cy="70" r="13" fill="#b8b5ae" stroke="#888" stroke-width="2"/><circle cx="133.1" cy="70" r="8" fill="#111"/><circle cx="133.1" cy="70" r="2.5" fill="#555"/>
  <circle cx="168.8" cy="70" r="13" fill="#b8b5ae" stroke="#888" stroke-width="2"/><circle cx="168.8" cy="70" r="8" fill="#111"/><circle cx="168.8" cy="70" r="2.5" fill="#555"/>
  <circle cx="204.4" cy="70" r="13" fill="#b8b5ae" stroke="#888" stroke-width="2"/><circle cx="204.4" cy="70" r="8" fill="#111"/><circle cx="204.4" cy="70" r="2.5" fill="#555"/>
  <circle cx="240.0" cy="70" r="13" fill="#b8b5ae" stroke="#888" stroke-width="2"/><circle cx="240.0" cy="70" r="8" fill="#111"/><circle cx="240.0" cy="70" r="2.5" fill="#555"/>
  <circle cx="275.6" cy="70" r="13" fill="#b8b5ae" stroke="#888" stroke-width="2"/><circle cx="275.6" cy="70" r="8" fill="#111"/><circle cx="275.6" cy="70" r="2.5" fill="#555"/>

  <!-- Red LEDs below jacks y=84 -->
  <circle cx="26.3"  cy="87" r="6" fill="#cc2020"/>
  <circle cx="61.9"  cy="87" r="6" fill="#cc2020"/>
  <circle cx="97.5"  cy="87" r="6" fill="#cc2020"/>
  <circle cx="133.1" cy="87" r="6" fill="#cc2020"/>
  <circle cx="168.8" cy="87" r="6" fill="#cc2020"/>
  <circle cx="204.4" cy="87" r="6" fill="#cc2020"/>
  <circle cx="240.0" cy="87" r="6" fill="#cc2020"/>
  <circle cx="275.6" cy="87" r="6" fill="#cc2020"/>

  <line x1="12" y1="97" x2="288" y2="97" stroke="#bbb" stroke-width="1"/>

  <!-- CLK/CV jack -->
  <text x="23.4" y="107" text-anchor="middle" font-size="9" font-family="Arial" fill="#555">CLK/CV</text>
  <circle cx="23.4" cy="119" r="13" fill="#b8b5ae" stroke="#888" stroke-width="2"/><circle cx="23.4" cy="119" r="8" fill="#111"/><circle cx="23.4" cy="119" r="2.5" fill="#555"/>

  <!-- Switch -->
  <rect x="43" y="108" width="26" height="32" rx="3" fill="#ccc" stroke="#999" stroke-width="1"/>
  <rect x="46" y="111" width="9" height="13" rx="2" fill="#111"/>
  <rect x="46" y="126" width="9" height="13" rx="2" fill="#bbb"/>
  <text x="60" y="119" font-size="8" font-family="Arial" fill="#555">CLK</text>
  <text x="60" y="130" font-size="8" font-family="Arial" fill="#555">CV</text>
  <text x="60" y="141" font-size="8" font-family="Arial" fill="#555">SLV</text>

  <!-- RST/HLD jack -->
  <circle cx="23.4" cy="152" r="13" fill="#b8b5ae" stroke="#888" stroke-width="2"/><circle cx="23.4" cy="152" r="8" fill="#111"/><circle cx="23.4" cy="152" r="2.5" fill="#555"/>
  <text x="23.4" y="170" text-anchor="middle" font-size="9" font-family="Arial" fill="#555">RST/HLD</text>

  <!-- OFFSET knob -->
  <text x="98.4" y="107" text-anchor="middle" font-size="9" font-family="Arial" fill="#555">OFFSET</text>
  <circle cx="98.4" cy="128" r="18" fill="#ccc" stroke="#999" stroke-width="1.5"/><circle cx="98.4" cy="128" r="13" fill="#222" stroke="#444" stroke-width="1"/><line x1="98.4" y1="111" x2="98.4" y2="119" stroke="#ddd" stroke-width="3"/>

  <!-- ATTEN knob -->
  <text x="138.7" y="107" text-anchor="middle" font-size="9" font-family="Arial" fill="#555">ATTEN</text>
  <circle cx="138.7" cy="128" r="18" fill="#ccc" stroke="#999" stroke-width="1.5"/><circle cx="138.7" cy="128" r="13" fill="#222" stroke="#444" stroke-width="1"/><line x1="138.7" y1="111" x2="138.7" y2="119" stroke="#ddd" stroke-width="3"/>

  <!-- DIVIDE knob -->
  <text x="179.0" y="107" text-anchor="middle" font-size="9" font-family="Arial" fill="#555">DIVIDE</text>
  <circle cx="179.0" cy="128" r="18" fill="#ccc" stroke="#999" stroke-width="1.5"/><circle cx="179.0" cy="128" r="13" fill="#222" stroke="#444" stroke-width="1"/><line x1="179.0" y1="111" x2="179.0" y2="119" stroke="#ddd" stroke-width="3"/>

  <!-- Mode buttons row 1: MUTE, LENGTH, SHIFT  y=110 -->
  <circle cx="215.5" cy="110" r="16" fill="#d0cece" stroke="#aaa" stroke-width="1.5"/>
  <text x="215.5" y="130" text-anchor="middle" font-size="9" font-family="Arial" fill="#444">MUTE</text>
  <circle cx="248.0" cy="110" r="16" fill="#d0cece" stroke="#aaa" stroke-width="1.5"/>
  <text x="248.0" y="130" text-anchor="middle" font-size="9" font-family="Arial" fill="#444">LENGTH</text>
  <circle cx="280.5" cy="110" r="16" fill="#d0cece" stroke="#aaa" stroke-width="1.5"/>
  <text x="280.5" y="130" text-anchor="middle" font-size="9" font-family="Arial" fill="#444">SHIFT</text>

  <!-- Mode buttons row 2: SCALE, SAVE, RECALL  y=143 -->
  <circle cx="215.5" cy="145" r="16" fill="#d0cece" stroke="#aaa" stroke-width="1.5"/>
  <text x="215.5" y="165" text-anchor="middle" font-size="9" font-family="Arial" fill="#444">SCALE</text>
  <circle cx="248.0" cy="145" r="16" fill="#d0cece" stroke="#aaa" stroke-width="1.5"/>
  <text x="248.0" y="165" text-anchor="middle" font-size="9" font-family="Arial" fill="#444">SAVE</text>
  <circle cx="280.5" cy="145" r="16" fill="#d0cece" stroke="#aaa" stroke-width="1.5"/>
  <text x="280.5" y="165" text-anchor="middle" font-size="9" font-family="Arial" fill="#444">RECALL</text>

  <line x1="12" y1="174" x2="288" y2="174" stroke="#bbb" stroke-width="1"/>

  <!-- 8 slider tracks y=177-243 -->
  <rect x="19"  y="177" width="15" height="66" rx="7" fill="#c8c5be" stroke="#aaa" stroke-width="1"/>
  <rect x="54"  y="177" width="15" height="66" rx="7" fill="#c8c5be" stroke="#aaa" stroke-width="1"/>
  <rect x="90"  y="177" width="15" height="66" rx="7" fill="#c8c5be" stroke="#aaa" stroke-width="1"/>
  <rect x="126" y="177" width="15" height="66" rx="7" fill="#c8c5be" stroke="#aaa" stroke-width="1"/>
  <rect x="161" y="177" width="15" height="66" rx="7" fill="#c8c5be" stroke="#aaa" stroke-width="1"/>
  <rect x="197" y="177" width="15" height="66" rx="7" fill="#c8c5be" stroke="#aaa" stroke-width="1"/>
  <rect x="232" y="177" width="15" height="66" rx="7" fill="#c8c5be" stroke="#aaa" stroke-width="1"/>
  <rect x="268" y="177" width="15" height="66" rx="7" fill="#c8c5be" stroke="#aaa" stroke-width="1"/>

  <!-- Slider handles at mid position -->
  <rect x="16"  y="200" width="21" height="20" rx="4" fill="#333" stroke="#222" stroke-width="1"/>
  <rect x="51"  y="200" width="21" height="20" rx="4" fill="#333" stroke="#222" stroke-width="1"/>
  <rect x="87"  y="200" width="21" height="20" rx="4" fill="#333" stroke="#222" stroke-width="1"/>
  <rect x="123" y="200" width="21" height="20" rx="4" fill="#333" stroke="#222" stroke-width="1"/>
  <rect x="158" y="200" width="21" height="20" rx="4" fill="#333" stroke="#222" stroke-width="1"/>
  <rect x="194" y="200" width="21" height="20" rx="4" fill="#333" stroke="#222" stroke-width="1"/>
  <rect x="229" y="200" width="21" height="20" rx="4" fill="#333" stroke="#222" stroke-width="1"/>
  <rect x="265" y="200" width="21" height="20" rx="4" fill="#333" stroke="#222" stroke-width="1"/>

  <!-- Slider LEDs on handles -->
  <circle cx="26.3"  cy="210" r="5" fill="#cc2020"/>
  <circle cx="61.9"  cy="210" r="5" fill="#cc2020"/>
  <circle cx="97.5"  cy="210" r="5" fill="#cc2020"/>
  <circle cx="133.1" cy="210" r="5" fill="#cc2020"/>
  <circle cx="168.8" cy="210" r="5" fill="#cc2020"/>
  <circle cx="204.4" cy="210" r="5" fill="#cc2020"/>
  <circle cx="240.0" cy="210" r="5" fill="#cc2020"/>
  <circle cx="275.6" cy="210" r="5" fill="#cc2020"/>

  <line x1="12" y1="248" x2="288" y2="248" stroke="#bbb" stroke-width="1"/>

  <!-- 8 red LEDs above step row 1 y=257 -->
  <circle cx="26.3"  cy="258" r="5" fill="#cc2020"/>
  <circle cx="61.9"  cy="258" r="5" fill="#cc2020"/>
  <circle cx="97.5"  cy="258" r="5" fill="#cc2020"/>
  <circle cx="133.1" cy="258" r="5" fill="#cc2020"/>
  <circle cx="168.8" cy="258" r="5" fill="#cc2020"/>
  <circle cx="204.4" cy="258" r="5" fill="#cc2020"/>
  <circle cx="240.0" cy="258" r="5" fill="#cc2020"/>
  <circle cx="275.6" cy="258" r="5" fill="#cc2020"/>

  <!-- Step buttons row 1 y=277 r=20 -->
  <circle cx="26.3"  cy="278" r="20" fill="#484848" stroke="#333" stroke-width="1"/>
  <circle cx="61.9"  cy="278" r="20" fill="#484848" stroke="#333" stroke-width="1"/>
  <circle cx="97.5"  cy="278" r="20" fill="#484848" stroke="#333" stroke-width="1"/>
  <circle cx="133.1" cy="278" r="20" fill="#484848" stroke="#333" stroke-width="1"/>
  <circle cx="168.8" cy="278" r="20" fill="#484848" stroke="#333" stroke-width="1"/>
  <circle cx="204.4" cy="278" r="20" fill="#484848" stroke="#333" stroke-width="1"/>
  <circle cx="240.0" cy="278" r="20" fill="#484848" stroke="#333" stroke-width="1"/>
  <circle cx="275.6" cy="278" r="20" fill="#484848" stroke="#333" stroke-width="1"/>

  <!-- LEDs between rows y=302 + 2 PCB screws -->
  <circle cx="26.3"  cy="302" r="5" fill="#cc2020"/>
  <circle cx="44.1"  cy="302" r="5" fill="#d5d2cb" stroke="#bbb" stroke-width="1.5"/><circle cx="44.1" cy="302" r="2.5" fill="#aaa"/>
  <circle cx="61.9"  cy="302" r="5" fill="#cc2020"/>
  <circle cx="97.5"  cy="302" r="5" fill="#cc2020"/>
  <circle cx="133.1" cy="302" r="5" fill="#cc2020"/>
  <circle cx="168.8" cy="302" r="5" fill="#cc2020"/>
  <circle cx="204.4" cy="302" r="5" fill="#cc2020"/>
  <circle cx="240.0" cy="302" r="5" fill="#cc2020"/>
  <circle cx="257.8" cy="302" r="5" fill="#d5d2cb" stroke="#bbb" stroke-width="1.5"/><circle cx="257.8" cy="302" r="2.5" fill="#aaa"/>
  <circle cx="275.6" cy="302" r="5" fill="#cc2020"/>

  <!-- Step buttons row 2 y=320 r=20 -->
  <circle cx="26.3"  cy="321" r="20" fill="#484848" stroke="#333" stroke-width="1"/>
  <circle cx="61.9"  cy="321" r="20" fill="#484848" stroke="#333" stroke-width="1"/>
  <circle cx="97.5"  cy="321" r="20" fill="#484848" stroke="#333" stroke-width="1"/>
  <circle cx="133.1" cy="321" r="20" fill="#484848" stroke="#333" stroke-width="1"/>
  <circle cx="168.8" cy="321" r="20" fill="#484848" stroke="#333" stroke-width="1"/>
  <circle cx="204.4" cy="321" r="20" fill="#484848" stroke="#333" stroke-width="1"/>
  <circle cx="240.0" cy="321" r="20" fill="#484848" stroke="#333" stroke-width="1"/>
  <circle cx="275.6" cy="321" r="20" fill="#484848" stroke="#333" stroke-width="1"/>

  <line x1="12" y1="345" x2="288" y2="345" stroke="#bbb" stroke-width="1"/>

  <!-- Bottom labels -->
  <text x="26.3"  y="356" text-anchor="middle" font-size="9" font-family="Arial" fill="#555">CLEAR</text>
  <text x="61.9"  y="356" text-anchor="middle" font-size="9" font-family="Arial" fill="#555">SMOOTH</text>
  <text x="97.5"  y="356" text-anchor="middle" font-size="9" font-family="Arial" fill="#555">RND</text>
  <text x="133.1" y="356" text-anchor="middle" font-size="9" font-family="Arial" fill="#555">FREEZE</text>
  <text x="168.8" y="356" text-anchor="middle" font-size="9" font-family="Arial" fill="#555">FWD</text>
  <text x="204.4" y="356" text-anchor="middle" font-size="9" font-family="Arial" fill="#555">REV</text>
  <text x="240.0" y="356" text-anchor="middle" font-size="9" font-family="Arial" fill="#555">PEND</text>
  <text x="275.6" y="356" text-anchor="middle" font-size="8" font-family="Arial" fill="#555">RND SEQ</text>

</svg>
