<?xml version="1.0" encoding="UTF-8" standalone="no"?>
<svg xmlns="http://www.w3.org/2000/svg" width="132.08" height="380" viewBox="0 0 132.08 380">

  <!-- Background -->
  <rect width="132.08" height="380" fill="#e8e6e0"/>
  <rect x="3" y="3" width="126.08" height="374" fill="#f0ede6" rx="1.5"/>
  <line x1="3" y1="3" x2="3" y2="377" stroke="#d8d5ce" stroke-width="0.5"/>
  <line x1="129.08" y1="3" x2="129.08" y2="377" stroke="#d8d5ce" stroke-width="0.5"/>

  <!-- Mounting holes -->
  <circle cx="7.5"    cy="7.5"   r="3.5" fill="#d0cdc6" stroke="#b8b5ae" stroke-width="0.8"/>
  <circle cx="124.58" cy="7.5"   r="3.5" fill="#d0cdc6" stroke="#b8b5ae" stroke-width="0.8"/>
  <circle cx="7.5"    cy="372.5" r="3.5" fill="#d0cdc6" stroke="#b8b5ae" stroke-width="0.8"/>
  <circle cx="124.58" cy="372.5" r="3.5" fill="#d0cdc6" stroke="#b8b5ae" stroke-width="0.8"/>

  <!-- Title -->
  <text x="66.04" y="19" text-anchor="middle" fill="#1a1a1a" font-size="10" font-family="Arial Narrow,Arial,sans-serif" font-weight="700" letter-spacing="5">SKYLINE</text>
  <text x="66.04" y="27" text-anchor="middle" fill="#999" font-size="5" font-family="Arial,sans-serif" letter-spacing="2">8 CHANNEL CV SEQUENCER</text>
  <line x1="10" y1="30" x2="122" y2="30" stroke="#ccc" stroke-width="0.4"/>

  <!-- TOP ROW LABELS -->
  <text x="26" y="38" text-anchor="middle" fill="#444" font-size="5" font-family="Arial">CLK IN</text>
  <text x="45" y="38" text-anchor="middle" fill="#444" font-size="5" font-family="Arial">RST/HLD</text>
  <text x="63" y="38" text-anchor="middle" fill="#444" font-size="5" font-family="Arial">CLK·CV·SLV</text>
  <text x="91" y="38" text-anchor="middle" fill="#444" font-size="5" font-family="Arial">DIV</text>
  <text x="111" y="38" text-anchor="middle" fill="#444" font-size="5" font-family="Arial">ATT</text>

  <!-- CLK jack -->
  <circle cx="26" cy="50" r="6" fill="#c8c5be" stroke="#999" stroke-width="0.8"/>
  <circle cx="26" cy="50" r="3.5" fill="#1a1a1a"/>
  <circle cx="26" cy="50" r="1.2" fill="#666"/>

  <!-- RST jack -->
  <circle cx="45" cy="50" r="6" fill="#c8c5be" stroke="#999" stroke-width="0.8"/>
  <circle cx="45" cy="50" r="3.5" fill="#1a1a1a"/>
  <circle cx="45" cy="50" r="1.2" fill="#666"/>

  <!-- Switch -->
  <rect x="58" y="44" width="18" height="12" rx="1.5" fill="#d5d2cb" stroke="#aaa" stroke-width="0.6"/>
  <rect x="59.5" y="45.5" width="4.5" height="9" rx="1" fill="#1a1a1a"/>
  <rect x="65"   y="45.5" width="4.5" height="9" rx="1" fill="#bbb"/>
  <rect x="70.5" y="45.5" width="4.5" height="9" rx="1" fill="#bbb"/>

  <!-- OFFSET knob -->
  <circle cx="72" cy="50" r="8" fill="#d0cdc6" stroke="#aaa" stroke-width="0.8"/>
  <circle cx="72" cy="50" r="6" fill="#2a2a2a" stroke="#444" stroke-width="0.6"/>
  <line x1="72" y1="44.5" x2="72" y2="47.5" stroke="#e8e6e0" stroke-width="1.2"/>
  <text x="72" y="61" text-anchor="middle" fill="#444" font-size="5" font-family="Arial">OFS</text>

  <!-- DIV knob -->
  <circle cx="91" cy="50" r="8" fill="#d0cdc6" stroke="#aaa" stroke-width="0.8"/>
  <circle cx="91" cy="50" r="6" fill="#2a2a2a" stroke="#444" stroke-width="0.6"/>
  <line x1="91" y1="44.5" x2="91" y2="47.5" stroke="#e8e6e0" stroke-width="1.2"/>

  <!-- ATT knob -->
  <circle cx="111" cy="50" r="8" fill="#d0cdc6" stroke="#aaa" stroke-width="0.8"/>
  <circle cx="111" cy="50" r="6" fill="#2a2a2a" stroke="#444" stroke-width="0.6"/>
  <line x1="111" y1="44.5" x2="111" y2="47.5" stroke="#e8e6e0" stroke-width="1.2"/>

  <line x1="10" y1="62" x2="122" y2="62" stroke="#ccc" stroke-width="0.4"/>

  <!-- CHANNEL COLUMN HEADERS -->
  <text x="16"  y="70" text-anchor="middle" fill="#bbb" font-size="4.5" font-family="Arial">SLD</text>
  <text x="66"  y="70" text-anchor="middle" fill="#bbb" font-size="4.5" font-family="Arial">STEPS 1–16</text>
  <text x="107" y="70" text-anchor="middle" fill="#bbb" font-size="4.5" font-family="Arial">OUT</text>
  <text x="122" y="70" text-anchor="middle" fill="#bbb" font-size="4.5" font-family="Arial">▲</text>

  <!-- CH1 row y=75-103 -->
  <text x="9" y="88" fill="#1a1a1a" font-size="7" font-family="Arial" font-weight="700">1</text>
  <rect x="14" y="73" width="8" height="28" rx="2" fill="#d5d2cb" stroke="#bbb" stroke-width="0.5"/>
  <rect x="15" y="83" width="6" height="9" rx="1.5" fill="#333"/>
  <rect x="25" y="73" width="76" height="28" rx="1.5" fill="#e0ddd6" stroke="#ccc" stroke-width="0.4"/>
  <circle cx="107" cy="87" r="6" fill="#c8c5be" stroke="#999" stroke-width="0.8"/>
  <circle cx="107" cy="87" r="3.5" fill="#1a1a1a"/>
  <circle cx="107" cy="87" r="1.2" fill="#666"/>
  <text x="107" y="100" text-anchor="middle" fill="#888" font-size="4" font-family="Arial">CV OUT</text>
  <circle cx="122" cy="77" r="3.5" fill="#e05050"/>
  <text x="122"  y="96" text-anchor="middle" fill="#888" font-size="4" font-family="Arial">LED</text>
  <line x1="122" y1="80.5" x2="122" y2="87" stroke="#ddd" stroke-width="0.5" stroke-dasharray="1.5,1.5"/>
  <circle cx="122" cy="87" r="2" fill="#e05050" opacity="0.4"/>

  <line x1="10" y1="104" x2="122" y2="104" stroke="#ccc" stroke-width="0.4"/>

  <!-- CH2 row -->
  <text x="9" y="117" fill="#1a1a1a" font-size="7" font-family="Arial" font-weight="700">2</text>
  <rect x="14" y="106" width="8" height="28" rx="2" fill="#d5d2cb" stroke="#bbb" stroke-width="0.5"/>
  <rect x="15" y="116" width="6" height="9" rx="1.5" fill="#333"/>
  <rect x="25" y="106" width="76" height="28" rx="1.5" fill="#e0ddd6" stroke="#ccc" stroke-width="0.4"/>
  <circle cx="107" cy="120" r="6" fill="#c8c5be" stroke="#999" stroke-width="0.8"/>
  <circle cx="107" cy="120" r="3.5" fill="#1a1a1a"/>
  <circle cx="107" cy="120" r="1.2" fill="#666"/>
  <text x="107" y="133" text-anchor="middle" fill="#888" font-size="4" font-family="Arial">CV OUT</text>
  <circle cx="122" cy="110" r="3.5" fill="#5080e0"/>
  <text x="122"  y="129" text-anchor="middle" fill="#888" font-size="4" font-family="Arial">LED</text>
  <line x1="122" y1="113.5" x2="122" y2="120" stroke="#ddd" stroke-width="0.5" stroke-dasharray="1.5,1.5"/>
  <circle cx="122" cy="120" r="2" fill="#5080e0" opacity="0.4"/>

  <line x1="10" y1="137" x2="122" y2="137" stroke="#ccc" stroke-width="0.4"/>

  <!-- CH3 row -->
  <text x="9" y="150" fill="#1a1a1a" font-size="7" font-family="Arial" font-weight="700">3</text>
  <rect x="14" y="139" width="8" height="28" rx="2" fill="#d5d2cb" stroke="#bbb" stroke-width="0.5"/>
  <rect x="15" y="149" width="6" height="9" rx="1.5" fill="#333"/>
  <rect x="25" y="139" width="76" height="28" rx="1.5" fill="#e0ddd6" stroke="#ccc" stroke-width="0.4"/>
  <circle cx="107" cy="153" r="6" fill="#c8c5be" stroke="#999" stroke-width="0.8"/>
  <circle cx="107" cy="153" r="3.5" fill="#1a1a1a"/>
  <circle cx="107" cy="153" r="1.2" fill="#666"/>
  <text x="107" y="166" text-anchor="middle" fill="#888" font-size="4" font-family="Arial">CV OUT</text>
  <circle cx="122" cy="143" r="3.5" fill="#50b070"/>
  <text x="122"  y="162" text-anchor="middle" fill="#888" font-size="4" font-family="Arial">LED</text>
  <line x1="122" y1="146.5" x2="122" y2="153" stroke="#ddd" stroke-width="0.5" stroke-dasharray="1.5,1.5"/>
  <circle cx="122" cy="153" r="2" fill="#50b070" opacity="0.4"/>

  <line x1="10" y1="170" x2="122" y2="170" stroke="#ccc" stroke-width="0.4"/>

  <!-- CH4 row -->
  <text x="9" y="183" fill="#1a1a1a" font-size="7" font-family="Arial" font-weight="700">4</text>
  <rect x="14" y="172" width="8" height="28" rx="2" fill="#d5d2cb" stroke="#bbb" stroke-width="0.5"/>
  <rect x="15" y="182" width="6" height="9" rx="1.5" fill="#333"/>
  <rect x="25" y="172" width="76" height="28" rx="1.5" fill="#e0ddd6" stroke="#ccc" stroke-width="0.4"/>
  <circle cx="107" cy="186" r="6" fill="#c8c5be" stroke="#999" stroke-width="0.8"/>
  <circle cx="107" cy="186" r="3.5" fill="#1a1a1a"/>
  <circle cx="107" cy="186" r="1.2" fill="#666"/>
  <text x="107" y="199" text-anchor="middle" fill="#888" font-size="4" font-family="Arial">CV OUT</text>
  <circle cx="122" cy="176" r="3.5" fill="#d0a030"/>
  <text x="122"  y="195" text-anchor="middle" fill="#888" font-size="4" font-family="Arial">LED</text>
  <line x1="122" y1="179.5" x2="122" y2="186" stroke="#ddd" stroke-width="0.5" stroke-dasharray="1.5,1.5"/>
  <circle cx="122" cy="186" r="2" fill="#d0a030" opacity="0.4"/>

  <line x1="10" y1="203" x2="122" y2="203" stroke="#ccc" stroke-width="0.4"/>

  <!-- CH5-8 compact 2x2 grid -->
  <text x="9" y="213" fill="#1a1a1a" font-size="6" font-family="Arial" font-weight="700">5-8</text>
  <rect x="14" y="205" width="8" height="38" rx="2" fill="#d5d2cb" stroke="#bbb" stroke-width="0.5"/>
  <rect x="15" y="218" width="6" height="9" rx="1.5" fill="#333"/>

  <!-- CH5 -->
  <circle cx="34" cy="211" r="5.5" fill="#c8c5be" stroke="#999" stroke-width="0.8"/>
  <circle cx="34" cy="211" r="3.2" fill="#1a1a1a"/>
  <circle cx="34" cy="211" r="1.2" fill="#666"/>
  <text x="34" y="221" text-anchor="middle" fill="#666" font-size="4.5" font-family="Arial">CH5</text>
  <circle cx="44" cy="208" r="3" fill="#a050c0"/>

  <!-- CH6 -->
  <circle cx="58" cy="211" r="5.5" fill="#c8c5be" stroke="#999" stroke-width="0.8"/>
  <circle cx="58" cy="211" r="3.2" fill="#1a1a1a"/>
  <circle cx="58" cy="211" r="1.2" fill="#666"/>
  <text x="58" y="221" text-anchor="middle" fill="#666" font-size="4.5" font-family="Arial">CH6</text>
  <circle cx="68" cy="208" r="3" fill="#40a0b0"/>

  <!-- CH7 -->
  <circle cx="34" cy="233" r="5.5" fill="#c8c5be" stroke="#999" stroke-width="0.8"/>
  <circle cx="34" cy="233" r="3.2" fill="#1a1a1a"/>
  <circle cx="34" cy="233" r="1.2" fill="#666"/>
  <text x="34" y="243" text-anchor="middle" fill="#666" font-size="4.5" font-family="Arial">CH7</text>
  <circle cx="44" cy="230" r="3" fill="#c06040"/>

  <!-- CH8 -->
  <circle cx="58" cy="233" r="5.5" fill="#c8c5be" stroke="#999" stroke-width="0.8"/>
  <circle cx="58" cy="233" r="3.2" fill="#1a1a1a"/>
  <circle cx="58" cy="233" r="1.2" fill="#666"/>
  <text x="58" y="243" text-anchor="middle" fill="#666" font-size="4.5" font-family="Arial">CH8</text>
  <circle cx="68" cy="230" r="3" fill="#808030"/>

  <line x1="10" y1="248" x2="122" y2="248" stroke="#ccc" stroke-width="0.4"/>

  <!-- FUNCTION BUTTONS -->
  <text x="66" y="256" text-anchor="middle" fill="#bbb" font-size="4.5" font-family="Arial" letter-spacing="1">CONTROLS</text>

  <rect x="10"  y="259" width="16" height="10" rx="1.5" fill="#d5d2cb" stroke="#e05050" stroke-width="0.8"/>
  <text x="18"  y="267" text-anchor="middle" fill="#1a1a1a" font-size="5" font-family="Arial">MUTE</text>

  <rect x="29"  y="259" width="13" height="10" rx="1.5" fill="#d5d2cb" stroke="#bbb" stroke-width="0.6"/>
  <text x="35"  y="267" text-anchor="middle" fill="#444" font-size="5" font-family="Arial">LEN</text>

  <rect x="45"  y="259" width="17" height="10" rx="1.5" fill="#d5d2cb" stroke="#bbb" stroke-width="0.6"/>
  <text x="53"  y="267" text-anchor="middle" fill="#444" font-size="5" font-family="Arial">SCALE</text>

  <rect x="65"  y="259" width="16" height="10" rx="1.5" fill="#d5d2cb" stroke="#bbb" stroke-width="0.6"/>
  <text x="73"  y="267" text-anchor="middle" fill="#444" font-size="5" font-family="Arial">SHIFT</text>

  <rect x="84"  y="259" width="14" height="10" rx="1.5" fill="#d5d2cb" stroke="#bbb" stroke-width="0.6"/>
  <text x="91"  y="267" text-anchor="middle" fill="#444" font-size="5" font-family="Arial">SAVE</text>

  <rect x="101" y="259" width="21" height="10" rx="1.5" fill="#d5d2cb" stroke="#bbb" stroke-width="0.6"/>
  <text x="111" y="267" text-anchor="middle" fill="#444" font-size="5" font-family="Arial">RECALL</text>

  <line x1="10" y1="273" x2="122" y2="273" stroke="#ccc" stroke-width="0.4"/>

  <!-- STEP BUTTONS -->
  <text x="66" y="280" text-anchor="middle" fill="#bbb" font-size="4.5" font-family="Arial" letter-spacing="1">STEPS / PRESETS</text>

  <!-- Row 1: steps 1-8 -->
  <rect x="10"  y="283" width="12" height="11" rx="1.5" fill="#e05050" opacity="0.9"/>
  <rect x="24"  y="283" width="12" height="11" rx="1.5" fill="#d5d2cb" stroke="#bbb" stroke-width="0.5"/>
  <rect x="38"  y="283" width="12" height="11" rx="1.5" fill="#d5d2cb" stroke="#bbb" stroke-width="0.5"/>
  <rect x="52"  y="283" width="12" height="11" rx="1.5" fill="#d5d2cb" stroke="#bbb" stroke-width="0.5"/>
  <rect x="66"  y="283" width="12" height="11" rx="1.5" fill="#d5d2cb" stroke="#bbb" stroke-width="0.5"/>
  <rect x="80"  y="283" width="12" height="11" rx="1.5" fill="#d5d2cb" stroke="#bbb" stroke-width="0.5"/>
  <rect x="94"  y="283" width="12" height="11" rx="1.5" fill="#d5d2cb" stroke="#bbb" stroke-width="0.5"/>
  <rect x="108" y="283" width="12" height="11" rx="1.5" fill="#d5d2cb" stroke="#bbb" stroke-width="0.5"/>

  <text x="16"  y="291" text-anchor="middle" fill="#fff" font-size="6" font-family="Arial">1</text>
  <text x="30"  y="291" text-anchor="middle" fill="#888" font-size="6" font-family="Arial">2</text>
  <text x="44"  y="291" text-anchor="middle" fill="#888" font-size="6" font-family="Arial">3</text>
  <text x="58"  y="291" text-anchor="middle" fill="#888" font-size="6" font-family="Arial">4</text>
  <text x="72"  y="291" text-anchor="middle" fill="#888" font-size="6" font-family="Arial">5</text>
  <text x="86"  y="291" text-anchor="middle" fill="#888" font-size="6" font-family="Arial">6</text>
  <text x="100" y="291" text-anchor="middle" fill="#888" font-size="6" font-family="Arial">7</text>
  <text x="114" y="291" text-anchor="middle" fill="#888" font-size="6" font-family="Arial">8</text>

  <!-- Row 2: steps 9-16 -->
  <rect x="10"  y="297" width="12" height="11" rx="1.5" fill="#d5d2cb" stroke="#bbb" stroke-width="0.5"/>
  <rect x="24"  y="297" width="12" height="11" rx="1.5" fill="#d5d2cb" stroke="#bbb" stroke-width="0.5"/>
  <rect x="38"  y="297" width="12" height="11" rx="1.5" fill="#d5d2cb" stroke="#bbb" stroke-width="0.5"/>
  <rect x="52"  y="297" width="12" height="11" rx="1.5" fill="#d5d2cb" stroke="#bbb" stroke-width="0.5"/>
  <rect x="66"  y="297" width="12" height="11" rx="1.5" fill="#d5d2cb" stroke="#bbb" stroke-width="0.5"/>
  <rect x="80"  y="297" width="12" height="11" rx="1.5" fill="#d5d2cb" stroke="#bbb" stroke-width="0.5"/>
  <rect x="94"  y="297" width="12" height="11" rx="1.5" fill="#d5d2cb" stroke="#bbb" stroke-width="0.5"/>
  <rect x="108" y="297" width="12" height="11" rx="1.5" fill="#d5d2cb" stroke="#bbb" stroke-width="0.5"/>

  <text x="16"  y="305" text-anchor="middle" fill="#888" font-size="6" font-family="Arial">9</text>
  <text x="30"  y="305" text-anchor="middle" fill="#888" font-size="5.5" font-family="Arial">10</text>
  <text x="44"  y="305" text-anchor="middle" fill="#888" font-size="5.5" font-family="Arial">11</text>
  <text x="58"  y="305" text-anchor="middle" fill="#888" font-size="5.5" font-family="Arial">12</text>
  <text x="72"  y="305" text-anchor="middle" fill="#888" font-size="5.5" font-family="Arial">13</text>
  <text x="86"  y="305" text-anchor="middle" fill="#888" font-size="5.5" font-family="Arial">14</text>
  <text x="100" y="305" text-anchor="middle" fill="#888" font-size="5.5" font-family="Arial">15</text>
  <text x="114" y="305" text-anchor="middle" fill="#888" font-size="5.5" font-family="Arial">16</text>

</svg>
