<?xml version="1.0" encoding="UTF-8" standalone="no"?>
<!--
  Skyline VCV Rack Panel - 20HP (300 x 380 px)
  Pixel coords derived from: scale = 300/101.6 = 2.9528 px/mm
  Channel X px: 21, 58, 95, 132, 169, 205, 242, 279
-->
<svg xmlns="http://www.w3.org/2000/svg"
     width="300" height="380"
     viewBox="0 0 300 380" version="1.1">

  <!-- BACKGROUND -->
  <rect width="300" height="380" fill="#c0bdb6"/>
  <rect x="3" y="3" width="294" height="374" fill="#e4e1da" rx="2"/>

  <!-- SCREWS -->
  <circle cx="15" cy="15" r="7" fill="#b8b5ae" stroke="#999" stroke-width="1.2"/>
  <circle cx="285" cy="15" r="7" fill="#b8b5ae" stroke="#999" stroke-width="1.2"/>
  <circle cx="15" cy="365" r="7" fill="#b8b5ae" stroke="#999" stroke-width="1.2"/>
  <circle cx="285" cy="365" r="7" fill="#b8b5ae" stroke="#999" stroke-width="1.2"/>
  <line x1="11" y1="15" x2="19" y2="15" stroke="#888" stroke-width="1"/>
  <line x1="15" y1="11" x2="15" y2="19" stroke="#888" stroke-width="1"/>
  <line x1="281" y1="15" x2="289" y2="15" stroke="#888" stroke-width="1"/>
  <line x1="285" y1="11" x2="285" y2="19" stroke="#888" stroke-width="1"/>
  <line x1="11" y1="365" x2="19" y2="365" stroke="#888" stroke-width="1"/>
  <line x1="15" y1="361" x2="15" y2="369" stroke="#888" stroke-width="1"/>
  <line x1="281" y1="365" x2="289" y2="365" stroke="#888" stroke-width="1"/>
  <line x1="285" y1="361" x2="285" y2="369" stroke="#888" stroke-width="1"/>

  <!-- TITLE -->
  <text x="150" y="16" font-family="sans-serif" font-size="11" font-weight="bold"
        fill="#111" text-anchor="middle" letter-spacing="3">SKYLINE</text>
  <text x="150" y="28" font-family="sans-serif" font-size="7" fill="#888"
        text-anchor="middle" letter-spacing="1.5">8 CHANNEL CV SEQUENCER</text>

  <!-- SECTION LINES -->
  <!-- below channel outputs -->
  <line x1="6" y1="109" x2="294" y2="109" stroke="#bbb" stroke-width="0.75"/>
  <!-- below controls -->
  <line x1="6" y1="198" x2="294" y2="198" stroke="#bbb" stroke-width="0.75"/>
  <!-- below sliders -->
  <line x1="6" y1="279" x2="294" y2="279" stroke="#bbb" stroke-width="0.75"/>

  <!-- ===== CHANNEL NUMBERS  y=40px ===== -->
  <text x="21"  y="40" font-family="sans-serif" font-size="9" font-weight="bold" fill="#333" text-anchor="middle">1</text>
  <text x="58"  y="40" font-family="sans-serif" font-size="9" font-weight="bold" fill="#333" text-anchor="middle">2</text>
  <text x="95"  y="40" font-family="sans-serif" font-size="9" font-weight="bold" fill="#333" text-anchor="middle">3</text>
  <text x="132" y="40" font-family="sans-serif" font-size="9" font-weight="bold" fill="#333" text-anchor="middle">4</text>
  <text x="169" y="40" font-family="sans-serif" font-size="9" font-weight="bold" fill="#333" text-anchor="middle">5</text>
  <text x="205" y="40" font-family="sans-serif" font-size="9" font-weight="bold" fill="#333" text-anchor="middle">6</text>
  <text x="242" y="40" font-family="sans-serif" font-size="9" font-weight="bold" fill="#333" text-anchor="middle">7</text>
  <text x="279" y="40" font-family="sans-serif" font-size="9" font-weight="bold" fill="#333" text-anchor="middle">8</text>

  <!-- ===== OUTPUT JACKS  y=66px, r=12 ===== -->
  <circle cx="21"  cy="66" r="12" fill="#a0a09a" stroke="#777" stroke-width="1.5"/>
  <circle cx="21"  cy="66" r="7"  fill="#111"/><circle cx="21"  cy="66" r="2" fill="#555"/>
  <circle cx="58"  cy="66" r="12" fill="#a0a09a" stroke="#777" stroke-width="1.5"/>
  <circle cx="58"  cy="66" r="7"  fill="#111"/><circle cx="58"  cy="66" r="2" fill="#555"/>
  <circle cx="95"  cy="66" r="12" fill="#a0a09a" stroke="#777" stroke-width="1.5"/>
  <circle cx="95"  cy="66" r="7"  fill="#111"/><circle cx="95"  cy="66" r="2" fill="#555"/>
  <circle cx="132" cy="66" r="12" fill="#a0a09a" stroke="#777" stroke-width="1.5"/>
  <circle cx="132" cy="66" r="7"  fill="#111"/><circle cx="132" cy="66" r="2" fill="#555"/>
  <circle cx="169" cy="66" r="12" fill="#a0a09a" stroke="#777" stroke-width="1.5"/>
  <circle cx="169" cy="66" r="7"  fill="#111"/><circle cx="169" cy="66" r="2" fill="#555"/>
  <circle cx="205" cy="66" r="12" fill="#a0a09a" stroke="#777" stroke-width="1.5"/>
  <circle cx="205" cy="66" r="7"  fill="#111"/><circle cx="205" cy="66" r="2" fill="#555"/>
  <circle cx="242" cy="66" r="12" fill="#a0a09a" stroke="#777" stroke-width="1.5"/>
  <circle cx="242" cy="66" r="7"  fill="#111"/><circle cx="242" cy="66" r="2" fill="#555"/>
  <circle cx="279" cy="66" r="12" fill="#a0a09a" stroke="#777" stroke-width="1.5"/>
  <circle cx="279" cy="66" r="7"  fill="#111"/><circle cx="279" cy="66" r="2" fill="#555"/>

  <!-- CHANNEL LED PLACEHOLDERS  y=92px -->
  <circle cx="21"  cy="92" r="4" fill="#661010"/>
  <circle cx="58"  cy="92" r="4" fill="#661010"/>
  <circle cx="95"  cy="92" r="4" fill="#661010"/>
  <circle cx="132" cy="92" r="4" fill="#661010"/>
  <circle cx="169" cy="92" r="4" fill="#661010"/>
  <circle cx="205" cy="92" r="4" fill="#661010"/>
  <circle cx="242" cy="92" r="4" fill="#661010"/>
  <circle cx="279" cy="92" r="4" fill="#661010"/>

  <!-- ===== CONTROLS SECTION  y=109-198px ===== -->

  <!-- Labels row  y=120px -->
  <text x="21"  y="120" font-family="sans-serif" font-size="7" fill="#555" text-anchor="middle">CLK/CV</text>
  <text x="86"  y="120" font-family="sans-serif" font-size="7" fill="#555" text-anchor="middle">OFFSET</text>
  <text x="140" y="120" font-family="sans-serif" font-size="7" fill="#555" text-anchor="middle">ATTEN</text>
  <text x="195" y="120" font-family="sans-serif" font-size="7" fill="#555" text-anchor="middle">DIVIDE</text>
  <text x="235" y="120" font-family="sans-serif" font-size="7" fill="#555" text-anchor="middle">MUTE</text>
  <text x="258" y="120" font-family="sans-serif" font-size="7" fill="#555" text-anchor="middle">LEN</text>
  <text x="282" y="120" font-family="sans-serif" font-size="7" fill="#555" text-anchor="middle">SHIFT</text>

  <!-- CLK jack placeholder  y=137px -->
  <circle cx="21" cy="137" r="12" fill="#a0a09a" stroke="#777" stroke-width="1.5"/>
  <circle cx="21" cy="137" r="7"  fill="#111"/><circle cx="21" cy="137" r="2" fill="#555"/>

  <!-- Switch placeholder  x=42-58 y=124-166px -->
  <rect x="42" y="124" width="16" height="42" rx="3" fill="#c8c5be" stroke="#999" stroke-width="1"/>
  <rect x="45" y="127" width="10" height="14" rx="2" fill="#111"/>
  <rect x="45" y="144" width="10" height="14" rx="2" fill="#aaa"/>

  <!-- RST label  y=164px -->
  <text x="21" y="164" font-family="sans-serif" font-size="7" fill="#555" text-anchor="middle">RST/HLD</text>

  <!-- RST jack placeholder  y=176px -->
  <circle cx="21" cy="176" r="12" fill="#a0a09a" stroke="#777" stroke-width="1.5"/>
  <circle cx="21" cy="176" r="7"  fill="#111"/><circle cx="21" cy="176" r="2" fill="#555"/>

  <!-- Knob placeholders  y=158px, r=17 -->
  <circle cx="86"  cy="158" r="17" fill="#ccc" stroke="#999" stroke-width="1"/>
  <circle cx="86"  cy="158" r="12" fill="#1e1e1e" stroke="#444" stroke-width="0.75"/>
  <line x1="86"  y1="143" x2="86"  y2="150" stroke="#ddd" stroke-width="2"/>
  <circle cx="140" cy="158" r="17" fill="#ccc" stroke="#999" stroke-width="1"/>
  <circle cx="140" cy="158" r="12" fill="#1e1e1e" stroke="#444" stroke-width="0.75"/>
  <line x1="140" y1="143" x2="140" y2="150" stroke="#ddd" stroke-width="2"/>
  <circle cx="195" cy="158" r="17" fill="#ccc" stroke="#999" stroke-width="1"/>
  <circle cx="195" cy="158" r="12" fill="#1e1e1e" stroke="#444" stroke-width="0.75"/>
  <line x1="195" y1="143" x2="195" y2="150" stroke="#ddd" stroke-width="2"/>

  <!-- Mode button placeholders row 1  y=137px, r=12 -->
  <circle cx="235" cy="137" r="12" fill="#ccc" stroke="#aaa" stroke-width="1"/>
  <circle cx="258" cy="137" r="12" fill="#ccc" stroke="#aaa" stroke-width="1"/>
  <circle cx="282" cy="137" r="12" fill="#ccc" stroke="#aaa" stroke-width="1"/>

  <!-- Labels between button rows  y=155px -->
  <text x="235" y="155" font-family="sans-serif" font-size="7" fill="#555" text-anchor="middle">SCALE</text>
  <text x="258" y="155" font-family="sans-serif" font-size="7" fill="#555" text-anchor="middle">SAVE</text>
  <text x="282" y="155" font-family="sans-serif" font-size="7" fill="#555" text-anchor="middle">RECALL</text>

  <!-- Mode button placeholders row 2  y=176px, r=12 -->
  <circle cx="235" cy="176" r="12" fill="#ccc" stroke="#aaa" stroke-width="1"/>
  <circle cx="258" cy="176" r="12" fill="#ccc" stroke="#aaa" stroke-width="1"/>
  <circle cx="282" cy="176" r="12" fill="#ccc" stroke="#aaa" stroke-width="1"/>

  <!-- ===== SLIDERS  y=205-270px ===== -->
  <!-- Tracks -->
  <rect x="17"  y="205" width="8" height="65" rx="4" fill="#b8b5ae" stroke="#999" stroke-width="0.75"/>
  <rect x="54"  y="205" width="8" height="65" rx="4" fill="#b8b5ae" stroke="#999" stroke-width="0.75"/>
  <rect x="91"  y="205" width="8" height="65" rx="4" fill="#b8b5ae" stroke="#999" stroke-width="0.75"/>
  <rect x="128" y="205" width="8" height="65" rx="4" fill="#b8b5ae" stroke="#999" stroke-width="0.75"/>
  <rect x="165" y="205" width="8" height="65" rx="4" fill="#b8b5ae" stroke="#999" stroke-width="0.75"/>
  <rect x="201" y="205" width="8" height="65" rx="4" fill="#b8b5ae" stroke="#999" stroke-width="0.75"/>
  <rect x="238" y="205" width="8" height="65" rx="4" fill="#b8b5ae" stroke="#999" stroke-width="0.75"/>
  <rect x="275" y="205" width="8" height="65" rx="4" fill="#b8b5ae" stroke="#999" stroke-width="0.75"/>

  <!-- ===== STEP BUTTONS  y=279+ ===== -->
  <!-- Step LED row 1  y=291px -->
  <circle cx="21"  cy="291" r="4" fill="#661010"/>
  <circle cx="58"  cy="291" r="4" fill="#661010"/>
  <circle cx="95"  cy="291" r="4" fill="#661010"/>
  <circle cx="132" cy="291" r="4" fill="#661010"/>
  <circle cx="169" cy="291" r="4" fill="#661010"/>
  <circle cx="205" cy="291" r="4" fill="#661010"/>
  <circle cx="242" cy="291" r="4" fill="#661010"/>
  <circle cx="279" cy="291" r="4" fill="#661010"/>

  <!-- Step buttons row 1  y=312px, r=12 -->
  <circle cx="21"  cy="312" r="12" fill="#383838" stroke="#222" stroke-width="1"/>
  <circle cx="58"  cy="312" r="12" fill="#383838" stroke="#222" stroke-width="1"/>
  <circle cx="95"  cy="312" r="12" fill="#383838" stroke="#222" stroke-width="1"/>
  <circle cx="132" cy="312" r="12" fill="#383838" stroke="#222" stroke-width="1"/>
  <circle cx="169" cy="312" r="12" fill="#383838" stroke="#222" stroke-width="1"/>
  <circle cx="205" cy="312" r="12" fill="#383838" stroke="#222" stroke-width="1"/>
  <circle cx="242" cy="312" r="12" fill="#383838" stroke="#222" stroke-width="1"/>
  <circle cx="279" cy="312" r="12" fill="#383838" stroke="#222" stroke-width="1"/>

  <!-- Step LED row 2  y=333px -->
  <circle cx="21"  cy="333" r="4" fill="#661010"/>
  <circle cx="58"  cy="333" r="4" fill="#661010"/>
  <circle cx="95"  cy="333" r="4" fill="#661010"/>
  <circle cx="132" cy="333" r="4" fill="#661010"/>
  <circle cx="169" cy="333" r="4" fill="#661010"/>
  <circle cx="205" cy="333" r="4" fill="#661010"/>
  <circle cx="242" cy="333" r="4" fill="#661010"/>
  <circle cx="279" cy="333" r="4" fill="#661010"/>

  <!-- Step buttons row 2  y=354px, r=12 (bottom edge = 366, safe) -->
  <circle cx="21"  cy="354" r="12" fill="#383838" stroke="#222" stroke-width="1"/>
  <circle cx="58"  cy="354" r="12" fill="#383838" stroke="#222" stroke-width="1"/>
  <circle cx="95"  cy="354" r="12" fill="#383838" stroke="#222" stroke-width="1"/>
  <circle cx="132" cy="354" r="12" fill="#383838" stroke="#222" stroke-width="1"/>
  <circle cx="169" cy="354" r="12" fill="#383838" stroke="#222" stroke-width="1"/>
  <circle cx="205" cy="354" r="12" fill="#383838" stroke="#222" stroke-width="1"/>
  <circle cx="242" cy="354" r="12" fill="#383838" stroke="#222" stroke-width="1"/>
  <circle cx="279" cy="354" r="12" fill="#383838" stroke="#222" stroke-width="1"/>

  <!-- Step function labels  y=371px -->
  <text x="21"  y="371" font-family="sans-serif" font-size="6.5" fill="#444" text-anchor="middle">CLEAR</text>
  <text x="58"  y="371" font-family="sans-serif" font-size="6.5" fill="#444" text-anchor="middle">SMOOTH</text>
  <text x="95"  y="371" font-family="sans-serif" font-size="6.5" fill="#444" text-anchor="middle">RND</text>
  <text x="132" y="371" font-family="sans-serif" font-size="6.5" fill="#444" text-anchor="middle">FREEZE</text>
  <text x="169" y="371" font-family="sans-serif" font-size="6.5" fill="#444" text-anchor="middle">FWD</text>
  <text x="205" y="371" font-family="sans-serif" font-size="6.5" fill="#444" text-anchor="middle">REV</text>
  <text x="242" y="371" font-family="sans-serif" font-size="6.5" fill="#444" text-anchor="middle">PEND</text>
  <text x="279" y="371" font-family="sans-serif" font-size="6.5" fill="#444" text-anchor="middle">RND SEQ</text>

</svg>
