<svg xmlns="http://www.w3.org/2000/svg" width="420" height="380" viewBox="0 0 420 380">
<!-- Soundscape VCV Rack Panel — 28HP (420×380px) -->
<!-- Scale 2.9528 px/mm, same as Skyline.svg -->
<rect x="0" y="0" width="420" height="380" rx="4" fill="#0d1117"/>
<rect x="3" y="3" width="414" height="374" rx="3" fill="#161b22"/>
<rect x="3" y="3" width="45.3" height="374" rx="3" fill="#0d1117"/>
<line x1="48.3" y1="3" x2="48.3" y2="377" stroke="#30363d" stroke-width="0.6"/>
<rect x="0.5" y="0.5" width="419" height="379" rx="4" fill="none" stroke="#30363d" stroke-width="1"/>
<line x1="33.8" y1="32.6" x2="291.9" y2="32.6" stroke="#30363d" stroke-width="0.6"/>
<line x1="33.8" y1="82.3" x2="291.9" y2="82.3" stroke="#30363d" stroke-width="0.6"/>
<line x1="33.8" y1="135.7" x2="291.9" y2="135.7" stroke="#30363d" stroke-width="0.6"/>
<line x1="33.8" y1="199.0" x2="291.9" y2="199.0" stroke="#30363d" stroke-width="0.6"/>
<line x1="33.8" y1="273.2" x2="291.9" y2="273.2" stroke="#30363d" stroke-width="0.6"/>
<line x1="33.8" y1="325.7" x2="291.9" y2="325.7" stroke="#30363d" stroke-width="0.6"/>
<line x1="0.0" y1="32.6" x2="420.0" y2="32.6" stroke="#30363d" stroke-width="0.6"/>
<g transform="translate(179.33,22.62) scale(1,-1)"><path d="M 4.82,5.68 L 4.82,4.44 Q 4.34,4.66 3.88,4.77 Q 3.42,4.88 3.01,4.88 Q 2.47,4.88 2.21,4.73 Q 1.95,4.58 1.95,4.27 Q 1.95,4.03 2.12,3.90 Q 2.30,3.77 2.76,3.67 L 3.40,3.54 Q 4.38,3.34 4.79,2.94 Q 5.21,2.54 5.21,1.80 Q 5.21,0.83 4.63,0.36 Q 4.06,-0.11 2.87,-0.11 Q 2.32,-0.11 1.75,-0.01 Q 1.19,0.10 0.63,0.31 L 0.63,1.58 Q 1.19,1.29 1.72,1.13 Q 2.24,0.98 2.73,0.98 Q 3.22,0.98 3.49,1.15 Q 3.75,1.31 3.75,1.62 Q 3.75,1.89 3.57,2.04 Q 3.39,2.19 2.86,2.31 L 2.27,2.44 Q 1.39,2.63 0.98,3.04 Q 0.58,3.46 0.58,4.15 Q 0.58,5.03 1.14,5.50 Q 1.71,5.97 2.77,5.97 Q 3.26,5.97 3.77,5.90 Q 4.28,5.83 4.82,5.68 Z M 9.22,4.88 Q 8.53,4.88 8.14,4.37 Q 7.76,3.86 7.76,2.93 Q 7.76,2.00 8.14,1.49 Q 8.53,0.98 9.22,0.98 Q 9.91,0.98 10.29,1.49 Q 10.68,2.00 10.68,2.93 Q 10.68,3.86 10.29,4.37 Q 9.91,4.88 9.22,4.88 Z M 9.22,5.97 Q 10.63,5.97 11.43,5.16 Q 12.24,4.36 12.24,2.93 Q 12.24,1.51 11.43,0.70 Q 10.63,-0.11 9.22,-0.11 Q 7.81,-0.11 7.00,0.70 Q 6.20,1.51 6.20,2.93 Q 6.20,4.36 7.00,5.16 Q 7.81,5.97 9.22,5.97 Z M 13.38,5.87 L 14.89,5.87 L 14.89,2.35 Q 14.89,1.62 15.13,1.31 Q 15.37,1.00 15.91,1.00 Q 16.45,1.00 16.69,1.31 Q 16.93,1.62 16.93,2.35 L 16.93,5.87 L 18.44,5.87 L 18.44,2.35 Q 18.44,1.10 17.81,0.49 Q 17.19,-0.11 15.91,-0.11 Q 14.63,-0.11 14.00,0.49 Q 13.38,1.10 13.38,2.35 L 13.38,5.87 Z M 19.92,5.87 L 21.61,5.87 L 23.74,1.84 L 23.74,5.87 L 25.18,5.87 L 25.18,0.00 L 23.49,0.00 L 21.35,4.02 L 21.35,0.00 L 19.92,0.00 L 19.92,5.87 Z M 28.17,4.72 L 28.17,1.14 L 28.71,1.14 Q 29.64,1.14 30.13,1.60 Q 30.62,2.06 30.62,2.94 Q 30.62,3.81 30.13,4.27 Q 29.64,4.72 28.71,4.72 L 28.17,4.72 Z M 26.65,5.87 L 28.25,5.87 Q 29.59,5.87 30.24,5.68 Q 30.89,5.49 31.36,5.03 Q 31.78,4.63 31.98,4.11 Q 32.18,3.60 32.18,2.94 Q 32.18,2.28 31.98,1.75 Q 31.78,1.23 31.36,0.84 Q 30.89,0.38 30.23,0.19 Q 29.57,0.00 28.25,0.00 L 26.65,0.00 L 26.65,5.87 Z M 37.42,5.68 L 37.42,4.44 Q 36.94,4.66 36.48,4.77 Q 36.02,4.88 35.61,4.88 Q 35.07,4.88 34.81,4.73 Q 34.55,4.58 34.55,4.27 Q 34.55,4.03 34.72,3.90 Q 34.90,3.77 35.36,3.67 L 36.00,3.54 Q 36.98,3.34 37.39,2.94 Q 37.81,2.54 37.81,1.80 Q 37.81,0.83 37.23,0.36 Q 36.65,-0.11 35.47,-0.11 Q 34.91,-0.11 34.35,-0.01 Q 33.79,0.10 33.23,0.31 L 33.23,1.58 Q 33.79,1.29 34.31,1.13 Q 34.84,0.98 35.33,0.98 Q 35.82,0.98 36.08,1.15 Q 36.35,1.31 36.35,1.62 Q 36.35,1.89 36.17,2.04 Q 35.99,2.19 35.45,2.31 L 34.87,2.44 Q 33.99,2.63 33.58,3.04 Q 33.17,3.46 33.17,4.15 Q 33.17,5.03 33.74,5.50 Q 34.31,5.97 35.37,5.97 Q 35.85,5.97 36.36,5.90 Q 36.87,5.83 37.42,5.68 Z M 43.79,0.32 Q 43.37,0.11 42.92,-0.00 Q 42.47,-0.11 41.98,-0.11 Q 40.51,-0.11 39.65,0.71 Q 38.80,1.53 38.80,2.93 Q 38.80,4.34 39.65,5.15 Q 40.51,5.97 41.98,5.97 Q 42.47,5.97 42.92,5.86 Q 43.37,5.75 43.79,5.54 L 43.79,4.32 Q 43.37,4.61 42.96,4.74 Q 42.55,4.88 42.10,4.88 Q 41.29,4.88 40.82,4.36 Q 40.36,3.84 40.36,2.93 Q 40.36,2.02 40.82,1.50 Q 41.29,0.98 42.10,0.98 Q 42.55,0.98 42.96,1.12 Q 43.37,1.25 43.79,1.54 L 43.79,0.32 Z M 48.60,1.07 L 46.24,1.07 L 45.86,0.00 L 44.34,0.00 L 46.52,5.87 L 48.32,5.87 L 50.49,0.00 L 48.97,0.00 L 48.60,1.07 Z M 46.61,2.16 L 48.22,2.16 L 47.42,4.49 L 46.61,2.16 Z M 51.27,5.87 L 53.78,5.87 Q 54.90,5.87 55.50,5.37 Q 56.10,4.87 56.10,3.95 Q 56.10,3.03 55.50,2.53 Q 54.90,2.04 53.78,2.04 L 52.79,2.04 L 52.79,0.00 L 51.27,0.00 L 51.27,5.87 Z M 52.79,4.77 L 52.79,3.13 L 53.62,3.13 Q 54.06,3.13 54.30,3.35 Q 54.54,3.56 54.54,3.95 Q 54.54,4.35 54.30,4.56 Q 54.06,4.77 53.62,4.77 L 52.79,4.77 Z M 57.17,5.87 L 61.25,5.87 L 61.25,4.72 L 58.69,4.72 L 58.69,3.63 L 61.10,3.63 L 61.10,2.49 L 58.69,2.49 L 58.69,1.14 L 61.34,1.14 L 61.34,0.00 L 57.17,0.00 L 57.17,5.87 Z" fill="#e6edf3"/></g>
<g transform="translate(21.98,17.19) scale(1,-1)"><path d="M 0.38,2.81 L 0.76,2.81 L 0.76,0.00 L 0.38,0.00 L 0.38,2.81 Z M 1.51,2.81 L 2.02,2.81 L 3.27,0.46 L 3.27,2.81 L 3.64,2.81 L 3.64,0.00 L 3.13,0.00 L 1.88,2.35 L 1.88,0.00 L 1.51,0.00 L 1.51,2.81 Z" fill="#484f58"/></g>
<circle cx="23.8" cy="100.4" r="6.3" fill="#161b22" stroke="#484f58" stroke-width="1.3"/>
<g transform="translate(20.42,114.90) scale(1,-1)"><path d="M 2.25,2.35 L 2.25,1.99 Q 2.08,2.15 1.88,2.23 Q 1.68,2.31 1.46,2.31 Q 1.03,2.31 0.79,2.05 Q 0.56,1.78 0.56,1.27 Q 0.56,0.77 0.79,0.50 Q 1.03,0.23 1.46,0.23 Q 1.68,0.23 1.88,0.31 Q 2.08,0.39 2.25,0.56 L 2.25,0.20 Q 2.07,0.07 1.87,0.01 Q 1.67,-0.05 1.44,-0.05 Q 0.86,-0.05 0.53,0.30 Q 0.20,0.66 0.20,1.27 Q 0.20,1.89 0.53,2.24 Q 0.86,2.60 1.44,2.60 Q 1.67,2.60 1.87,2.54 Q 2.08,2.48 2.25,2.35 Z M 2.79,2.55 L 3.13,2.55 L 3.13,0.29 L 4.37,0.29 L 4.37,0.00 L 2.79,0.00 L 2.79,2.55 Z M 4.74,2.55 L 5.08,2.55 L 5.08,1.47 L 6.23,2.55 L 6.67,2.55 L 5.41,1.36 L 6.76,0.00 L 6.31,0.00 L 5.08,1.23 L 5.08,0.00 L 4.74,0.00 L 4.74,2.55 Z" fill="#484f58"/></g>
<circle cx="23.8" cy="142.0" r="6.3" fill="#161b22" stroke="#484f58" stroke-width="1.3"/>
<g transform="translate(20.40,156.52) scale(1,-1)"><path d="M 1.55,1.20 Q 1.66,1.16 1.77,1.04 Q 1.87,0.91 1.98,0.70 L 2.33,0.00 L 1.96,0.00 L 1.63,0.65 Q 1.51,0.91 1.39,0.99 Q 1.27,1.08 1.06,1.08 L 0.69,1.08 L 0.69,0.00 L 0.34,0.00 L 0.34,2.55 L 1.12,2.55 Q 1.56,2.55 1.78,2.37 Q 1.99,2.19 1.99,1.82 Q 1.99,1.58 1.88,1.42 Q 1.77,1.26 1.55,1.20 Z M 0.69,2.27 L 0.69,1.36 L 1.12,1.36 Q 1.37,1.36 1.50,1.48 Q 1.63,1.59 1.63,1.82 Q 1.63,2.04 1.50,2.15 Q 1.37,2.27 1.12,2.27 L 0.69,2.27 Z M 4.30,2.47 L 4.30,2.13 Q 4.11,2.23 3.93,2.27 Q 3.76,2.32 3.60,2.32 Q 3.32,2.32 3.16,2.21 Q 3.01,2.10 3.01,1.90 Q 3.01,1.73 3.11,1.64 Q 3.21,1.56 3.50,1.50 L 3.71,1.46 Q 4.09,1.39 4.27,1.20 Q 4.46,1.02 4.46,0.70 Q 4.46,0.33 4.21,0.14 Q 3.96,-0.05 3.48,-0.05 Q 3.30,-0.05 3.10,-0.01 Q 2.89,0.03 2.67,0.11 L 2.67,0.47 Q 2.88,0.35 3.08,0.29 Q 3.29,0.23 3.48,0.23 Q 3.78,0.23 3.94,0.35 Q 4.10,0.46 4.10,0.68 Q 4.10,0.87 3.98,0.97 Q 3.87,1.08 3.60,1.13 L 3.39,1.17 Q 3.01,1.25 2.83,1.41 Q 2.66,1.58 2.66,1.87 Q 2.66,2.21 2.90,2.40 Q 3.14,2.60 3.56,2.60 Q 3.74,2.60 3.92,2.56 Q 4.11,2.53 4.30,2.47 Z M 4.64,2.55 L 6.80,2.55 L 6.80,2.26 L 5.90,2.26 L 5.90,0.00 L 5.55,0.00 L 5.55,2.26 L 4.64,2.26 L 4.64,2.55 Z" fill="#484f58"/></g>
<circle cx="23.8" cy="183.7" r="6.3" fill="#161b22" stroke="#484f58" stroke-width="1.3"/>
<g transform="translate(18.34,198.14) scale(1,-1)"><path d="M 1.00,0.00 L 0.03,2.55 L 0.39,2.55 L 1.20,0.40 L 2.01,2.55 L 2.37,2.55 L 1.39,0.00 L 1.00,0.00 Z M 3.28,2.55 L 3.57,2.55 L 2.68,-0.32 L 2.39,-0.32 L 3.28,2.55 Z M 4.95,2.32 Q 4.58,2.32 4.35,2.04 Q 4.13,1.76 4.13,1.27 Q 4.13,0.79 4.35,0.51 Q 4.58,0.23 4.95,0.23 Q 5.33,0.23 5.55,0.51 Q 5.77,0.79 5.77,1.27 Q 5.77,1.76 5.55,2.04 Q 5.33,2.32 4.95,2.32 Z M 4.95,2.60 Q 5.49,2.60 5.81,2.24 Q 6.13,1.88 6.13,1.27 Q 6.13,0.67 5.81,0.31 Q 5.49,-0.05 4.95,-0.05 Q 4.41,-0.05 4.09,0.31 Q 3.77,0.67 3.77,1.27 Q 3.77,1.88 4.09,2.24 Q 4.41,2.60 4.95,2.60 Z M 8.58,2.35 L 8.58,1.99 Q 8.41,2.15 8.21,2.23 Q 8.01,2.31 7.79,2.31 Q 7.35,2.31 7.12,2.05 Q 6.89,1.78 6.89,1.27 Q 6.89,0.77 7.12,0.50 Q 7.35,0.23 7.79,0.23 Q 8.01,0.23 8.21,0.31 Q 8.41,0.39 8.58,0.56 L 8.58,0.20 Q 8.40,0.07 8.20,0.01 Q 8.00,-0.05 7.77,-0.05 Q 7.19,-0.05 6.86,0.30 Q 6.52,0.66 6.52,1.27 Q 6.52,1.89 6.86,2.24 Q 7.19,2.60 7.77,2.60 Q 8.00,2.60 8.20,2.54 Q 8.40,2.48 8.58,2.35 Z M 8.76,2.55 L 10.92,2.55 L 10.92,2.26 L 10.01,2.26 L 10.01,0.00 L 9.67,0.00 L 9.67,2.26 L 8.76,2.26 L 8.76,2.55 Z" fill="#484f58"/></g>
<circle cx="23.8" cy="226.2" r="6.3" fill="#161b22" stroke="#484f58" stroke-width="1.3"/>
<g transform="translate(19.32,240.67) scale(1,-1)"><path d="M 2.08,0.36 L 2.08,1.05 L 1.52,1.05 L 1.52,1.33 L 2.42,1.33 L 2.42,0.24 Q 2.23,0.10 1.98,0.02 Q 1.74,-0.05 1.47,-0.05 Q 0.87,-0.05 0.53,0.30 Q 0.20,0.65 0.20,1.27 Q 0.20,1.90 0.53,2.25 Q 0.87,2.60 1.47,2.60 Q 1.72,2.60 1.94,2.54 Q 2.17,2.47 2.36,2.35 L 2.36,1.99 Q 2.17,2.15 1.95,2.23 Q 1.74,2.31 1.50,2.31 Q 1.03,2.31 0.80,2.05 Q 0.56,1.79 0.56,1.27 Q 0.56,0.76 0.80,0.50 Q 1.03,0.23 1.50,0.23 Q 1.68,0.23 1.82,0.27 Q 1.97,0.30 2.08,0.36 Z M 3.91,2.21 L 3.44,0.94 L 4.38,0.94 L 3.91,2.21 Z M 3.71,2.55 L 4.11,2.55 L 5.08,0.00 L 4.72,0.00 L 4.49,0.65 L 3.34,0.65 L 3.10,0.00 L 2.74,0.00 L 3.71,2.55 Z M 4.82,2.55 L 6.98,2.55 L 6.98,2.26 L 6.08,2.26 L 6.08,0.00 L 5.73,0.00 L 5.73,2.26 L 4.82,2.26 L 4.82,2.55 Z M 7.32,2.55 L 8.93,2.55 L 8.93,2.26 L 7.66,2.26 L 7.66,1.51 L 8.88,1.51 L 8.88,1.22 L 7.66,1.22 L 7.66,0.29 L 8.96,0.29 L 8.96,0.00 L 7.32,0.00 L 7.32,2.55 Z" fill="#484f58"/></g>
<circle cx="23.8" cy="267.8" r="6.3" fill="#161b22" stroke="#484f58" stroke-width="1.3"/>
<g transform="translate(20.53,282.29) scale(1,-1)"><path d="M 1.00,0.00 L 0.03,2.55 L 0.39,2.55 L 1.20,0.40 L 2.01,2.55 L 2.37,2.55 L 1.39,0.00 L 1.00,0.00 Z M 2.74,2.55 L 4.35,2.55 L 4.35,2.26 L 3.08,2.26 L 3.08,1.51 L 4.30,1.51 L 4.30,1.22 L 3.08,1.22 L 3.08,0.29 L 4.38,0.29 L 4.38,0.00 L 2.74,0.00 L 2.74,2.55 Z M 4.95,2.55 L 5.29,2.55 L 5.29,0.29 L 6.54,0.29 L 6.54,0.00 L 4.95,0.00 L 4.95,2.55 Z" fill="#484f58"/></g>
<circle cx="23.8" cy="309.4" r="6.3" fill="#161b22" stroke="#d29922" stroke-width="1.3"/>
<g transform="translate(18.25,323.90) scale(1,-1)"><path d="M 0.34,2.55 L 1.96,2.55 L 1.96,2.26 L 0.69,2.26 L 0.69,1.51 L 1.90,1.51 L 1.90,1.22 L 0.69,1.22 L 0.69,0.29 L 1.99,0.29 L 1.99,0.00 L 0.34,0.00 L 0.34,2.55 Z M 2.43,2.55 L 2.80,2.55 L 3.44,1.60 L 4.07,2.55 L 4.44,2.55 L 3.62,1.33 L 4.50,0.00 L 4.13,0.00 L 3.41,1.09 L 2.69,0.00 L 2.32,0.00 L 3.23,1.36 L 2.43,2.55 Z M 4.54,2.55 L 6.70,2.55 L 6.70,2.26 L 5.79,2.26 L 5.79,0.00 L 5.44,0.00 L 5.44,2.26 L 4.54,2.26 L 4.54,2.55 Z M 8.14,2.55 L 8.49,2.55 L 8.49,0.00 L 8.14,0.00 L 8.14,2.55 Z M 9.17,2.55 L 9.64,2.55 L 10.77,0.42 L 10.77,2.55 L 11.11,2.55 L 11.11,0.00 L 10.64,0.00 L 9.51,2.13 L 9.51,0.00 L 9.17,0.00 L 9.17,2.55 Z" fill="#d29922"/></g>
<circle cx="23.8" cy="351.0" r="6.3" fill="#161b22" stroke="#f85149" stroke-width="1.3"/>
<g transform="translate(18.77,365.52) scale(1,-1)"><path d="M 0.69,2.27 L 0.69,0.28 L 1.11,0.28 Q 1.63,0.28 1.88,0.52 Q 2.12,0.76 2.12,1.28 Q 2.12,1.79 1.88,2.03 Q 1.63,2.27 1.11,2.27 L 0.69,2.27 Z M 0.34,2.55 L 1.05,2.55 Q 1.79,2.55 2.14,2.24 Q 2.49,1.93 2.49,1.28 Q 2.49,0.62 2.14,0.31 Q 1.79,0.00 1.05,0.00 L 0.34,0.00 L 0.34,2.55 Z M 3.00,2.55 L 3.35,2.55 L 3.35,1.00 Q 3.35,0.59 3.49,0.41 Q 3.64,0.23 3.98,0.23 Q 4.31,0.23 4.46,0.41 Q 4.61,0.59 4.61,1.00 L 4.61,2.55 L 4.95,2.55 L 4.95,0.96 Q 4.95,0.46 4.71,0.21 Q 4.46,-0.05 3.98,-0.05 Q 3.49,-0.05 3.25,0.21 Q 3.00,0.46 3.00,0.96 L 3.00,2.55 Z M 7.51,2.35 L 7.51,1.99 Q 7.34,2.15 7.14,2.23 Q 6.94,2.31 6.72,2.31 Q 6.28,2.31 6.05,2.05 Q 5.82,1.78 5.82,1.27 Q 5.82,0.77 6.05,0.50 Q 6.28,0.23 6.72,0.23 Q 6.94,0.23 7.14,0.31 Q 7.34,0.39 7.51,0.56 L 7.51,0.20 Q 7.33,0.07 7.13,0.01 Q 6.92,-0.05 6.70,-0.05 Q 6.12,-0.05 5.79,0.30 Q 5.45,0.66 5.45,1.27 Q 5.45,1.89 5.79,2.24 Q 6.12,2.60 6.70,2.60 Q 6.93,2.60 7.13,2.54 Q 7.33,2.48 7.51,2.35 Z M 8.04,2.55 L 8.39,2.55 L 8.39,1.47 L 9.53,2.55 L 9.98,2.55 L 8.71,1.36 L 10.07,0.00 L 9.61,0.00 L 8.39,1.23 L 8.39,0.00 L 8.04,0.00 L 8.04,2.55 Z" fill="#f85149"/></g>
<circle cx="75.6" cy="50.7" r="6.3" fill="#161b22" stroke="#8b949e" stroke-width="1.3"/>
<circle cx="75.6" cy="64.2" r="2.1" fill="#3fb950"/>
<g transform="translate(74.65,74.19) scale(1,-1)"><path d="M 0.43,0.29 L 1.00,0.29 L 1.00,2.24 L 0.38,2.11 L 0.38,2.43 L 0.99,2.55 L 1.34,2.55 L 1.34,0.29 L 1.90,0.29 L 1.90,0.00 L 0.43,0.00 L 0.43,0.29 Z" fill="#484f58"/></g>
<circle cx="121.1" cy="50.7" r="6.3" fill="#161b22" stroke="#8b949e" stroke-width="1.3"/>
<circle cx="121.1" cy="64.2" r="2.1" fill="#3fb950"/>
<g transform="translate(120.16,74.19) scale(1,-1)"><path d="M 0.67,0.29 L 1.88,0.29 L 1.88,0.00 L 0.26,0.00 L 0.26,0.29 Q 0.45,0.49 0.79,0.84 Q 1.13,1.18 1.22,1.28 Q 1.38,1.46 1.45,1.59 Q 1.52,1.72 1.52,1.85 Q 1.52,2.05 1.37,2.18 Q 1.23,2.31 1.00,2.31 Q 0.84,2.31 0.66,2.25 Q 0.48,2.19 0.27,2.08 L 0.27,2.43 Q 0.48,2.51 0.66,2.56 Q 0.84,2.60 0.99,2.60 Q 1.39,2.60 1.63,2.40 Q 1.86,2.20 1.86,1.87 Q 1.86,1.71 1.80,1.57 Q 1.75,1.43 1.59,1.24 Q 1.55,1.19 1.32,0.95 Q 1.09,0.72 0.67,0.29 Z" fill="#484f58"/></g>
<circle cx="165.9" cy="50.7" r="6.3" fill="#161b22" stroke="#8b949e" stroke-width="1.3"/>
<circle cx="165.9" cy="64.2" r="2.1" fill="#3fb950"/>
<g transform="translate(164.93,74.19) scale(1,-1)"><path d="M 1.42,1.38 Q 1.67,1.32 1.81,1.16 Q 1.95,0.99 1.95,0.74 Q 1.95,0.36 1.69,0.16 Q 1.43,-0.05 0.95,-0.05 Q 0.79,-0.05 0.62,-0.02 Q 0.45,0.01 0.27,0.08 L 0.27,0.41 Q 0.41,0.33 0.58,0.28 Q 0.75,0.24 0.94,0.24 Q 1.26,0.24 1.43,0.37 Q 1.60,0.50 1.60,0.74 Q 1.60,0.97 1.44,1.09 Q 1.29,1.22 1.01,1.22 L 0.71,1.22 L 0.71,1.51 L 1.02,1.51 Q 1.27,1.51 1.41,1.61 Q 1.54,1.71 1.54,1.90 Q 1.54,2.10 1.40,2.20 Q 1.26,2.31 1.01,2.31 Q 0.86,2.31 0.70,2.28 Q 0.54,2.25 0.34,2.18 L 0.34,2.49 Q 0.54,2.54 0.71,2.57 Q 0.88,2.60 1.04,2.60 Q 1.43,2.60 1.66,2.42 Q 1.89,2.24 1.89,1.94 Q 1.89,1.72 1.77,1.58 Q 1.64,1.43 1.42,1.38 Z" fill="#484f58"/></g>
<circle cx="211.4" cy="50.7" r="6.3" fill="#161b22" stroke="#8b949e" stroke-width="1.3"/>
<circle cx="211.4" cy="64.2" r="2.1" fill="#3fb950"/>
<g transform="translate(210.38,74.19) scale(1,-1)"><path d="M 1.32,2.25 L 0.45,0.89 L 1.32,0.89 L 1.32,2.25 Z M 1.23,2.55 L 1.67,2.55 L 1.67,0.89 L 2.03,0.89 L 2.03,0.60 L 1.67,0.60 L 1.67,0.00 L 1.32,0.00 L 1.32,0.60 L 0.17,0.60 L 0.17,0.93 L 1.23,2.55 Z" fill="#484f58"/></g>
<circle cx="256.2" cy="50.7" r="6.3" fill="#161b22" stroke="#8b949e" stroke-width="1.3"/>
<circle cx="256.2" cy="64.2" r="2.1" fill="#3fb950"/>
<g transform="translate(255.24,74.19) scale(1,-1)"><path d="M 0.38,2.55 L 1.73,2.55 L 1.73,2.26 L 0.69,2.26 L 0.69,1.64 Q 0.77,1.66 0.84,1.67 Q 0.92,1.69 0.99,1.69 Q 1.42,1.69 1.67,1.45 Q 1.92,1.22 1.92,0.82 Q 1.92,0.41 1.66,0.18 Q 1.41,-0.05 0.94,-0.05 Q 0.78,-0.05 0.61,-0.02 Q 0.45,0.00 0.27,0.06 L 0.27,0.41 Q 0.42,0.32 0.59,0.28 Q 0.75,0.24 0.93,0.24 Q 1.23,0.24 1.40,0.40 Q 1.58,0.55 1.58,0.82 Q 1.58,1.09 1.40,1.24 Q 1.23,1.40 0.93,1.40 Q 0.80,1.40 0.66,1.37 Q 0.52,1.33 0.38,1.27 L 0.38,2.55 Z" fill="#484f58"/></g>
<circle cx="301.7" cy="50.7" r="6.3" fill="#161b22" stroke="#8b949e" stroke-width="1.3"/>
<circle cx="301.7" cy="64.2" r="2.1" fill="#3fb950"/>
<g transform="translate(300.70,74.19) scale(1,-1)"><path d="M 1.16,1.41 Q 0.92,1.41 0.79,1.25 Q 0.65,1.10 0.65,0.82 Q 0.65,0.54 0.79,0.38 Q 0.92,0.22 1.16,0.22 Q 1.39,0.22 1.52,0.38 Q 1.66,0.54 1.66,0.82 Q 1.66,1.10 1.52,1.25 Q 1.39,1.41 1.16,1.41 Z M 1.84,2.50 L 1.84,2.18 Q 1.71,2.24 1.58,2.27 Q 1.45,2.31 1.32,2.31 Q 0.97,2.31 0.79,2.08 Q 0.61,1.85 0.59,1.38 Q 0.69,1.53 0.84,1.61 Q 0.99,1.69 1.18,1.69 Q 1.56,1.69 1.78,1.45 Q 2.01,1.22 2.01,0.82 Q 2.01,0.43 1.77,0.19 Q 1.54,-0.05 1.16,-0.05 Q 0.71,-0.05 0.48,0.29 Q 0.24,0.63 0.24,1.27 Q 0.24,1.88 0.53,2.24 Q 0.82,2.60 1.30,2.60 Q 1.43,2.60 1.56,2.57 Q 1.70,2.55 1.84,2.50 Z" fill="#484f58"/></g>
<circle cx="346.5" cy="50.7" r="6.3" fill="#161b22" stroke="#8b949e" stroke-width="1.3"/>
<circle cx="346.5" cy="64.2" r="2.1" fill="#3fb950"/>
<g transform="translate(345.54,74.19) scale(1,-1)"><path d="M 0.29,2.55 L 1.93,2.55 L 1.93,2.40 L 1.00,0.00 L 0.64,0.00 L 1.51,2.26 L 0.29,2.26 L 0.29,2.55 Z" fill="#484f58"/></g>
<circle cx="392.0" cy="50.7" r="6.3" fill="#161b22" stroke="#8b949e" stroke-width="1.3"/>
<circle cx="392.0" cy="64.2" r="2.1" fill="#3fb950"/>
<g transform="translate(391.01,74.19) scale(1,-1)"><path d="M 1.11,1.21 Q 0.87,1.21 0.73,1.08 Q 0.58,0.95 0.58,0.72 Q 0.58,0.49 0.73,0.36 Q 0.87,0.22 1.11,0.22 Q 1.36,0.22 1.50,0.36 Q 1.64,0.49 1.64,0.72 Q 1.64,0.95 1.50,1.08 Q 1.36,1.21 1.11,1.21 Z M 0.77,1.36 Q 0.55,1.41 0.42,1.57 Q 0.30,1.72 0.30,1.94 Q 0.30,2.24 0.52,2.42 Q 0.73,2.60 1.11,2.60 Q 1.49,2.60 1.71,2.42 Q 1.93,2.24 1.93,1.94 Q 1.93,1.72 1.80,1.57 Q 1.68,1.41 1.46,1.36 Q 1.71,1.30 1.85,1.13 Q 1.99,0.96 1.99,0.72 Q 1.99,0.35 1.76,0.15 Q 1.53,-0.05 1.11,-0.05 Q 0.69,-0.05 0.46,0.15 Q 0.24,0.35 0.24,0.72 Q 0.24,0.96 0.38,1.13 Q 0.52,1.30 0.77,1.36 Z M 0.64,1.90 Q 0.64,1.71 0.76,1.59 Q 0.89,1.48 1.11,1.48 Q 1.33,1.48 1.46,1.59 Q 1.59,1.71 1.59,1.90 Q 1.59,2.10 1.46,2.21 Q 1.33,2.32 1.11,2.32 Q 0.89,2.32 0.76,2.21 Q 0.64,2.10 0.64,1.90 Z" fill="#484f58"/></g>
<rect x="56.7" y="91.4" width="37.8" height="27.1" rx="1.5" fill="#0d1117" stroke="#21262d" stroke-width="0.7"/>
<g transform="translate(71.85,114.90) scale(1,-1)"><path d="M 7.50,0.45 Q 6.92,0.15 6.29,-0.01 Q 5.67,-0.16 4.98,-0.16 Q 2.94,-0.16 1.75,0.98 Q 0.56,2.12 0.56,4.07 Q 0.56,6.03 1.75,7.17 Q 2.94,8.31 4.98,8.31 Q 5.67,8.31 6.29,8.16 Q 6.92,8.01 7.50,7.71 L 7.50,6.02 Q 6.92,6.42 6.35,6.60 Q 5.78,6.79 5.15,6.79 Q 4.02,6.79 3.38,6.06 Q 2.74,5.34 2.74,4.07 Q 2.74,2.81 3.38,2.09 Q 4.02,1.37 5.15,1.37 Q 5.78,1.37 6.35,1.55 Q 6.92,1.74 7.50,2.14 L 7.50,0.45 Z" fill="#f0883e"/></g>
<g transform="translate(74.55,127.57) scale(1,-1)"><path d="M 0.48,0.32 L 1.10,0.32 L 1.10,2.46 L 0.42,2.33 L 0.42,2.67 L 1.09,2.81 L 1.47,2.81 L 1.47,0.32 L 2.09,0.32 L 2.09,0.00 L 0.48,0.00 L 0.48,0.32 Z" fill="#8b949e"/></g>
<rect x="102.2" y="91.4" width="37.8" height="27.1" rx="1.5" fill="#0d1117" stroke="#21262d" stroke-width="0.7"/>
<g transform="translate(117.59,114.90) scale(1,-1)"><path d="M 1.19,8.17 L 6.42,8.17 L 6.42,6.62 L 2.87,6.62 L 2.87,5.35 Q 3.11,5.42 3.35,5.45 Q 3.59,5.49 3.86,5.49 Q 5.35,5.49 6.18,4.74 Q 7.01,4.00 7.01,2.66 Q 7.01,1.34 6.11,0.59 Q 5.20,-0.16 3.59,-0.16 Q 2.90,-0.16 2.22,-0.02 Q 1.54,0.11 0.86,0.38 L 0.86,2.04 Q 1.53,1.66 2.13,1.46 Q 2.73,1.27 3.26,1.27 Q 4.02,1.27 4.46,1.65 Q 4.91,2.02 4.91,2.66 Q 4.91,3.31 4.46,3.68 Q 4.02,4.05 3.26,4.05 Q 2.81,4.05 2.29,3.93 Q 1.78,3.82 1.19,3.57 L 1.19,8.17 Z" fill="#f0883e"/></g>
<g transform="translate(120.07,127.57) scale(1,-1)"><path d="M 0.74,0.32 L 2.06,0.32 L 2.06,0.00 L 0.28,0.00 L 0.28,0.32 Q 0.50,0.54 0.87,0.92 Q 1.24,1.30 1.34,1.41 Q 1.52,1.61 1.59,1.75 Q 1.67,1.89 1.67,2.03 Q 1.67,2.26 1.51,2.40 Q 1.35,2.54 1.10,2.54 Q 0.92,2.54 0.72,2.48 Q 0.53,2.41 0.30,2.29 L 0.30,2.67 Q 0.53,2.76 0.73,2.81 Q 0.93,2.86 1.09,2.86 Q 1.53,2.86 1.79,2.64 Q 2.05,2.42 2.05,2.06 Q 2.05,1.88 1.98,1.73 Q 1.92,1.57 1.75,1.36 Q 1.70,1.31 1.45,1.05 Q 1.20,0.79 0.74,0.32 Z" fill="#8b949e"/></g>
<rect x="147.0" y="91.4" width="37.8" height="27.1" rx="1.5" fill="#0d1117" stroke="#21262d" stroke-width="0.7"/>
<g transform="translate(161.72,114.90) scale(1,-1)"><path d="M 8.37,0.61 Q 7.58,0.22 6.73,0.03 Q 5.89,-0.16 4.98,-0.16 Q 2.94,-0.16 1.75,0.98 Q 0.56,2.12 0.56,4.07 Q 0.56,6.05 1.77,7.18 Q 2.99,8.31 5.10,8.31 Q 5.91,8.31 6.66,8.16 Q 7.40,8.01 8.07,7.71 L 8.07,6.02 Q 7.38,6.40 6.71,6.59 Q 6.03,6.79 5.35,6.79 Q 4.10,6.79 3.42,6.08 Q 2.74,5.38 2.74,4.07 Q 2.74,2.78 3.39,2.07 Q 4.05,1.37 5.26,1.37 Q 5.58,1.37 5.87,1.41 Q 6.15,1.45 6.37,1.54 L 6.37,3.12 L 5.09,3.12 L 5.09,4.53 L 8.37,4.53 L 8.37,0.61 Z" fill="#f0883e"/></g>
<g transform="translate(164.83,127.57) scale(1,-1)"><path d="M 1.56,1.51 Q 1.83,1.46 1.99,1.27 Q 2.14,1.09 2.14,0.82 Q 2.14,0.40 1.86,0.17 Q 1.57,-0.05 1.04,-0.05 Q 0.87,-0.05 0.68,-0.02 Q 0.49,0.02 0.29,0.08 L 0.29,0.45 Q 0.45,0.36 0.64,0.31 Q 0.83,0.27 1.03,0.27 Q 1.39,0.27 1.58,0.41 Q 1.76,0.55 1.76,0.82 Q 1.76,1.06 1.59,1.20 Q 1.42,1.34 1.11,1.34 L 0.78,1.34 L 0.78,1.66 L 1.12,1.66 Q 1.40,1.66 1.55,1.77 Q 1.70,1.88 1.70,2.09 Q 1.70,2.31 1.54,2.42 Q 1.39,2.54 1.11,2.54 Q 0.95,2.54 0.77,2.50 Q 0.59,2.47 0.38,2.40 L 0.38,2.74 Q 0.59,2.80 0.78,2.83 Q 0.97,2.86 1.14,2.86 Q 1.57,2.86 1.82,2.66 Q 2.08,2.46 2.08,2.13 Q 2.08,1.90 1.94,1.74 Q 1.81,1.58 1.56,1.51 Z" fill="#8b949e"/></g>
<rect x="192.5" y="91.4" width="37.8" height="27.1" rx="1.5" fill="#0d1117" stroke="#21262d" stroke-width="0.7"/>
<g transform="translate(207.95,114.90) scale(1,-1)"><path d="M 0.75,8.17 L 6.90,8.17 L 6.90,6.98 L 3.72,0.00 L 1.67,0.00 L 4.68,6.62 L 0.75,6.62 L 0.75,8.17 Z" fill="#f0883e"/></g>
<g transform="translate(210.28,127.57) scale(1,-1)"><path d="M 1.46,2.48 L 0.50,0.98 L 1.46,0.98 L 1.46,2.48 Z M 1.36,2.81 L 1.83,2.81 L 1.83,0.98 L 2.23,0.98 L 2.23,0.66 L 1.83,0.66 L 1.83,0.00 L 1.46,0.00 L 1.46,0.66 L 0.19,0.66 L 0.19,1.03 L 1.36,2.81 Z" fill="#8b949e"/></g>
<rect x="237.3" y="91.4" width="37.8" height="27.1" rx="1.5" fill="#0d1117" stroke="#21262d" stroke-width="0.7"/>
<g transform="translate(251.89,114.90) scale(1,-1)"><path d="M 5.98,1.49 L 2.69,1.49 L 2.17,0.00 L 0.05,0.00 L 3.08,8.17 L 5.59,8.17 L 8.61,0.00 L 6.50,0.00 L 5.98,1.49 Z M 3.22,3.00 L 5.45,3.00 L 4.34,6.25 L 3.22,3.00 Z" fill="#f0883e"/></g>
<g transform="translate(255.14,127.57) scale(1,-1)"><path d="M 0.42,2.81 L 1.91,2.81 L 1.91,2.49 L 0.76,2.49 L 0.76,1.80 Q 0.85,1.83 0.93,1.84 Q 1.01,1.86 1.09,1.86 Q 1.56,1.86 1.84,1.60 Q 2.11,1.34 2.11,0.90 Q 2.11,0.45 1.83,0.20 Q 1.55,-0.05 1.04,-0.05 Q 0.86,-0.05 0.68,-0.02 Q 0.49,0.01 0.30,0.07 L 0.30,0.45 Q 0.47,0.36 0.65,0.31 Q 0.83,0.27 1.03,0.27 Q 1.35,0.27 1.54,0.44 Q 1.73,0.61 1.73,0.90 Q 1.73,1.19 1.54,1.36 Q 1.35,1.54 1.03,1.54 Q 0.88,1.54 0.72,1.50 Q 0.57,1.47 0.42,1.40 L 0.42,2.81 Z" fill="#8b949e"/></g>
<rect x="282.8" y="91.4" width="37.8" height="27.1" rx="1.5" fill="#0d1117" stroke="#21262d" stroke-width="0.7"/>
<g transform="translate(297.94,114.90) scale(1,-1)"><path d="M 4.20,1.26 Q 4.83,1.26 5.16,1.72 Q 5.49,2.18 5.49,3.06 Q 5.49,3.93 5.16,4.39 Q 4.83,4.85 4.20,4.85 Q 3.57,4.85 3.23,4.39 Q 2.90,3.93 2.90,3.06 Q 2.90,2.19 3.23,1.73 Q 3.57,1.26 4.20,1.26 Z M 2.90,5.23 Q 3.30,5.76 3.80,6.02 Q 4.29,6.27 4.93,6.27 Q 6.06,6.27 6.79,5.37 Q 7.51,4.47 7.51,3.06 Q 7.51,1.64 6.79,0.74 Q 6.06,-0.16 4.93,-0.16 Q 4.29,-0.16 3.80,0.09 Q 3.30,0.35 2.90,0.89 L 2.90,0.00 L 0.94,0.00 L 0.94,8.51 L 2.90,8.51 L 2.90,5.23 Z" fill="#f0883e"/></g>
<g transform="translate(300.60,127.57) scale(1,-1)"><path d="M 1.27,1.55 Q 1.02,1.55 0.87,1.38 Q 0.72,1.20 0.72,0.90 Q 0.72,0.60 0.87,0.42 Q 1.02,0.25 1.27,0.25 Q 1.53,0.25 1.68,0.42 Q 1.83,0.60 1.83,0.90 Q 1.83,1.20 1.68,1.38 Q 1.53,1.55 1.27,1.55 Z M 2.02,2.74 L 2.02,2.40 Q 1.88,2.47 1.74,2.50 Q 1.59,2.54 1.45,2.54 Q 1.07,2.54 0.87,2.28 Q 0.67,2.03 0.65,1.52 Q 0.76,1.68 0.92,1.77 Q 1.09,1.86 1.29,1.86 Q 1.72,1.86 1.96,1.60 Q 2.21,1.34 2.21,0.90 Q 2.21,0.47 1.95,0.21 Q 1.70,-0.05 1.27,-0.05 Q 0.78,-0.05 0.53,0.32 Q 0.27,0.69 0.27,1.40 Q 0.27,2.07 0.58,2.46 Q 0.90,2.86 1.43,2.86 Q 1.58,2.86 1.72,2.83 Q 1.87,2.80 2.02,2.74 Z" fill="#8b949e"/></g>
<rect x="327.6" y="91.4" width="37.8" height="27.1" rx="1.5" fill="#0d1117" stroke="#21262d" stroke-width="0.7"/>
<g transform="translate(342.96,114.90) scale(1,-1)"><path d="M 5.11,5.23 L 5.11,8.51 L 7.08,8.51 L 7.08,0.00 L 5.11,0.00 L 5.11,0.89 Q 4.70,0.34 4.22,0.09 Q 3.73,-0.16 3.09,-0.16 Q 1.96,-0.16 1.23,0.74 Q 0.50,1.64 0.50,3.06 Q 0.50,4.47 1.23,5.37 Q 1.96,6.27 3.09,6.27 Q 3.72,6.27 4.21,6.02 Q 4.70,5.76 5.11,5.23 Z M 3.82,1.26 Q 4.45,1.26 4.78,1.72 Q 5.11,2.18 5.11,3.06 Q 5.11,3.93 4.78,4.39 Q 4.45,4.85 3.82,4.85 Q 3.19,4.85 2.86,4.39 Q 2.53,3.93 2.53,3.06 Q 2.53,2.18 2.86,1.72 Q 3.19,1.26 3.82,1.26 Z" fill="#f0883e"/></g>
<g transform="translate(345.44,127.57) scale(1,-1)"><path d="M 0.32,2.81 L 2.12,2.81 L 2.12,2.65 L 1.10,0.00 L 0.71,0.00 L 1.66,2.49 L 0.32,2.49 L 0.32,2.81 Z" fill="#8b949e"/></g>
<rect x="373.1" y="91.4" width="37.8" height="27.1" rx="1.5" fill="#0d1117" stroke="#21262d" stroke-width="0.7"/>
<g transform="translate(388.58,114.90) scale(1,-1)"><path d="M 1.03,8.17 L 6.71,8.17 L 6.71,6.57 L 3.13,6.57 L 3.13,5.05 L 6.50,5.05 L 6.50,3.46 L 3.13,3.46 L 3.13,1.59 L 6.83,1.59 L 6.83,0.00 L 1.03,0.00 L 1.03,8.17 Z" fill="#f0883e"/></g>
<g transform="translate(390.91,127.57) scale(1,-1)"><path d="M 1.22,1.33 Q 0.95,1.33 0.80,1.19 Q 0.64,1.04 0.64,0.79 Q 0.64,0.54 0.80,0.39 Q 0.95,0.25 1.22,0.25 Q 1.49,0.25 1.65,0.39 Q 1.81,0.54 1.81,0.79 Q 1.81,1.04 1.65,1.19 Q 1.50,1.33 1.22,1.33 Z M 0.84,1.49 Q 0.60,1.55 0.46,1.72 Q 0.33,1.89 0.33,2.13 Q 0.33,2.47 0.57,2.66 Q 0.81,2.86 1.22,2.86 Q 1.64,2.86 1.88,2.66 Q 2.12,2.47 2.12,2.13 Q 2.12,1.89 1.98,1.72 Q 1.85,1.55 1.61,1.49 Q 1.88,1.43 2.03,1.24 Q 2.19,1.06 2.19,0.79 Q 2.19,0.38 1.94,0.16 Q 1.69,-0.05 1.22,-0.05 Q 0.76,-0.05 0.51,0.16 Q 0.26,0.38 0.26,0.79 Q 0.26,1.06 0.42,1.24 Q 0.57,1.43 0.84,1.49 Z M 0.71,2.09 Q 0.71,1.88 0.84,1.75 Q 0.98,1.63 1.22,1.63 Q 1.47,1.63 1.61,1.75 Q 1.74,1.88 1.74,2.09 Q 1.74,2.31 1.61,2.43 Q 1.47,2.56 1.22,2.56 Q 0.98,2.56 0.84,2.43 Q 0.71,2.31 0.71,2.09 Z" fill="#8b949e"/></g>
<rect x="58.8" y="147.5" width="18.2" height="39.8" rx="2" fill="#21262d" stroke="#388bfd" stroke-width="1.3"/>
<rect x="62.3" y="148.4" width="11.2" height="10.9" rx="1.5" fill="#388bfd" stroke="none" stroke-width="0"/>
<g transform="translate(66.76,144.76) scale(1,-1)"><path d="M 0.96,0.00 L 0.03,2.45 L 0.37,2.45 L 1.15,0.39 L 1.93,2.45 L 2.27,2.45 L 1.34,0.00 L 0.96,0.00 Z" fill="#58a6ff"/></g>
<g transform="translate(66.29,176.43) scale(1,-1)"><path d="M 0.11,2.45 L 0.45,2.45 L 0.96,0.38 L 1.47,2.45 L 1.85,2.45 L 2.36,0.38 L 2.88,2.45 L 3.21,2.45 L 2.60,0.00 L 2.18,0.00 L 1.66,2.13 L 1.14,0.00 L 0.73,0.00 L 0.11,2.45 Z" fill="#484f58"/></g>
<g transform="translate(66.71,186.38) scale(1,-1)"><path d="M 0.66,2.18 L 0.66,0.27 L 1.06,0.27 Q 1.57,0.27 1.80,0.50 Q 2.04,0.73 2.04,1.23 Q 2.04,1.72 1.80,1.95 Q 1.57,2.18 1.06,2.18 L 0.66,2.18 Z M 0.33,2.45 L 1.01,2.45 Q 1.72,2.45 2.06,2.15 Q 2.39,1.86 2.39,1.23 Q 2.39,0.59 2.05,0.30 Q 1.72,0.00 1.01,0.00 L 0.33,0.00 L 0.33,2.45 Z" fill="#484f58"/></g>
<g transform="translate(62.67,195.43) scale(1,-1)"><path d="M 0.34,2.55 L 0.86,2.55 L 1.51,0.82 L 2.16,2.55 L 2.68,2.55 L 2.68,0.00 L 2.34,0.00 L 2.34,2.24 L 1.68,0.49 L 1.34,0.49 L 0.68,2.24 L 0.68,0.00 L 0.34,0.00 L 0.34,2.55 Z M 4.40,2.32 Q 4.02,2.32 3.80,2.04 Q 3.58,1.76 3.58,1.27 Q 3.58,0.79 3.80,0.51 Q 4.02,0.23 4.40,0.23 Q 4.77,0.23 4.99,0.51 Q 5.21,0.79 5.21,1.27 Q 5.21,1.76 4.99,2.04 Q 4.77,2.32 4.40,2.32 Z M 4.40,2.60 Q 4.94,2.60 5.26,2.24 Q 5.58,1.88 5.58,1.27 Q 5.58,0.67 5.26,0.31 Q 4.94,-0.05 4.40,-0.05 Q 3.86,-0.05 3.54,0.31 Q 3.22,0.67 3.22,1.27 Q 3.22,1.88 3.54,2.24 Q 3.86,2.60 4.40,2.60 Z M 6.46,2.27 L 6.46,0.28 L 6.88,0.28 Q 7.41,0.28 7.65,0.52 Q 7.90,0.76 7.90,1.28 Q 7.90,1.79 7.65,2.03 Q 7.41,2.27 6.88,2.27 L 6.46,2.27 Z M 6.12,2.55 L 6.83,2.55 Q 7.57,2.55 7.92,2.24 Q 8.26,1.93 8.26,1.28 Q 8.26,0.62 7.91,0.31 Q 7.57,0.00 6.83,0.00 L 6.12,0.00 L 6.12,2.55 Z M 8.81,2.55 L 10.43,2.55 L 10.43,2.26 L 9.16,2.26 L 9.16,1.51 L 10.37,1.51 L 10.37,1.22 L 9.16,1.22 L 9.16,0.29 L 10.46,0.29 L 10.46,0.00 L 8.81,0.00 L 8.81,2.55 Z" fill="#8b949e"/></g>
<rect x="95.2" y="144.8" width="29.4" height="18.1" rx="1.5" fill="#21262d" stroke="#30363d" stroke-width="1.0"/>
<g transform="translate(107.32,159.24) scale(1,-1)"><path d="M 0.38,2.81 L 1.99,2.81 L 1.99,2.49 L 0.76,2.49 L 0.76,1.66 L 1.87,1.66 L 1.87,1.34 L 0.76,1.34 L 0.76,0.00 L 0.38,0.00 L 0.38,2.81 Z M 2.59,2.81 L 3.16,2.81 L 3.87,0.90 L 4.59,2.81 L 5.16,2.81 L 5.16,0.00 L 4.79,0.00 L 4.79,2.46 L 4.07,0.54 L 3.68,0.54 L 2.96,2.46 L 2.96,0.00 L 2.59,0.00 L 2.59,2.81 Z" fill="#e6edf3"/></g>
<rect x="130.2" y="144.8" width="29.4" height="18.1" rx="1.5" fill="#21262d" stroke="#30363d" stroke-width="1.0"/>
<g transform="translate(138.74,159.24) scale(1,-1)"><path d="M 0.76,2.49 L 0.76,0.31 L 1.22,0.31 Q 1.80,0.31 2.07,0.58 Q 2.34,0.84 2.34,1.41 Q 2.34,1.97 2.07,2.23 Q 1.80,2.49 1.22,2.49 L 0.76,2.49 Z M 0.38,2.81 L 1.16,2.81 Q 1.97,2.81 2.36,2.47 Q 2.74,2.13 2.74,1.41 Q 2.74,0.68 2.35,0.34 Q 1.97,0.00 1.16,0.00 L 0.38,0.00 L 0.38,2.81 Z M 3.34,2.81 L 5.12,2.81 L 5.12,2.49 L 3.72,2.49 L 3.72,1.66 L 5.06,1.66 L 5.06,1.34 L 3.72,1.34 L 3.72,0.32 L 5.15,0.32 L 5.15,0.00 L 3.34,0.00 L 3.34,2.81 Z M 5.77,2.81 L 6.15,2.81 L 6.15,0.32 L 7.52,0.32 L 7.52,0.00 L 5.77,0.00 L 5.77,2.81 Z M 8.94,2.43 L 8.43,1.04 L 9.46,1.04 L 8.94,2.43 Z M 8.73,2.81 L 9.16,2.81 L 10.23,0.00 L 9.84,0.00 L 9.58,0.72 L 8.32,0.72 L 8.06,0.00 L 7.66,0.00 L 8.73,2.81 Z M 9.96,2.81 L 10.36,2.81 L 11.14,1.65 L 11.92,2.81 L 12.32,2.81 L 11.33,1.34 L 11.33,0.00 L 10.95,0.00 L 10.95,1.34 L 9.96,2.81 Z" fill="#e6edf3"/></g>
<rect x="95.2" y="170.1" width="29.4" height="18.1" rx="1.5" fill="#21262d" stroke="#30363d" stroke-width="1.0"/>
<g transform="translate(102.29,184.57) scale(1,-1)"><path d="M 1.71,1.32 Q 1.83,1.27 1.95,1.14 Q 2.06,1.00 2.18,0.77 L 2.56,0.00 L 2.16,0.00 L 1.80,0.72 Q 1.66,1.00 1.53,1.09 Q 1.40,1.19 1.17,1.19 L 0.76,1.19 L 0.76,0.00 L 0.38,0.00 L 0.38,2.81 L 1.24,2.81 Q 1.72,2.81 1.95,2.61 Q 2.19,2.40 2.19,2.00 Q 2.19,1.73 2.07,1.56 Q 1.94,1.38 1.71,1.32 Z M 0.76,2.49 L 0.76,1.50 L 1.24,1.50 Q 1.51,1.50 1.65,1.63 Q 1.79,1.75 1.79,2.00 Q 1.79,2.24 1.65,2.37 Q 1.51,2.49 1.24,2.49 L 0.76,2.49 Z M 3.05,2.81 L 4.83,2.81 L 4.83,2.49 L 3.43,2.49 L 3.43,1.66 L 4.77,1.66 L 4.77,1.34 L 3.43,1.34 L 3.43,0.32 L 4.86,0.32 L 4.86,0.00 L 3.05,0.00 L 3.05,2.81 Z M 6.21,0.00 L 5.14,2.81 L 5.53,2.81 L 6.42,0.44 L 7.31,2.81 L 7.71,2.81 L 6.64,0.00 L 6.21,0.00 Z M 8.12,2.81 L 9.89,2.81 L 9.89,2.49 L 8.50,2.49 L 8.50,1.66 L 9.84,1.66 L 9.84,1.34 L 8.50,1.34 L 8.50,0.32 L 9.93,0.32 L 9.93,0.00 L 8.12,0.00 L 8.12,2.81 Z M 11.88,1.32 Q 12.01,1.27 12.12,1.14 Q 12.24,1.00 12.35,0.77 L 12.74,0.00 L 12.33,0.00 L 11.97,0.72 Q 11.83,1.00 11.70,1.09 Q 11.57,1.19 11.35,1.19 L 10.93,1.19 L 10.93,0.00 L 10.55,0.00 L 10.55,2.81 L 11.41,2.81 Q 11.89,2.81 12.13,2.61 Q 12.36,2.40 12.36,2.00 Q 12.36,1.73 12.24,1.56 Q 12.12,1.38 11.88,1.32 Z M 10.93,2.49 L 10.93,1.50 L 11.41,1.50 Q 11.68,1.50 11.82,1.63 Q 11.96,1.75 11.96,2.00 Q 11.96,2.24 11.82,2.37 Q 11.68,2.49 11.41,2.49 L 10.93,2.49 Z M 13.61,1.34 L 13.61,0.31 L 14.22,0.31 Q 14.52,0.31 14.67,0.44 Q 14.82,0.57 14.82,0.83 Q 14.82,1.09 14.67,1.22 Q 14.52,1.34 14.22,1.34 L 13.61,1.34 Z M 13.61,2.49 L 13.61,1.65 L 14.17,1.65 Q 14.45,1.65 14.58,1.75 Q 14.72,1.86 14.72,2.07 Q 14.72,2.28 14.58,2.39 Q 14.45,2.49 14.17,2.49 L 13.61,2.49 Z M 13.23,2.81 L 14.20,2.81 Q 14.63,2.81 14.87,2.63 Q 15.10,2.45 15.10,2.11 Q 15.10,1.86 14.98,1.70 Q 14.86,1.55 14.63,1.51 Q 14.91,1.45 15.06,1.26 Q 15.22,1.07 15.22,0.79 Q 15.22,0.41 14.96,0.20 Q 14.71,0.00 14.23,0.00 L 13.23,0.00 L 13.23,2.81 Z" fill="#e6edf3"/></g>
<rect x="130.2" y="170.1" width="29.4" height="18.1" rx="1.5" fill="#1c3454" stroke="#388bfd" stroke-width="1.3"/>
<g transform="translate(138.74,184.57) scale(1,-1)"><path d="M 0.38,2.81 L 1.99,2.81 L 1.99,2.49 L 0.76,2.49 L 0.76,1.66 L 1.87,1.66 L 1.87,1.34 L 0.76,1.34 L 0.76,0.00 L 0.38,0.00 L 0.38,2.81 Z M 2.59,2.81 L 2.97,2.81 L 2.97,0.00 L 2.59,0.00 L 2.59,2.81 Z M 3.73,2.81 L 4.11,2.81 L 4.11,0.32 L 5.47,0.32 L 5.47,0.00 L 3.73,0.00 L 3.73,2.81 Z M 4.95,2.81 L 7.33,2.81 L 7.33,2.49 L 6.33,2.49 L 6.33,0.00 L 5.95,0.00 L 5.95,2.49 L 4.95,2.49 L 4.95,2.81 Z M 7.70,2.81 L 9.47,2.81 L 9.47,2.49 L 8.07,2.49 L 8.07,1.66 L 9.41,1.66 L 9.41,1.34 L 8.07,1.34 L 8.07,0.32 L 9.50,0.32 L 9.50,0.00 L 7.70,0.00 L 7.70,2.81 Z M 11.46,1.32 Q 11.58,1.27 11.70,1.14 Q 11.81,1.00 11.93,0.77 L 12.31,0.00 L 11.91,0.00 L 11.55,0.72 Q 11.41,1.00 11.28,1.09 Q 11.15,1.19 10.92,1.19 L 10.51,1.19 L 10.51,0.00 L 10.13,0.00 L 10.13,2.81 L 10.98,2.81 Q 11.47,2.81 11.70,2.61 Q 11.94,2.40 11.94,2.00 Q 11.94,1.73 11.82,1.56 Q 11.69,1.38 11.46,1.32 Z M 10.51,2.49 L 10.51,1.50 L 10.98,1.50 Q 11.26,1.50 11.40,1.63 Q 11.54,1.75 11.54,2.00 Q 11.54,2.24 11.40,2.37 Q 11.26,2.49 10.98,2.49 L 10.51,2.49 Z" fill="#58a6ff"/></g>
<circle cx="189.7" cy="167.4" r="11.9" fill="#21262d" stroke="#8b949e" stroke-width="1.3"/>
<line x1="186.43" y1="161.71" x2="184.23" y2="157.90" stroke="#e6edf3" stroke-width="1.2" stroke-linecap="round"/>
<g transform="translate(185.43,190.90) scale(1,-1)"><path d="M 1.55,1.20 Q 1.66,1.16 1.77,1.04 Q 1.87,0.91 1.98,0.70 L 2.33,0.00 L 1.96,0.00 L 1.63,0.65 Q 1.51,0.91 1.39,0.99 Q 1.27,1.08 1.06,1.08 L 0.69,1.08 L 0.69,0.00 L 0.34,0.00 L 0.34,2.55 L 1.12,2.55 Q 1.56,2.55 1.78,2.37 Q 1.99,2.19 1.99,1.82 Q 1.99,1.58 1.88,1.42 Q 1.77,1.26 1.55,1.20 Z M 0.69,2.27 L 0.69,1.36 L 1.12,1.36 Q 1.37,1.36 1.50,1.48 Q 1.63,1.59 1.63,1.82 Q 1.63,2.04 1.50,2.15 Q 1.37,2.27 1.12,2.27 L 0.69,2.27 Z M 3.49,2.21 L 3.02,0.94 L 3.96,0.94 L 3.49,2.21 Z M 3.29,2.55 L 3.68,2.55 L 4.66,0.00 L 4.30,0.00 L 4.07,0.65 L 2.92,0.65 L 2.68,0.00 L 2.32,0.00 L 3.29,2.55 Z M 4.40,2.55 L 6.56,2.55 L 6.56,2.26 L 5.66,2.26 L 5.66,0.00 L 5.31,0.00 L 5.31,2.26 L 4.40,2.26 L 4.40,2.55 Z M 6.90,2.55 L 8.51,2.55 L 8.51,2.26 L 7.24,2.26 L 7.24,1.51 L 8.46,1.51 L 8.46,1.22 L 7.24,1.22 L 7.24,0.29 L 8.54,0.29 L 8.54,0.00 L 6.90,0.00 L 6.90,2.55 Z" fill="#8b949e"/></g>
<circle cx="231.0" cy="167.4" r="11.9" fill="#21262d" stroke="#8b949e" stroke-width="1.3"/>
<line x1="231.00" y1="160.84" x2="231.00" y2="156.43" stroke="#e6edf3" stroke-width="1.2" stroke-linecap="round"/>
<g transform="translate(223.47,190.90) scale(1,-1)"><path d="M 0.69,2.27 L 0.69,0.28 L 1.11,0.28 Q 1.63,0.28 1.88,0.52 Q 2.12,0.76 2.12,1.28 Q 2.12,1.79 1.88,2.03 Q 1.63,2.27 1.11,2.27 L 0.69,2.27 Z M 0.34,2.55 L 1.05,2.55 Q 1.79,2.55 2.14,2.24 Q 2.49,1.93 2.49,1.28 Q 2.49,0.62 2.14,0.31 Q 1.79,0.00 1.05,0.00 L 0.34,0.00 L 0.34,2.55 Z M 3.04,2.55 L 4.65,2.55 L 4.65,2.26 L 3.38,2.26 L 3.38,1.51 L 4.60,1.51 L 4.60,1.22 L 3.38,1.22 L 3.38,0.29 L 4.68,0.29 L 4.68,0.00 L 3.04,0.00 L 3.04,2.55 Z M 5.25,2.55 L 5.71,2.55 L 6.85,0.42 L 6.85,2.55 L 7.18,2.55 L 7.18,0.00 L 6.72,0.00 L 5.59,2.13 L 5.59,0.00 L 5.25,0.00 L 5.25,2.55 Z M 9.40,2.47 L 9.40,2.13 Q 9.20,2.23 9.03,2.27 Q 8.85,2.32 8.69,2.32 Q 8.41,2.32 8.26,2.21 Q 8.10,2.10 8.10,1.90 Q 8.10,1.73 8.20,1.64 Q 8.31,1.56 8.59,1.50 L 8.80,1.46 Q 9.18,1.39 9.37,1.20 Q 9.55,1.02 9.55,0.70 Q 9.55,0.33 9.30,0.14 Q 9.05,-0.05 8.57,-0.05 Q 8.39,-0.05 8.19,-0.01 Q 7.98,0.03 7.77,0.11 L 7.77,0.47 Q 7.98,0.35 8.18,0.29 Q 8.38,0.23 8.57,0.23 Q 8.87,0.23 9.03,0.35 Q 9.19,0.46 9.19,0.68 Q 9.19,0.87 9.08,0.97 Q 8.96,1.08 8.70,1.13 L 8.49,1.17 Q 8.10,1.25 7.93,1.41 Q 7.76,1.58 7.76,1.87 Q 7.76,2.21 7.99,2.40 Q 8.23,2.60 8.65,2.60 Q 8.83,2.60 9.02,2.56 Q 9.20,2.53 9.40,2.47 Z M 10.09,2.55 L 10.43,2.55 L 10.43,0.00 L 10.09,0.00 L 10.09,2.55 Z M 10.77,2.55 L 12.93,2.55 L 12.93,2.26 L 12.02,2.26 L 12.02,0.00 L 11.67,0.00 L 11.67,2.26 L 10.77,2.26 L 10.77,2.55 Z M 12.91,2.55 L 13.28,2.55 L 13.99,1.50 L 14.69,2.55 L 15.06,2.55 L 14.16,1.22 L 14.16,0.00 L 13.81,0.00 L 13.81,1.22 L 12.91,2.55 Z" fill="#8b949e"/></g>
<circle cx="272.3" cy="167.4" r="11.9" fill="#21262d" stroke="#8b949e" stroke-width="1.3"/>
<line x1="274.54" y1="161.23" x2="276.04" y2="157.09" stroke="#e6edf3" stroke-width="1.2" stroke-linecap="round"/>
<g transform="translate(265.79,190.90) scale(1,-1)"><path d="M -0.01,2.55 L 2.15,2.55 L 2.15,2.26 L 1.24,2.26 L 1.24,0.00 L 0.90,0.00 L 0.90,2.26 L -0.01,2.26 L -0.01,2.55 Z M 2.48,2.55 L 2.83,2.55 L 2.83,0.00 L 2.48,0.00 L 2.48,2.55 Z M 3.51,2.55 L 4.03,2.55 L 4.68,0.82 L 5.33,2.55 L 5.85,2.55 L 5.85,0.00 L 5.51,0.00 L 5.51,2.24 L 4.85,0.49 L 4.51,0.49 L 3.85,2.24 L 3.85,0.00 L 3.51,0.00 L 3.51,2.55 Z M 6.88,1.22 L 6.88,0.28 L 7.43,0.28 Q 7.71,0.28 7.84,0.40 Q 7.98,0.51 7.98,0.75 Q 7.98,0.99 7.84,1.10 Q 7.71,1.22 7.43,1.22 L 6.88,1.22 Z M 6.88,2.27 L 6.88,1.50 L 7.39,1.50 Q 7.64,1.50 7.77,1.59 Q 7.89,1.69 7.89,1.88 Q 7.89,2.08 7.77,2.17 Q 7.64,2.27 7.39,2.27 L 6.88,2.27 Z M 6.53,2.55 L 7.42,2.55 Q 7.81,2.55 8.02,2.39 Q 8.24,2.22 8.24,1.92 Q 8.24,1.69 8.13,1.55 Q 8.02,1.41 7.81,1.38 Q 8.06,1.32 8.20,1.15 Q 8.34,0.97 8.34,0.71 Q 8.34,0.37 8.11,0.19 Q 7.88,0.00 7.45,0.00 L 6.53,0.00 L 6.53,2.55 Z M 10.14,1.20 Q 10.26,1.16 10.36,1.04 Q 10.47,0.91 10.57,0.70 L 10.92,0.00 L 10.55,0.00 L 10.23,0.65 Q 10.10,0.91 9.98,0.99 Q 9.86,1.08 9.66,1.08 L 9.28,1.08 L 9.28,0.00 L 8.93,0.00 L 8.93,2.55 L 9.71,2.55 Q 10.15,2.55 10.37,2.37 Q 10.58,2.19 10.58,1.82 Q 10.58,1.58 10.47,1.42 Q 10.36,1.26 10.14,1.20 Z M 9.28,2.27 L 9.28,1.36 L 9.71,1.36 Q 9.96,1.36 10.09,1.48 Q 10.22,1.59 10.22,1.82 Q 10.22,2.04 10.09,2.15 Q 9.96,2.27 9.71,2.27 L 9.28,2.27 Z M 11.37,2.55 L 12.98,2.55 L 12.98,2.26 L 11.71,2.26 L 11.71,1.51 L 12.93,1.51 L 12.93,1.22 L 11.71,1.22 L 11.71,0.29 L 13.01,0.29 L 13.01,0.00 L 11.37,0.00 L 11.37,2.55 Z" fill="#8b949e"/></g>
<circle cx="313.6" cy="167.4" r="11.9" fill="#21262d" stroke="#8b949e" stroke-width="1.3"/>
<line x1="313.60" y1="160.84" x2="313.60" y2="156.43" stroke="#e6edf3" stroke-width="1.2" stroke-linecap="round"/>
<g transform="translate(305.69,190.90) scale(1,-1)"><path d="M -0.01,2.55 L 2.15,2.55 L 2.15,2.26 L 1.24,2.26 L 1.24,0.00 L 0.90,0.00 L 0.90,2.26 L -0.01,2.26 L -0.01,2.55 Z M 2.48,2.55 L 4.09,2.55 L 4.09,2.26 L 2.83,2.26 L 2.83,1.51 L 4.04,1.51 L 4.04,1.22 L 2.83,1.22 L 2.83,0.29 L 4.13,0.29 L 4.13,0.00 L 2.48,0.00 L 2.48,2.55 Z M 4.57,2.55 L 4.94,2.55 L 5.57,1.60 L 6.21,2.55 L 6.58,2.55 L 5.76,1.33 L 6.64,0.00 L 6.27,0.00 L 5.55,1.09 L 4.83,0.00 L 4.45,0.00 L 5.36,1.36 L 4.57,2.55 Z M 6.68,2.55 L 8.83,2.55 L 8.83,2.26 L 7.93,2.26 L 7.93,0.00 L 7.58,0.00 L 7.58,2.26 L 6.68,2.26 L 6.68,2.55 Z M 9.13,2.55 L 9.48,2.55 L 9.48,1.00 Q 9.48,0.59 9.62,0.41 Q 9.77,0.23 10.11,0.23 Q 10.44,0.23 10.59,0.41 Q 10.73,0.59 10.73,1.00 L 10.73,2.55 L 11.08,2.55 L 11.08,0.96 Q 11.08,0.46 10.83,0.21 Q 10.59,-0.05 10.11,-0.05 Q 9.62,-0.05 9.37,0.21 Q 9.13,0.46 9.13,0.96 L 9.13,2.55 Z M 12.94,1.20 Q 13.05,1.16 13.16,1.04 Q 13.26,0.91 13.37,0.70 L 13.72,0.00 L 13.35,0.00 L 13.02,0.65 Q 12.89,0.91 12.77,0.99 Q 12.66,1.08 12.45,1.08 L 12.07,1.08 L 12.07,0.00 L 11.73,0.00 L 11.73,2.55 L 12.51,2.55 Q 12.95,2.55 13.16,2.37 Q 13.38,2.19 13.38,1.82 Q 13.38,1.58 13.26,1.42 Q 13.15,1.26 12.94,1.20 Z M 12.07,2.27 L 12.07,1.36 L 12.51,1.36 Q 12.76,1.36 12.89,1.48 Q 13.01,1.59 13.01,1.82 Q 13.01,2.04 12.89,2.15 Q 12.76,2.27 12.51,2.27 L 12.07,2.27 Z M 14.16,2.55 L 15.77,2.55 L 15.77,2.26 L 14.51,2.26 L 14.51,1.51 L 15.72,1.51 L 15.72,1.22 L 14.51,1.22 L 14.51,0.29 L 15.80,0.29 L 15.80,0.00 L 14.16,0.00 L 14.16,2.55 Z" fill="#8b949e"/></g>
<circle cx="354.9" cy="167.4" r="11.9" fill="#21262d" stroke="#8b949e" stroke-width="1.3"/>
<line x1="357.67" y1="161.45" x2="359.53" y2="157.46" stroke="#e6edf3" stroke-width="1.2" stroke-linecap="round"/>
<g transform="translate(347.97,190.90) scale(1,-1)"><path d="M 1.87,2.47 L 1.87,2.13 Q 1.68,2.23 1.50,2.27 Q 1.33,2.32 1.17,2.32 Q 0.88,2.32 0.73,2.21 Q 0.58,2.10 0.58,1.90 Q 0.58,1.73 0.68,1.64 Q 0.78,1.56 1.06,1.50 L 1.27,1.46 Q 1.66,1.39 1.84,1.20 Q 2.03,1.02 2.03,0.70 Q 2.03,0.33 1.78,0.14 Q 1.53,-0.05 1.05,-0.05 Q 0.87,-0.05 0.66,-0.01 Q 0.46,0.03 0.24,0.11 L 0.24,0.47 Q 0.45,0.35 0.65,0.29 Q 0.85,0.23 1.05,0.23 Q 1.34,0.23 1.51,0.35 Q 1.67,0.46 1.67,0.68 Q 1.67,0.87 1.55,0.97 Q 1.44,1.08 1.17,1.13 L 0.96,1.17 Q 0.58,1.25 0.40,1.41 Q 0.23,1.58 0.23,1.87 Q 0.23,2.21 0.47,2.40 Q 0.71,2.60 1.13,2.60 Q 1.31,2.60 1.49,2.56 Q 1.68,2.53 1.87,2.47 Z M 2.91,2.27 L 2.91,1.31 L 3.34,1.31 Q 3.59,1.31 3.72,1.43 Q 3.85,1.56 3.85,1.79 Q 3.85,2.02 3.72,2.14 Q 3.59,2.27 3.34,2.27 L 2.91,2.27 Z M 2.57,2.55 L 3.34,2.55 Q 3.77,2.55 3.99,2.36 Q 4.21,2.16 4.21,1.79 Q 4.21,1.41 3.99,1.22 Q 3.77,1.03 3.34,1.03 L 2.91,1.03 L 2.91,0.00 L 2.57,0.00 L 2.57,2.55 Z M 5.89,1.20 Q 6.00,1.16 6.10,1.04 Q 6.21,0.91 6.31,0.70 L 6.66,0.00 L 6.29,0.00 L 5.97,0.65 Q 5.84,0.91 5.72,0.99 Q 5.60,1.08 5.40,1.08 L 5.02,1.08 L 5.02,0.00 L 4.68,0.00 L 4.68,2.55 L 5.46,2.55 Q 5.89,2.55 6.11,2.37 Q 6.32,2.19 6.32,1.82 Q 6.32,1.58 6.21,1.42 Q 6.10,1.26 5.89,1.20 Z M 5.02,2.27 L 5.02,1.36 L 5.46,1.36 Q 5.70,1.36 5.83,1.48 Q 5.96,1.59 5.96,1.82 Q 5.96,2.04 5.83,2.15 Q 5.70,2.27 5.46,2.27 L 5.02,2.27 Z M 7.11,2.55 L 8.72,2.55 L 8.72,2.26 L 7.45,2.26 L 7.45,1.51 L 8.67,1.51 L 8.67,1.22 L 7.45,1.22 L 7.45,0.29 L 8.75,0.29 L 8.75,0.00 L 7.11,0.00 L 7.11,2.55 Z M 10.17,2.21 L 9.70,0.94 L 10.64,0.94 L 10.17,2.21 Z M 9.98,2.55 L 10.37,2.55 L 11.34,0.00 L 10.98,0.00 L 10.75,0.65 L 9.60,0.65 L 9.37,0.00 L 9.00,0.00 L 9.98,2.55 Z M 12.06,2.27 L 12.06,0.28 L 12.48,0.28 Q 13.00,0.28 13.25,0.52 Q 13.49,0.76 13.49,1.28 Q 13.49,1.79 13.25,2.03 Q 13.00,2.27 12.48,2.27 L 12.06,2.27 Z M 11.71,2.55 L 12.42,2.55 Q 13.16,2.55 13.51,2.24 Q 13.86,1.93 13.86,1.28 Q 13.86,0.62 13.51,0.31 Q 13.16,0.00 12.42,0.00 L 11.71,0.00 L 11.71,2.55 Z" fill="#8b949e"/></g>
<circle cx="396.2" cy="167.4" r="11.9" fill="#21262d" stroke="#8b949e" stroke-width="1.3"/>
<line x1="393.96" y1="161.23" x2="392.46" y2="157.09" stroke="#e6edf3" stroke-width="1.2" stroke-linecap="round"/>
<g transform="translate(387.11,190.90) scale(1,-1)"><path d="M 0.69,2.27 L 0.69,0.28 L 1.11,0.28 Q 1.63,0.28 1.88,0.52 Q 2.12,0.76 2.12,1.28 Q 2.12,1.79 1.88,2.03 Q 1.63,2.27 1.11,2.27 L 0.69,2.27 Z M 0.34,2.55 L 1.05,2.55 Q 1.79,2.55 2.14,2.24 Q 2.49,1.93 2.49,1.28 Q 2.49,0.62 2.14,0.31 Q 1.79,0.00 1.05,0.00 L 0.34,0.00 L 0.34,2.55 Z M 2.50,2.55 L 2.87,2.55 L 3.57,1.50 L 4.28,2.55 L 4.65,2.55 L 3.75,1.22 L 3.75,0.00 L 3.40,0.00 L 3.40,1.22 L 2.50,2.55 Z M 4.98,2.55 L 5.45,2.55 L 6.58,0.42 L 6.58,2.55 L 6.91,2.55 L 6.91,0.00 L 6.45,0.00 L 5.32,2.13 L 5.32,0.00 L 4.98,0.00 L 4.98,2.55 Z M 8.46,2.21 L 7.99,0.94 L 8.93,0.94 L 8.46,2.21 Z M 8.26,2.55 L 8.65,2.55 L 9.62,0.00 L 9.27,0.00 L 9.03,0.65 L 7.88,0.65 L 7.65,0.00 L 7.29,0.00 L 8.26,2.55 Z M 10.00,2.55 L 10.51,2.55 L 11.16,0.82 L 11.82,2.55 L 12.33,2.55 L 12.33,0.00 L 11.99,0.00 L 11.99,2.24 L 11.34,0.49 L 10.99,0.49 L 10.33,2.24 L 10.33,0.00 L 10.00,0.00 L 10.00,2.55 Z M 13.02,2.55 L 13.36,2.55 L 13.36,0.00 L 13.02,0.00 L 13.02,2.55 Z M 15.96,2.35 L 15.96,1.99 Q 15.78,2.15 15.59,2.23 Q 15.39,2.31 15.17,2.31 Q 14.73,2.31 14.50,2.05 Q 14.27,1.78 14.27,1.27 Q 14.27,0.77 14.50,0.50 Q 14.73,0.23 15.17,0.23 Q 15.39,0.23 15.59,0.31 Q 15.78,0.39 15.96,0.56 L 15.96,0.20 Q 15.78,0.07 15.58,0.01 Q 15.37,-0.05 15.15,-0.05 Q 14.57,-0.05 14.23,0.30 Q 13.90,0.66 13.90,1.27 Q 13.90,1.89 14.23,2.24 Q 14.57,2.60 15.15,2.60 Q 15.38,2.60 15.58,2.54 Q 15.78,2.48 15.96,2.35 Z M 18.02,2.47 L 18.02,2.13 Q 17.83,2.23 17.65,2.27 Q 17.48,2.32 17.31,2.32 Q 17.03,2.32 16.88,2.21 Q 16.73,2.10 16.73,1.90 Q 16.73,1.73 16.83,1.64 Q 16.93,1.56 17.21,1.50 L 17.42,1.46 Q 17.81,1.39 17.99,1.20 Q 18.18,1.02 18.18,0.70 Q 18.18,0.33 17.93,0.14 Q 17.68,-0.05 17.20,-0.05 Q 17.02,-0.05 16.81,-0.01 Q 16.61,0.03 16.39,0.11 L 16.39,0.47 Q 16.60,0.35 16.80,0.29 Q 17.00,0.23 17.20,0.23 Q 17.49,0.23 17.65,0.35 Q 17.82,0.46 17.82,0.68 Q 17.82,0.87 17.70,0.97 Q 17.58,1.08 17.32,1.13 L 17.11,1.17 Q 16.72,1.25 16.55,1.41 Q 16.38,1.58 16.38,1.87 Q 16.38,2.21 16.62,2.40 Q 16.86,2.60 17.27,2.60 Q 17.45,2.60 17.64,2.56 Q 17.83,2.53 18.02,2.47 Z" fill="#8b949e"/></g>
<rect x="67.2" y="208.1" width="8.4" height="47.0" rx="2" fill="#21262d" stroke="#30363d" stroke-width="0.8"/>
<rect x="65.1" y="224.4" width="12.6" height="6.3" rx="1.5" fill="#8b949e" stroke="none" stroke-width="0"/>
<g transform="translate(70.45,265.10) scale(1,-1)"><path d="M 0.43,0.29 L 1.00,0.29 L 1.00,2.24 L 0.38,2.11 L 0.38,2.43 L 0.99,2.55 L 1.34,2.55 L 1.34,0.29 L 1.90,0.29 L 1.90,0.00 L 0.43,0.00 L 0.43,0.29 Z" fill="#484f58"/></g>
<rect x="103.6" y="208.1" width="8.4" height="47.0" rx="2" fill="#21262d" stroke="#30363d" stroke-width="0.8"/>
<rect x="101.5" y="237.0" width="12.6" height="6.3" rx="1.5" fill="#8b949e" stroke="none" stroke-width="0"/>
<g transform="translate(106.86,265.10) scale(1,-1)"><path d="M 0.67,0.29 L 1.88,0.29 L 1.88,0.00 L 0.26,0.00 L 0.26,0.29 Q 0.45,0.49 0.79,0.84 Q 1.13,1.18 1.22,1.28 Q 1.38,1.46 1.45,1.59 Q 1.52,1.72 1.52,1.85 Q 1.52,2.05 1.37,2.18 Q 1.23,2.31 1.00,2.31 Q 0.84,2.31 0.66,2.25 Q 0.48,2.19 0.27,2.08 L 0.27,2.43 Q 0.48,2.51 0.66,2.56 Q 0.84,2.60 0.99,2.60 Q 1.39,2.60 1.63,2.40 Q 1.86,2.20 1.86,1.87 Q 1.86,1.71 1.80,1.57 Q 1.75,1.43 1.59,1.24 Q 1.55,1.19 1.32,0.95 Q 1.09,0.72 0.67,0.29 Z" fill="#484f58"/></g>
<rect x="139.3" y="208.1" width="8.4" height="47.0" rx="2" fill="#21262d" stroke="#30363d" stroke-width="0.8"/>
<rect x="137.2" y="215.3" width="12.6" height="6.3" rx="1.5" fill="#8b949e" stroke="none" stroke-width="0"/>
<g transform="translate(142.53,265.10) scale(1,-1)"><path d="M 1.42,1.38 Q 1.67,1.32 1.81,1.16 Q 1.95,0.99 1.95,0.74 Q 1.95,0.36 1.69,0.16 Q 1.43,-0.05 0.95,-0.05 Q 0.79,-0.05 0.62,-0.02 Q 0.45,0.01 0.27,0.08 L 0.27,0.41 Q 0.41,0.33 0.58,0.28 Q 0.75,0.24 0.94,0.24 Q 1.26,0.24 1.43,0.37 Q 1.60,0.50 1.60,0.74 Q 1.60,0.97 1.44,1.09 Q 1.29,1.22 1.01,1.22 L 0.71,1.22 L 0.71,1.51 L 1.02,1.51 Q 1.27,1.51 1.41,1.61 Q 1.54,1.71 1.54,1.90 Q 1.54,2.10 1.40,2.20 Q 1.26,2.31 1.01,2.31 Q 0.86,2.31 0.70,2.28 Q 0.54,2.25 0.34,2.18 L 0.34,2.49 Q 0.54,2.54 0.71,2.57 Q 0.88,2.60 1.04,2.60 Q 1.43,2.60 1.66,2.42 Q 1.89,2.24 1.89,1.94 Q 1.89,1.72 1.77,1.58 Q 1.64,1.43 1.42,1.38 Z" fill="#484f58"/></g>
<rect x="175.7" y="208.1" width="8.4" height="47.0" rx="2" fill="#21262d" stroke="#30363d" stroke-width="0.8"/>
<rect x="173.6" y="244.3" width="12.6" height="6.3" rx="1.5" fill="#8b949e" stroke="none" stroke-width="0"/>
<g transform="translate(178.88,265.10) scale(1,-1)"><path d="M 1.32,2.25 L 0.45,0.89 L 1.32,0.89 L 1.32,2.25 Z M 1.23,2.55 L 1.67,2.55 L 1.67,0.89 L 2.03,0.89 L 2.03,0.60 L 1.67,0.60 L 1.67,0.00 L 1.32,0.00 L 1.32,0.60 L 0.17,0.60 L 0.17,0.93 L 1.23,2.55 Z" fill="#484f58"/></g>
<rect x="284.2" y="208.1" width="8.4" height="47.0" rx="2" fill="#21262d" stroke="#30363d" stroke-width="0.8"/>
<rect x="282.1" y="229.8" width="12.6" height="6.3" rx="1.5" fill="#8b949e" stroke="none" stroke-width="0"/>
<g transform="translate(287.44,265.10) scale(1,-1)"><path d="M 0.38,2.55 L 1.73,2.55 L 1.73,2.26 L 0.69,2.26 L 0.69,1.64 Q 0.77,1.66 0.84,1.67 Q 0.92,1.69 0.99,1.69 Q 1.42,1.69 1.67,1.45 Q 1.92,1.22 1.92,0.82 Q 1.92,0.41 1.66,0.18 Q 1.41,-0.05 0.94,-0.05 Q 0.78,-0.05 0.61,-0.02 Q 0.45,0.00 0.27,0.06 L 0.27,0.41 Q 0.42,0.32 0.59,0.28 Q 0.75,0.24 0.93,0.24 Q 1.23,0.24 1.40,0.40 Q 1.58,0.55 1.58,0.82 Q 1.58,1.09 1.40,1.24 Q 1.23,1.40 0.93,1.40 Q 0.80,1.40 0.66,1.37 Q 0.52,1.33 0.38,1.27 L 0.38,2.55 Z" fill="#484f58"/></g>
<rect x="319.9" y="208.1" width="8.4" height="47.0" rx="2" fill="#21262d" stroke="#30363d" stroke-width="0.8"/>
<rect x="317.8" y="217.1" width="12.6" height="6.3" rx="1.5" fill="#8b949e" stroke="none" stroke-width="0"/>
<g transform="translate(323.10,265.10) scale(1,-1)"><path d="M 1.16,1.41 Q 0.92,1.41 0.79,1.25 Q 0.65,1.10 0.65,0.82 Q 0.65,0.54 0.79,0.38 Q 0.92,0.22 1.16,0.22 Q 1.39,0.22 1.52,0.38 Q 1.66,0.54 1.66,0.82 Q 1.66,1.10 1.52,1.25 Q 1.39,1.41 1.16,1.41 Z M 1.84,2.50 L 1.84,2.18 Q 1.71,2.24 1.58,2.27 Q 1.45,2.31 1.32,2.31 Q 0.97,2.31 0.79,2.08 Q 0.61,1.85 0.59,1.38 Q 0.69,1.53 0.84,1.61 Q 0.99,1.69 1.18,1.69 Q 1.56,1.69 1.78,1.45 Q 2.01,1.22 2.01,0.82 Q 2.01,0.43 1.77,0.19 Q 1.54,-0.05 1.16,-0.05 Q 0.71,-0.05 0.48,0.29 Q 0.24,0.63 0.24,1.27 Q 0.24,1.88 0.53,2.24 Q 0.82,2.60 1.30,2.60 Q 1.43,2.60 1.56,2.57 Q 1.70,2.55 1.84,2.50 Z" fill="#484f58"/></g>
<rect x="356.3" y="208.1" width="8.4" height="47.0" rx="2" fill="#21262d" stroke="#30363d" stroke-width="0.8"/>
<rect x="354.2" y="246.1" width="12.6" height="6.3" rx="1.5" fill="#8b949e" stroke="none" stroke-width="0"/>
<g transform="translate(359.54,265.10) scale(1,-1)"><path d="M 0.29,2.55 L 1.93,2.55 L 1.93,2.40 L 1.00,0.00 L 0.64,0.00 L 1.51,2.26 L 0.29,2.26 L 0.29,2.55 Z" fill="#484f58"/></g>
<rect x="392.0" y="208.1" width="8.4" height="47.0" rx="2" fill="#21262d" stroke="#30363d" stroke-width="0.8"/>
<rect x="389.9" y="220.8" width="12.6" height="6.3" rx="1.5" fill="#8b949e" stroke="none" stroke-width="0"/>
<g transform="translate(395.21,265.10) scale(1,-1)"><path d="M 1.11,1.21 Q 0.87,1.21 0.73,1.08 Q 0.58,0.95 0.58,0.72 Q 0.58,0.49 0.73,0.36 Q 0.87,0.22 1.11,0.22 Q 1.36,0.22 1.50,0.36 Q 1.64,0.49 1.64,0.72 Q 1.64,0.95 1.50,1.08 Q 1.36,1.21 1.11,1.21 Z M 0.77,1.36 Q 0.55,1.41 0.42,1.57 Q 0.30,1.72 0.30,1.94 Q 0.30,2.24 0.52,2.42 Q 0.73,2.60 1.11,2.60 Q 1.49,2.60 1.71,2.42 Q 1.93,2.24 1.93,1.94 Q 1.93,1.72 1.80,1.57 Q 1.68,1.41 1.46,1.36 Q 1.71,1.30 1.85,1.13 Q 1.99,0.96 1.99,0.72 Q 1.99,0.35 1.76,0.15 Q 1.53,-0.05 1.11,-0.05 Q 0.69,-0.05 0.46,0.15 Q 0.24,0.35 0.24,0.72 Q 0.24,0.96 0.38,1.13 Q 0.52,1.30 0.77,1.36 Z M 0.64,1.90 Q 0.64,1.71 0.76,1.59 Q 0.89,1.48 1.11,1.48 Q 1.33,1.48 1.46,1.59 Q 1.59,1.71 1.59,1.90 Q 1.59,2.10 1.46,2.21 Q 1.33,2.32 1.11,2.32 Q 0.89,2.32 0.76,2.21 Q 0.64,2.10 0.64,1.90 Z" fill="#484f58"/></g>
<circle cx="215.6" cy="231.6" r="9.1" fill="#21262d" stroke="#e6edf3" stroke-width="1.3"/>
<line x1="215.60" y1="226.61" x2="215.60" y2="223.25" stroke="#e6edf3" stroke-width="1.2" stroke-linecap="round"/>
<g transform="translate(210.05,254.24) scale(1,-1)"><path d="M 1.71,1.32 Q 1.83,1.27 1.95,1.14 Q 2.06,1.00 2.18,0.77 L 2.56,0.00 L 2.16,0.00 L 1.80,0.72 Q 1.66,1.00 1.53,1.09 Q 1.40,1.19 1.17,1.19 L 0.76,1.19 L 0.76,0.00 L 0.38,0.00 L 0.38,2.81 L 1.24,2.81 Q 1.72,2.81 1.95,2.61 Q 2.19,2.40 2.19,2.00 Q 2.19,1.73 2.07,1.56 Q 1.94,1.38 1.71,1.32 Z M 0.76,2.49 L 0.76,1.50 L 1.24,1.50 Q 1.51,1.50 1.65,1.63 Q 1.79,1.75 1.79,2.00 Q 1.79,2.24 1.65,2.37 Q 1.51,2.49 1.24,2.49 L 0.76,2.49 Z M 4.19,2.55 Q 3.78,2.55 3.53,2.24 Q 3.29,1.93 3.29,1.40 Q 3.29,0.87 3.53,0.56 Q 3.78,0.25 4.19,0.25 Q 4.61,0.25 4.85,0.56 Q 5.09,0.87 5.09,1.40 Q 5.09,1.93 4.85,2.24 Q 4.61,2.55 4.19,2.55 Z M 4.19,2.86 Q 4.78,2.86 5.14,2.46 Q 5.49,2.07 5.49,1.40 Q 5.49,0.74 5.14,0.34 Q 4.78,-0.05 4.19,-0.05 Q 3.60,-0.05 3.25,0.34 Q 2.89,0.74 2.89,1.40 Q 2.89,2.07 3.25,2.46 Q 3.60,2.86 4.19,2.86 Z M 7.22,2.55 Q 6.81,2.55 6.57,2.24 Q 6.32,1.93 6.32,1.40 Q 6.32,0.87 6.57,0.56 Q 6.81,0.25 7.22,0.25 Q 7.64,0.25 7.88,0.56 Q 8.12,0.87 8.12,1.40 Q 8.12,1.93 7.88,2.24 Q 7.64,2.55 7.22,2.55 Z M 7.22,2.86 Q 7.81,2.86 8.17,2.46 Q 8.52,2.07 8.52,1.40 Q 8.52,0.74 8.17,0.34 Q 7.81,-0.05 7.22,-0.05 Q 6.63,-0.05 6.28,0.34 Q 5.92,0.74 5.92,1.40 Q 5.92,2.07 6.28,2.46 Q 6.63,2.86 7.22,2.86 Z M 8.72,2.81 L 11.10,2.81 L 11.10,2.49 L 10.10,2.49 L 10.10,0.00 L 9.72,0.00 L 9.72,2.49 L 8.72,2.49 L 8.72,2.81 Z" fill="#e6edf3"/></g>
<circle cx="252.0" cy="231.6" r="9.1" fill="#21262d" stroke="#e6edf3" stroke-width="1.3"/>
<line x1="250.70" y1="226.78" x2="249.83" y2="223.53" stroke="#e6edf3" stroke-width="1.2" stroke-linecap="round"/>
<g transform="translate(245.95,254.24) scale(1,-1)"><path d="M 2.06,2.71 L 2.06,2.34 Q 1.84,2.45 1.65,2.50 Q 1.46,2.55 1.28,2.55 Q 0.97,2.55 0.80,2.43 Q 0.64,2.31 0.64,2.09 Q 0.64,1.90 0.75,1.81 Q 0.86,1.71 1.17,1.65 L 1.40,1.61 Q 1.83,1.52 2.03,1.32 Q 2.23,1.12 2.23,0.77 Q 2.23,0.37 1.96,0.16 Q 1.68,-0.05 1.15,-0.05 Q 0.96,-0.05 0.73,-0.01 Q 0.51,0.04 0.27,0.12 L 0.27,0.51 Q 0.50,0.39 0.72,0.32 Q 0.94,0.25 1.15,0.25 Q 1.48,0.25 1.66,0.38 Q 1.83,0.51 1.83,0.75 Q 1.83,0.95 1.71,1.07 Q 1.58,1.19 1.29,1.24 L 1.06,1.29 Q 0.63,1.37 0.44,1.55 Q 0.25,1.73 0.25,2.06 Q 0.25,2.43 0.52,2.64 Q 0.78,2.86 1.24,2.86 Q 1.44,2.86 1.64,2.82 Q 1.85,2.79 2.06,2.71 Z M 4.92,2.59 L 4.92,2.19 Q 4.73,2.37 4.51,2.46 Q 4.30,2.55 4.05,2.55 Q 3.57,2.55 3.32,2.25 Q 3.06,1.96 3.06,1.40 Q 3.06,0.85 3.32,0.55 Q 3.57,0.26 4.05,0.26 Q 4.30,0.26 4.51,0.35 Q 4.73,0.43 4.92,0.61 L 4.92,0.22 Q 4.72,0.08 4.50,0.01 Q 4.28,-0.05 4.03,-0.05 Q 3.39,-0.05 3.03,0.34 Q 2.66,0.73 2.66,1.40 Q 2.66,2.08 3.03,2.47 Q 3.39,2.86 4.03,2.86 Q 4.28,2.86 4.50,2.79 Q 4.73,2.72 4.92,2.59 Z M 6.45,2.43 L 5.93,1.04 L 6.97,1.04 L 6.45,2.43 Z M 6.23,2.81 L 6.66,2.81 L 7.73,0.00 L 7.34,0.00 L 7.08,0.72 L 5.82,0.72 L 5.56,0.00 L 5.16,0.00 L 6.23,2.81 Z M 8.14,2.81 L 8.52,2.81 L 8.52,0.32 L 9.89,0.32 L 9.89,0.00 L 8.14,0.00 L 8.14,2.81 Z M 10.29,2.81 L 12.06,2.81 L 12.06,2.49 L 10.67,2.49 L 10.67,1.66 L 12.00,1.66 L 12.00,1.34 L 10.67,1.34 L 10.67,0.32 L 12.10,0.32 L 12.10,0.00 L 10.29,0.00 L 10.29,2.81 Z" fill="#e6edf3"/></g>
<g transform="translate(70.45,265.10) scale(1,-1)"><path d="M 0.43,0.29 L 1.00,0.29 L 1.00,2.24 L 0.38,2.11 L 0.38,2.43 L 0.99,2.55 L 1.34,2.55 L 1.34,0.29 L 1.90,0.29 L 1.90,0.00 L 0.43,0.00 L 0.43,0.29 Z" fill="#484f58"/></g>
<g transform="translate(106.86,265.10) scale(1,-1)"><path d="M 0.67,0.29 L 1.88,0.29 L 1.88,0.00 L 0.26,0.00 L 0.26,0.29 Q 0.45,0.49 0.79,0.84 Q 1.13,1.18 1.22,1.28 Q 1.38,1.46 1.45,1.59 Q 1.52,1.72 1.52,1.85 Q 1.52,2.05 1.37,2.18 Q 1.23,2.31 1.00,2.31 Q 0.84,2.31 0.66,2.25 Q 0.48,2.19 0.27,2.08 L 0.27,2.43 Q 0.48,2.51 0.66,2.56 Q 0.84,2.60 0.99,2.60 Q 1.39,2.60 1.63,2.40 Q 1.86,2.20 1.86,1.87 Q 1.86,1.71 1.80,1.57 Q 1.75,1.43 1.59,1.24 Q 1.55,1.19 1.32,0.95 Q 1.09,0.72 0.67,0.29 Z" fill="#484f58"/></g>
<g transform="translate(142.53,265.10) scale(1,-1)"><path d="M 1.42,1.38 Q 1.67,1.32 1.81,1.16 Q 1.95,0.99 1.95,0.74 Q 1.95,0.36 1.69,0.16 Q 1.43,-0.05 0.95,-0.05 Q 0.79,-0.05 0.62,-0.02 Q 0.45,0.01 0.27,0.08 L 0.27,0.41 Q 0.41,0.33 0.58,0.28 Q 0.75,0.24 0.94,0.24 Q 1.26,0.24 1.43,0.37 Q 1.60,0.50 1.60,0.74 Q 1.60,0.97 1.44,1.09 Q 1.29,1.22 1.01,1.22 L 0.71,1.22 L 0.71,1.51 L 1.02,1.51 Q 1.27,1.51 1.41,1.61 Q 1.54,1.71 1.54,1.90 Q 1.54,2.10 1.40,2.20 Q 1.26,2.31 1.01,2.31 Q 0.86,2.31 0.70,2.28 Q 0.54,2.25 0.34,2.18 L 0.34,2.49 Q 0.54,2.54 0.71,2.57 Q 0.88,2.60 1.04,2.60 Q 1.43,2.60 1.66,2.42 Q 1.89,2.24 1.89,1.94 Q 1.89,1.72 1.77,1.58 Q 1.64,1.43 1.42,1.38 Z" fill="#484f58"/></g>
<g transform="translate(178.88,265.10) scale(1,-1)"><path d="M 1.32,2.25 L 0.45,0.89 L 1.32,0.89 L 1.32,2.25 Z M 1.23,2.55 L 1.67,2.55 L 1.67,0.89 L 2.03,0.89 L 2.03,0.60 L 1.67,0.60 L 1.67,0.00 L 1.32,0.00 L 1.32,0.60 L 0.17,0.60 L 0.17,0.93 L 1.23,2.55 Z" fill="#484f58"/></g>
<g transform="translate(287.44,265.10) scale(1,-1)"><path d="M 0.38,2.55 L 1.73,2.55 L 1.73,2.26 L 0.69,2.26 L 0.69,1.64 Q 0.77,1.66 0.84,1.67 Q 0.92,1.69 0.99,1.69 Q 1.42,1.69 1.67,1.45 Q 1.92,1.22 1.92,0.82 Q 1.92,0.41 1.66,0.18 Q 1.41,-0.05 0.94,-0.05 Q 0.78,-0.05 0.61,-0.02 Q 0.45,0.00 0.27,0.06 L 0.27,0.41 Q 0.42,0.32 0.59,0.28 Q 0.75,0.24 0.93,0.24 Q 1.23,0.24 1.40,0.40 Q 1.58,0.55 1.58,0.82 Q 1.58,1.09 1.40,1.24 Q 1.23,1.40 0.93,1.40 Q 0.80,1.40 0.66,1.37 Q 0.52,1.33 0.38,1.27 L 0.38,2.55 Z" fill="#484f58"/></g>
<g transform="translate(323.10,265.10) scale(1,-1)"><path d="M 1.16,1.41 Q 0.92,1.41 0.79,1.25 Q 0.65,1.10 0.65,0.82 Q 0.65,0.54 0.79,0.38 Q 0.92,0.22 1.16,0.22 Q 1.39,0.22 1.52,0.38 Q 1.66,0.54 1.66,0.82 Q 1.66,1.10 1.52,1.25 Q 1.39,1.41 1.16,1.41 Z M 1.84,2.50 L 1.84,2.18 Q 1.71,2.24 1.58,2.27 Q 1.45,2.31 1.32,2.31 Q 0.97,2.31 0.79,2.08 Q 0.61,1.85 0.59,1.38 Q 0.69,1.53 0.84,1.61 Q 0.99,1.69 1.18,1.69 Q 1.56,1.69 1.78,1.45 Q 2.01,1.22 2.01,0.82 Q 2.01,0.43 1.77,0.19 Q 1.54,-0.05 1.16,-0.05 Q 0.71,-0.05 0.48,0.29 Q 0.24,0.63 0.24,1.27 Q 0.24,1.88 0.53,2.24 Q 0.82,2.60 1.30,2.60 Q 1.43,2.60 1.56,2.57 Q 1.70,2.55 1.84,2.50 Z" fill="#484f58"/></g>
<g transform="translate(359.54,265.10) scale(1,-1)"><path d="M 0.29,2.55 L 1.93,2.55 L 1.93,2.40 L 1.00,0.00 L 0.64,0.00 L 1.51,2.26 L 0.29,2.26 L 0.29,2.55 Z" fill="#484f58"/></g>
<g transform="translate(395.21,265.10) scale(1,-1)"><path d="M 1.11,1.21 Q 0.87,1.21 0.73,1.08 Q 0.58,0.95 0.58,0.72 Q 0.58,0.49 0.73,0.36 Q 0.87,0.22 1.11,0.22 Q 1.36,0.22 1.50,0.36 Q 1.64,0.49 1.64,0.72 Q 1.64,0.95 1.50,1.08 Q 1.36,1.21 1.11,1.21 Z M 0.77,1.36 Q 0.55,1.41 0.42,1.57 Q 0.30,1.72 0.30,1.94 Q 0.30,2.24 0.52,2.42 Q 0.73,2.60 1.11,2.60 Q 1.49,2.60 1.71,2.42 Q 1.93,2.24 1.93,1.94 Q 1.93,1.72 1.80,1.57 Q 1.68,1.41 1.46,1.36 Q 1.71,1.30 1.85,1.13 Q 1.99,0.96 1.99,0.72 Q 1.99,0.35 1.76,0.15 Q 1.53,-0.05 1.11,-0.05 Q 0.69,-0.05 0.46,0.15 Q 0.24,0.35 0.24,0.72 Q 0.24,0.96 0.38,1.13 Q 0.52,1.30 0.77,1.36 Z M 0.64,1.90 Q 0.64,1.71 0.76,1.59 Q 0.89,1.48 1.11,1.48 Q 1.33,1.48 1.46,1.59 Q 1.59,1.71 1.59,1.90 Q 1.59,2.10 1.46,2.21 Q 1.33,2.32 1.11,2.32 Q 0.89,2.32 0.76,2.21 Q 0.64,2.10 0.64,1.90 Z" fill="#484f58"/></g>
<g transform="translate(46.67,281.38) scale(1,-1)"><path d="M 0.34,2.55 L 0.86,2.55 L 1.51,0.82 L 2.16,2.55 L 2.68,2.55 L 2.68,0.00 L 2.34,0.00 L 2.34,2.24 L 1.68,0.49 L 1.34,0.49 L 0.68,2.24 L 0.68,0.00 L 0.34,0.00 L 0.34,2.55 Z M 3.36,2.55 L 4.98,2.55 L 4.98,2.26 L 3.71,2.26 L 3.71,1.51 L 4.92,1.51 L 4.92,1.22 L 3.71,1.22 L 3.71,0.29 L 5.01,0.29 L 5.01,0.00 L 3.36,0.00 L 3.36,2.55 Z M 5.57,2.55 L 5.92,2.55 L 5.92,0.29 L 7.16,0.29 L 7.16,0.00 L 5.57,0.00 L 5.57,2.55 Z M 8.43,2.32 Q 8.06,2.32 7.84,2.04 Q 7.61,1.76 7.61,1.27 Q 7.61,0.79 7.84,0.51 Q 8.06,0.23 8.43,0.23 Q 8.81,0.23 9.03,0.51 Q 9.25,0.79 9.25,1.27 Q 9.25,1.76 9.03,2.04 Q 8.81,2.32 8.43,2.32 Z M 8.43,2.60 Q 8.97,2.60 9.29,2.24 Q 9.61,1.88 9.61,1.27 Q 9.61,0.67 9.29,0.31 Q 8.97,-0.05 8.43,-0.05 Q 7.90,-0.05 7.57,0.31 Q 7.25,0.67 7.25,1.27 Q 7.25,1.88 7.57,2.24 Q 7.90,2.60 8.43,2.60 Z M 10.50,2.27 L 10.50,0.28 L 10.91,0.28 Q 11.44,0.28 11.69,0.52 Q 11.93,0.76 11.93,1.28 Q 11.93,1.79 11.69,2.03 Q 11.44,2.27 10.91,2.27 L 10.50,2.27 Z M 10.15,2.55 L 10.86,2.55 Q 11.60,2.55 11.95,2.24 Q 12.30,1.93 12.30,1.28 Q 12.30,0.62 11.95,0.31 Q 11.60,0.00 10.86,0.00 L 10.15,0.00 L 10.15,2.55 Z M 12.30,2.55 L 12.68,2.55 L 13.38,1.50 L 14.09,2.55 L 14.46,2.55 L 13.55,1.22 L 13.55,0.00 L 13.21,0.00 L 13.21,1.22 L 12.30,2.55 Z" fill="#484f58"/></g>
<g transform="translate(352.72,281.38) scale(1,-1)"><path d="M 0.69,2.27 L 0.69,1.31 L 1.12,1.31 Q 1.36,1.31 1.50,1.43 Q 1.63,1.56 1.63,1.79 Q 1.63,2.02 1.50,2.14 Q 1.36,2.27 1.12,2.27 L 0.69,2.27 Z M 0.34,2.55 L 1.12,2.55 Q 1.55,2.55 1.77,2.36 Q 1.99,2.16 1.99,1.79 Q 1.99,1.41 1.77,1.22 Q 1.55,1.03 1.12,1.03 L 0.69,1.03 L 0.69,0.00 L 0.34,0.00 L 0.34,2.55 Z M 2.45,2.55 L 4.07,2.55 L 4.07,2.26 L 2.80,2.26 L 2.80,1.51 L 4.01,1.51 L 4.01,1.22 L 2.80,1.22 L 2.80,0.29 L 4.10,0.29 L 4.10,0.00 L 2.45,0.00 L 2.45,2.55 Z M 5.88,1.20 Q 5.99,1.16 6.09,1.04 Q 6.20,0.91 6.30,0.70 L 6.65,0.00 L 6.28,0.00 L 5.96,0.65 Q 5.83,0.91 5.71,0.99 Q 5.59,1.08 5.39,1.08 L 5.01,1.08 L 5.01,0.00 L 4.67,0.00 L 4.67,2.55 L 5.44,2.55 Q 5.88,2.55 6.10,2.37 Q 6.31,2.19 6.31,1.82 Q 6.31,1.58 6.20,1.42 Q 6.09,1.26 5.88,1.20 Z M 5.01,2.27 L 5.01,1.36 L 5.44,1.36 Q 5.69,1.36 5.82,1.48 Q 5.95,1.59 5.95,1.82 Q 5.95,2.04 5.82,2.15 Q 5.69,2.27 5.44,2.27 L 5.01,2.27 Z M 7.10,2.55 L 8.56,2.55 L 8.56,2.26 L 7.44,2.26 L 7.44,1.51 L 8.45,1.51 L 8.45,1.22 L 7.44,1.22 L 7.44,0.00 L 7.10,0.00 L 7.10,2.55 Z" fill="#484f58"/></g>
<rect x="56.0" y="282.3" width="28.0" height="25.3" rx="2" fill="#132316" stroke="#2ea043" stroke-width="1.3"/>
<circle cx="70.0" cy="295.0" r="3.1" fill="#2ea043"/>
<g transform="translate(69.05,316.67) scale(1,-1)"><path d="M 0.43,0.29 L 1.00,0.29 L 1.00,2.24 L 0.38,2.11 L 0.38,2.43 L 0.99,2.55 L 1.34,2.55 L 1.34,0.29 L 1.90,0.29 L 1.90,0.00 L 0.43,0.00 L 0.43,0.29 Z" fill="#8b949e"/></g>
<rect x="89.6" y="282.3" width="28.0" height="25.3" rx="2" fill="#21262d" stroke="#30363d" stroke-width="0.8"/>
<g transform="translate(102.66,316.67) scale(1,-1)"><path d="M 0.67,0.29 L 1.88,0.29 L 1.88,0.00 L 0.26,0.00 L 0.26,0.29 Q 0.45,0.49 0.79,0.84 Q 1.13,1.18 1.22,1.28 Q 1.38,1.46 1.45,1.59 Q 1.52,1.72 1.52,1.85 Q 1.52,2.05 1.37,2.18 Q 1.23,2.31 1.00,2.31 Q 0.84,2.31 0.66,2.25 Q 0.48,2.19 0.27,2.08 L 0.27,2.43 Q 0.48,2.51 0.66,2.56 Q 0.84,2.60 0.99,2.60 Q 1.39,2.60 1.63,2.40 Q 1.86,2.20 1.86,1.87 Q 1.86,1.71 1.80,1.57 Q 1.75,1.43 1.59,1.24 Q 1.55,1.19 1.32,0.95 Q 1.09,0.72 0.67,0.29 Z" fill="#484f58"/></g>
<rect x="123.2" y="282.3" width="28.0" height="25.3" rx="2" fill="#21262d" stroke="#30363d" stroke-width="0.8"/>
<g transform="translate(136.23,316.67) scale(1,-1)"><path d="M 1.42,1.38 Q 1.67,1.32 1.81,1.16 Q 1.95,0.99 1.95,0.74 Q 1.95,0.36 1.69,0.16 Q 1.43,-0.05 0.95,-0.05 Q 0.79,-0.05 0.62,-0.02 Q 0.45,0.01 0.27,0.08 L 0.27,0.41 Q 0.41,0.33 0.58,0.28 Q 0.75,0.24 0.94,0.24 Q 1.26,0.24 1.43,0.37 Q 1.60,0.50 1.60,0.74 Q 1.60,0.97 1.44,1.09 Q 1.29,1.22 1.01,1.22 L 0.71,1.22 L 0.71,1.51 L 1.02,1.51 Q 1.27,1.51 1.41,1.61 Q 1.54,1.71 1.54,1.90 Q 1.54,2.10 1.40,2.20 Q 1.26,2.31 1.01,2.31 Q 0.86,2.31 0.70,2.28 Q 0.54,2.25 0.34,2.18 L 0.34,2.49 Q 0.54,2.54 0.71,2.57 Q 0.88,2.60 1.04,2.60 Q 1.43,2.60 1.66,2.42 Q 1.89,2.24 1.89,1.94 Q 1.89,1.72 1.77,1.58 Q 1.64,1.43 1.42,1.38 Z" fill="#484f58"/></g>
<rect x="156.8" y="282.3" width="28.0" height="25.3" rx="2" fill="#21262d" stroke="#30363d" stroke-width="0.8"/>
<g transform="translate(169.78,316.67) scale(1,-1)"><path d="M 1.32,2.25 L 0.45,0.89 L 1.32,0.89 L 1.32,2.25 Z M 1.23,2.55 L 1.67,2.55 L 1.67,0.89 L 2.03,0.89 L 2.03,0.60 L 1.67,0.60 L 1.67,0.00 L 1.32,0.00 L 1.32,0.60 L 0.17,0.60 L 0.17,0.93 L 1.23,2.55 Z" fill="#484f58"/></g>
<rect x="190.4" y="282.3" width="28.0" height="25.3" rx="2" fill="#21262d" stroke="#30363d" stroke-width="0.8"/>
<g transform="translate(203.44,316.67) scale(1,-1)"><path d="M 0.38,2.55 L 1.73,2.55 L 1.73,2.26 L 0.69,2.26 L 0.69,1.64 Q 0.77,1.66 0.84,1.67 Q 0.92,1.69 0.99,1.69 Q 1.42,1.69 1.67,1.45 Q 1.92,1.22 1.92,0.82 Q 1.92,0.41 1.66,0.18 Q 1.41,-0.05 0.94,-0.05 Q 0.78,-0.05 0.61,-0.02 Q 0.45,0.00 0.27,0.06 L 0.27,0.41 Q 0.42,0.32 0.59,0.28 Q 0.75,0.24 0.93,0.24 Q 1.23,0.24 1.40,0.40 Q 1.58,0.55 1.58,0.82 Q 1.58,1.09 1.40,1.24 Q 1.23,1.40 0.93,1.40 Q 0.80,1.40 0.66,1.37 Q 0.52,1.33 0.38,1.27 L 0.38,2.55 Z" fill="#484f58"/></g>
<rect x="224.0" y="282.3" width="28.0" height="25.3" rx="2" fill="#21262d" stroke="#30363d" stroke-width="0.8"/>
<g transform="translate(237.00,316.67) scale(1,-1)"><path d="M 1.16,1.41 Q 0.92,1.41 0.79,1.25 Q 0.65,1.10 0.65,0.82 Q 0.65,0.54 0.79,0.38 Q 0.92,0.22 1.16,0.22 Q 1.39,0.22 1.52,0.38 Q 1.66,0.54 1.66,0.82 Q 1.66,1.10 1.52,1.25 Q 1.39,1.41 1.16,1.41 Z M 1.84,2.50 L 1.84,2.18 Q 1.71,2.24 1.58,2.27 Q 1.45,2.31 1.32,2.31 Q 0.97,2.31 0.79,2.08 Q 0.61,1.85 0.59,1.38 Q 0.69,1.53 0.84,1.61 Q 0.99,1.69 1.18,1.69 Q 1.56,1.69 1.78,1.45 Q 2.01,1.22 2.01,0.82 Q 2.01,0.43 1.77,0.19 Q 1.54,-0.05 1.16,-0.05 Q 0.71,-0.05 0.48,0.29 Q 0.24,0.63 0.24,1.27 Q 0.24,1.88 0.53,2.24 Q 0.82,2.60 1.30,2.60 Q 1.43,2.60 1.56,2.57 Q 1.70,2.55 1.84,2.50 Z" fill="#484f58"/></g>
<rect x="257.6" y="282.3" width="28.0" height="25.3" rx="2" fill="#21262d" stroke="#30363d" stroke-width="0.8"/>
<g transform="translate(270.64,316.67) scale(1,-1)"><path d="M 0.29,2.55 L 1.93,2.55 L 1.93,2.40 L 1.00,0.00 L 0.64,0.00 L 1.51,2.26 L 0.29,2.26 L 0.29,2.55 Z" fill="#484f58"/></g>
<rect x="291.2" y="282.3" width="28.0" height="25.3" rx="2" fill="#21262d" stroke="#30363d" stroke-width="0.8"/>
<g transform="translate(304.21,316.67) scale(1,-1)"><path d="M 1.11,1.21 Q 0.87,1.21 0.73,1.08 Q 0.58,0.95 0.58,0.72 Q 0.58,0.49 0.73,0.36 Q 0.87,0.22 1.11,0.22 Q 1.36,0.22 1.50,0.36 Q 1.64,0.49 1.64,0.72 Q 1.64,0.95 1.50,1.08 Q 1.36,1.21 1.11,1.21 Z M 0.77,1.36 Q 0.55,1.41 0.42,1.57 Q 0.30,1.72 0.30,1.94 Q 0.30,2.24 0.52,2.42 Q 0.73,2.60 1.11,2.60 Q 1.49,2.60 1.71,2.42 Q 1.93,2.24 1.93,1.94 Q 1.93,1.72 1.80,1.57 Q 1.68,1.41 1.46,1.36 Q 1.71,1.30 1.85,1.13 Q 1.99,0.96 1.99,0.72 Q 1.99,0.35 1.76,0.15 Q 1.53,-0.05 1.11,-0.05 Q 0.69,-0.05 0.46,0.15 Q 0.24,0.35 0.24,0.72 Q 0.24,0.96 0.38,1.13 Q 0.52,1.30 0.77,1.36 Z M 0.64,1.90 Q 0.64,1.71 0.76,1.59 Q 0.89,1.48 1.11,1.48 Q 1.33,1.48 1.46,1.59 Q 1.59,1.71 1.59,1.90 Q 1.59,2.10 1.46,2.21 Q 1.33,2.32 1.11,2.32 Q 0.89,2.32 0.76,2.21 Q 0.64,2.10 0.64,1.90 Z" fill="#484f58"/></g>
<rect x="337.4" y="276.9" width="26.6" height="16.3" rx="1.5" fill="#132316" stroke="#2ea043" stroke-width="1.2"/>
<g transform="translate(346.08,289.52) scale(1,-1)"><path d="M 0.76,2.49 L 0.76,1.44 L 1.24,1.44 Q 1.50,1.44 1.64,1.58 Q 1.79,1.71 1.79,1.97 Q 1.79,2.22 1.64,2.36 Q 1.50,2.49 1.24,2.49 L 0.76,2.49 Z M 0.38,2.81 L 1.24,2.81 Q 1.71,2.81 1.95,2.59 Q 2.19,2.38 2.19,1.97 Q 2.19,1.55 1.95,1.34 Q 1.71,1.13 1.24,1.13 L 0.76,1.13 L 0.76,0.00 L 0.38,0.00 L 0.38,2.81 Z M 2.70,2.81 L 3.08,2.81 L 3.08,0.32 L 4.45,0.32 L 4.45,0.00 L 2.70,0.00 L 2.70,2.81 Z M 5.87,2.43 L 5.35,1.04 L 6.39,1.04 L 5.87,2.43 Z M 5.65,2.81 L 6.09,2.81 L 7.15,0.00 L 6.76,0.00 L 6.50,0.72 L 5.24,0.72 L 4.98,0.00 L 4.58,0.00 L 5.65,2.81 Z M 6.88,2.81 L 7.29,2.81 L 8.07,1.65 L 8.84,2.81 L 9.25,2.81 L 8.26,1.34 L 8.26,0.00 L 7.87,0.00 L 7.87,1.34 L 6.88,2.81 Z" fill="#3fb950"/></g>
<rect x="369.6" y="276.9" width="26.6" height="16.3" rx="1.5" fill="#2a2200" stroke="#d29922" stroke-width="1.2"/>
<g transform="translate(377.98,289.52) scale(1,-1)"><path d="M 2.06,2.71 L 2.06,2.34 Q 1.84,2.45 1.65,2.50 Q 1.46,2.55 1.28,2.55 Q 0.97,2.55 0.80,2.43 Q 0.64,2.31 0.64,2.09 Q 0.64,1.90 0.75,1.81 Q 0.86,1.71 1.17,1.65 L 1.40,1.61 Q 1.83,1.52 2.03,1.32 Q 2.23,1.12 2.23,0.77 Q 2.23,0.37 1.96,0.16 Q 1.68,-0.05 1.15,-0.05 Q 0.96,-0.05 0.73,-0.01 Q 0.51,0.04 0.27,0.12 L 0.27,0.51 Q 0.50,0.39 0.72,0.32 Q 0.94,0.25 1.15,0.25 Q 1.48,0.25 1.66,0.38 Q 1.83,0.51 1.83,0.75 Q 1.83,0.95 1.71,1.07 Q 1.58,1.19 1.29,1.24 L 1.06,1.29 Q 0.63,1.37 0.44,1.55 Q 0.25,1.73 0.25,2.06 Q 0.25,2.43 0.52,2.64 Q 0.78,2.86 1.24,2.86 Q 1.44,2.86 1.64,2.82 Q 1.85,2.79 2.06,2.71 Z M 2.82,2.81 L 3.20,2.81 L 3.20,1.66 L 4.58,1.66 L 4.58,2.81 L 4.96,2.81 L 4.96,0.00 L 4.58,0.00 L 4.58,1.34 L 3.20,1.34 L 3.20,0.00 L 2.82,0.00 L 2.82,2.81 Z M 5.72,2.81 L 7.33,2.81 L 7.33,2.49 L 6.10,2.49 L 6.10,1.66 L 7.21,1.66 L 7.21,1.34 L 6.10,1.34 L 6.10,0.00 L 5.72,0.00 L 5.72,2.81 Z M 7.47,2.81 L 9.85,2.81 L 9.85,2.49 L 8.85,2.49 L 8.85,0.00 L 8.47,0.00 L 8.47,2.49 L 7.47,2.49 L 7.47,2.81 Z" fill="#d29922"/></g>
<rect x="337.4" y="298.6" width="26.6" height="16.3" rx="1.5" fill="#161b2e" stroke="#388bfd" stroke-width="0.9"/>
<g transform="translate(346.95,311.24) scale(1,-1)"><path d="M 1.32,2.43 L 0.80,1.04 L 1.83,1.04 L 1.32,2.43 Z M 1.10,2.81 L 1.53,2.81 L 2.60,0.00 L 2.21,0.00 L 1.95,0.72 L 0.69,0.72 L 0.43,0.00 L 0.03,0.00 L 1.10,2.81 Z M 4.34,1.32 Q 4.46,1.27 4.58,1.14 Q 4.70,1.00 4.81,0.77 L 5.20,0.00 L 4.79,0.00 L 4.43,0.72 Q 4.29,1.00 4.16,1.09 Q 4.03,1.19 3.80,1.19 L 3.39,1.19 L 3.39,0.00 L 3.01,0.00 L 3.01,2.81 L 3.87,2.81 Q 4.35,2.81 4.59,2.61 Q 4.82,2.40 4.82,2.00 Q 4.82,1.73 4.70,1.56 Q 4.58,1.38 4.34,1.32 Z M 3.39,2.49 L 3.39,1.50 L 3.87,1.50 Q 4.14,1.50 4.28,1.63 Q 4.42,1.75 4.42,2.00 Q 4.42,2.24 4.28,2.37 Q 4.14,2.49 3.87,2.49 L 3.39,2.49 Z M 6.07,2.49 L 6.07,1.44 L 6.54,1.44 Q 6.81,1.44 6.95,1.58 Q 7.10,1.71 7.10,1.97 Q 7.10,2.22 6.95,2.36 Q 6.81,2.49 6.54,2.49 L 6.07,2.49 Z M 5.69,2.81 L 6.54,2.81 Q 7.02,2.81 7.26,2.59 Q 7.50,2.38 7.50,1.97 Q 7.50,1.55 7.26,1.34 Q 7.02,1.13 6.54,1.13 L 6.07,1.13 L 6.07,0.00 L 5.69,0.00 L 5.69,2.81 Z" fill="#58a6ff"/></g>
<rect x="369.6" y="298.6" width="26.6" height="16.3" rx="1.5" fill="#161b2e" stroke="#388bfd" stroke-width="0.9"/>
<g transform="translate(379.22,311.24) scale(1,-1)"><path d="M 0.38,2.81 L 1.99,2.81 L 1.99,2.49 L 0.76,2.49 L 0.76,1.66 L 1.87,1.66 L 1.87,1.34 L 0.76,1.34 L 0.76,0.00 L 0.38,0.00 L 0.38,2.81 Z M 3.92,1.32 Q 4.05,1.27 4.16,1.14 Q 4.28,1.00 4.39,0.77 L 4.78,0.00 L 4.37,0.00 L 4.01,0.72 Q 3.87,1.00 3.74,1.09 Q 3.61,1.19 3.39,1.19 L 2.97,1.19 L 2.97,0.00 L 2.59,0.00 L 2.59,2.81 L 3.45,2.81 Q 3.93,2.81 4.17,2.61 Q 4.40,2.40 4.40,2.00 Q 4.40,1.73 4.28,1.56 Q 4.16,1.38 3.92,1.32 Z M 2.97,2.49 L 2.97,1.50 L 3.45,1.50 Q 3.72,1.50 3.86,1.63 Q 4.00,1.75 4.00,2.00 Q 4.00,2.24 3.86,2.37 Q 3.72,2.49 3.45,2.49 L 2.97,2.49 Z M 5.11,2.81 L 7.31,2.81 L 7.31,2.52 L 5.54,0.32 L 7.35,0.32 L 7.35,0.00 L 5.06,0.00 L 5.06,0.29 L 6.84,2.49 L 5.11,2.49 L 5.11,2.81 Z" fill="#58a6ff"/></g>
<g transform="translate(47.52,332.95) scale(1,-1)"><path d="M 2.25,2.35 L 2.25,1.99 Q 2.08,2.15 1.88,2.23 Q 1.68,2.31 1.46,2.31 Q 1.03,2.31 0.79,2.05 Q 0.56,1.78 0.56,1.27 Q 0.56,0.77 0.79,0.50 Q 1.03,0.23 1.46,0.23 Q 1.68,0.23 1.88,0.31 Q 2.08,0.39 2.25,0.56 L 2.25,0.20 Q 2.07,0.07 1.87,0.01 Q 1.67,-0.05 1.44,-0.05 Q 0.86,-0.05 0.53,0.30 Q 0.20,0.66 0.20,1.27 Q 0.20,1.89 0.53,2.24 Q 0.86,2.60 1.44,2.60 Q 1.67,2.60 1.87,2.54 Q 2.08,2.48 2.25,2.35 Z M 2.79,2.55 L 3.13,2.55 L 3.13,1.51 L 4.39,1.51 L 4.39,2.55 L 4.73,2.55 L 4.73,0.00 L 4.39,0.00 L 4.39,1.22 L 3.13,1.22 L 3.13,0.00 L 2.79,0.00 L 2.79,2.55 Z M 6.45,2.32 Q 6.08,2.32 5.86,2.04 Q 5.64,1.76 5.64,1.27 Q 5.64,0.79 5.86,0.51 Q 6.08,0.23 6.45,0.23 Q 6.83,0.23 7.05,0.51 Q 7.27,0.79 7.27,1.27 Q 7.27,1.76 7.05,2.04 Q 6.83,2.32 6.45,2.32 Z M 6.45,2.60 Q 6.99,2.60 7.31,2.24 Q 7.63,1.88 7.63,1.27 Q 7.63,0.67 7.31,0.31 Q 6.99,-0.05 6.45,-0.05 Q 5.92,-0.05 5.59,0.31 Q 5.27,0.67 5.27,1.27 Q 5.27,1.88 5.59,2.24 Q 5.92,2.60 6.45,2.60 Z M 9.38,1.20 Q 9.50,1.16 9.60,1.04 Q 9.71,0.91 9.81,0.70 L 10.16,0.00 L 9.79,0.00 L 9.46,0.65 Q 9.34,0.91 9.22,0.99 Q 9.10,1.08 8.90,1.08 L 8.52,1.08 L 8.52,0.00 L 8.17,0.00 L 8.17,2.55 L 8.95,2.55 Q 9.39,2.55 9.61,2.37 Q 9.82,2.19 9.82,1.82 Q 9.82,1.58 9.71,1.42 Q 9.60,1.26 9.38,1.20 Z M 8.52,2.27 L 8.52,1.36 L 8.95,1.36 Q 9.20,1.36 9.33,1.48 Q 9.46,1.59 9.46,1.82 Q 9.46,2.04 9.33,2.15 Q 9.20,2.27 8.95,2.27 L 8.52,2.27 Z M 10.95,2.27 L 10.95,0.28 L 11.37,0.28 Q 11.90,0.28 12.14,0.52 Q 12.39,0.76 12.39,1.28 Q 12.39,1.79 12.14,2.03 Q 11.90,2.27 11.37,2.27 L 10.95,2.27 Z M 10.61,2.55 L 11.32,2.55 Q 12.06,2.55 12.40,2.24 Q 12.75,1.93 12.75,1.28 Q 12.75,0.62 12.40,0.31 Q 12.05,0.00 11.32,0.00 L 10.61,0.00 L 10.61,2.55 Z" fill="#484f58"/></g>
<rect x="56.0" y="334.8" width="28.0" height="25.3" rx="2" fill="#13192e" stroke="#388bfd" stroke-width="1.3"/>
<circle cx="70.0" cy="347.4" r="3.1" fill="#1f6feb"/>
<g transform="translate(69.01,369.14) scale(1,-1)"><path d="M 0.38,0.05 L 0.38,0.37 Q 0.51,0.31 0.65,0.27 Q 0.78,0.24 0.91,0.24 Q 1.25,0.24 1.43,0.47 Q 1.61,0.70 1.64,1.17 Q 1.54,1.02 1.39,0.94 Q 1.23,0.86 1.05,0.86 Q 0.67,0.86 0.44,1.10 Q 0.22,1.33 0.22,1.73 Q 0.22,2.12 0.45,2.36 Q 0.69,2.60 1.07,2.60 Q 1.51,2.60 1.75,2.26 Q 1.98,1.92 1.98,1.27 Q 1.98,0.67 1.69,0.31 Q 1.41,-0.05 0.92,-0.05 Q 0.79,-0.05 0.66,-0.02 Q 0.53,0.00 0.38,0.05 Z M 1.07,1.13 Q 1.30,1.13 1.44,1.29 Q 1.58,1.45 1.58,1.73 Q 1.58,2.00 1.44,2.16 Q 1.30,2.32 1.07,2.32 Q 0.84,2.32 0.70,2.16 Q 0.57,2.00 0.57,1.73 Q 0.57,1.45 0.70,1.29 Q 0.84,1.13 1.07,1.13 Z" fill="#8b949e"/></g>
<rect x="89.6" y="334.8" width="28.0" height="25.3" rx="2" fill="#21262d" stroke="#30363d" stroke-width="0.8"/>
<g transform="translate(101.49,369.14) scale(1,-1)"><path d="M 0.43,0.29 L 1.00,0.29 L 1.00,2.24 L 0.38,2.11 L 0.38,2.43 L 0.99,2.55 L 1.34,2.55 L 1.34,0.29 L 1.90,0.29 L 1.90,0.00 L 0.43,0.00 L 0.43,0.29 Z M 3.34,2.32 Q 3.07,2.32 2.94,2.06 Q 2.80,1.80 2.80,1.27 Q 2.80,0.75 2.94,0.49 Q 3.07,0.22 3.34,0.22 Q 3.61,0.22 3.74,0.49 Q 3.88,0.75 3.88,1.27 Q 3.88,1.80 3.74,2.06 Q 3.61,2.32 3.34,2.32 Z M 3.34,2.60 Q 3.77,2.60 3.99,2.26 Q 4.22,1.92 4.22,1.27 Q 4.22,0.63 3.99,0.29 Q 3.77,-0.05 3.34,-0.05 Q 2.91,-0.05 2.68,0.29 Q 2.46,0.63 2.46,1.27 Q 2.46,1.92 2.68,2.26 Q 2.91,2.60 3.34,2.60 Z" fill="#484f58"/></g>
<rect x="123.2" y="334.8" width="28.0" height="25.3" rx="2" fill="#21262d" stroke="#30363d" stroke-width="0.8"/>
<g transform="translate(135.13,369.14) scale(1,-1)"><path d="M 0.43,0.29 L 1.00,0.29 L 1.00,2.24 L 0.38,2.11 L 0.38,2.43 L 0.99,2.55 L 1.34,2.55 L 1.34,0.29 L 1.90,0.29 L 1.90,0.00 L 0.43,0.00 L 0.43,0.29 Z M 2.66,0.29 L 3.22,0.29 L 3.22,2.24 L 2.61,2.11 L 2.61,2.43 L 3.22,2.55 L 3.57,2.55 L 3.57,0.29 L 4.13,0.29 L 4.13,0.00 L 2.66,0.00 L 2.66,0.29 Z" fill="#484f58"/></g>
<rect x="156.8" y="334.8" width="28.0" height="25.3" rx="2" fill="#21262d" stroke="#30363d" stroke-width="0.8"/>
<g transform="translate(168.75,369.14) scale(1,-1)"><path d="M 0.43,0.29 L 1.00,0.29 L 1.00,2.24 L 0.38,2.11 L 0.38,2.43 L 0.99,2.55 L 1.34,2.55 L 1.34,0.29 L 1.90,0.29 L 1.90,0.00 L 0.43,0.00 L 0.43,0.29 Z M 2.90,0.29 L 4.10,0.29 L 4.10,0.00 L 2.48,0.00 L 2.48,0.29 Q 2.68,0.49 3.02,0.84 Q 3.36,1.18 3.45,1.28 Q 3.61,1.46 3.68,1.59 Q 3.74,1.72 3.74,1.85 Q 3.74,2.05 3.60,2.18 Q 3.46,2.31 3.23,2.31 Q 3.07,2.31 2.89,2.25 Q 2.71,2.19 2.50,2.08 L 2.50,2.43 Q 2.71,2.51 2.89,2.56 Q 3.07,2.60 3.22,2.60 Q 3.62,2.60 3.85,2.40 Q 4.09,2.20 4.09,1.87 Q 4.09,1.71 4.03,1.57 Q 3.97,1.43 3.82,1.24 Q 3.77,1.19 3.54,0.95 Q 3.32,0.72 2.90,0.29 Z" fill="#484f58"/></g>
<rect x="190.4" y="334.8" width="28.0" height="25.3" rx="2" fill="#21262d" stroke="#30363d" stroke-width="0.8"/>
<g transform="translate(202.31,369.14) scale(1,-1)"><path d="M 0.43,0.29 L 1.00,0.29 L 1.00,2.24 L 0.38,2.11 L 0.38,2.43 L 0.99,2.55 L 1.34,2.55 L 1.34,0.29 L 1.90,0.29 L 1.90,0.00 L 0.43,0.00 L 0.43,0.29 Z M 3.65,1.38 Q 3.89,1.32 4.03,1.16 Q 4.17,0.99 4.17,0.74 Q 4.17,0.36 3.91,0.16 Q 3.65,-0.05 3.18,-0.05 Q 3.01,-0.05 2.84,-0.02 Q 2.67,0.01 2.49,0.08 L 2.49,0.41 Q 2.64,0.33 2.81,0.28 Q 2.98,0.24 3.17,0.24 Q 3.49,0.24 3.66,0.37 Q 3.83,0.50 3.83,0.74 Q 3.83,0.97 3.67,1.09 Q 3.51,1.22 3.23,1.22 L 2.93,1.22 L 2.93,1.51 L 3.25,1.51 Q 3.50,1.51 3.64,1.61 Q 3.77,1.71 3.77,1.90 Q 3.77,2.10 3.63,2.20 Q 3.49,2.31 3.23,2.31 Q 3.09,2.31 2.93,2.28 Q 2.76,2.25 2.57,2.18 L 2.57,2.49 Q 2.77,2.54 2.94,2.57 Q 3.11,2.60 3.26,2.60 Q 3.66,2.60 3.88,2.42 Q 4.11,2.24 4.11,1.94 Q 4.11,1.72 3.99,1.58 Q 3.87,1.43 3.65,1.38 Z" fill="#484f58"/></g>
<rect x="224.0" y="334.8" width="28.0" height="25.3" rx="2" fill="#21262d" stroke="#30363d" stroke-width="0.8"/>
<g transform="translate(235.87,369.14) scale(1,-1)"><path d="M 0.43,0.29 L 1.00,0.29 L 1.00,2.24 L 0.38,2.11 L 0.38,2.43 L 0.99,2.55 L 1.34,2.55 L 1.34,0.29 L 1.90,0.29 L 1.90,0.00 L 0.43,0.00 L 0.43,0.29 Z M 3.55,2.25 L 2.68,0.89 L 3.55,0.89 L 3.55,2.25 Z M 3.46,2.55 L 3.89,2.55 L 3.89,0.89 L 4.26,0.89 L 4.26,0.60 L 3.89,0.60 L 3.89,0.00 L 3.55,0.00 L 3.55,0.60 L 2.40,0.60 L 2.40,0.93 L 3.46,2.55 Z" fill="#484f58"/></g>
<rect x="257.6" y="334.8" width="28.0" height="25.3" rx="2" fill="#21262d" stroke="#30363d" stroke-width="0.8"/>
<g transform="translate(269.53,369.14) scale(1,-1)"><path d="M 0.43,0.29 L 1.00,0.29 L 1.00,2.24 L 0.38,2.11 L 0.38,2.43 L 0.99,2.55 L 1.34,2.55 L 1.34,0.29 L 1.90,0.29 L 1.90,0.00 L 0.43,0.00 L 0.43,0.29 Z M 2.60,2.55 L 3.96,2.55 L 3.96,2.26 L 2.92,2.26 L 2.92,1.64 Q 3.00,1.66 3.07,1.67 Q 3.15,1.69 3.22,1.69 Q 3.65,1.69 3.90,1.45 Q 4.15,1.22 4.15,0.82 Q 4.15,0.41 3.89,0.18 Q 3.64,-0.05 3.17,-0.05 Q 3.01,-0.05 2.84,-0.02 Q 2.67,0.00 2.50,0.06 L 2.50,0.41 Q 2.65,0.32 2.81,0.28 Q 2.98,0.24 3.16,0.24 Q 3.46,0.24 3.63,0.40 Q 3.80,0.55 3.80,0.82 Q 3.80,1.09 3.63,1.24 Q 3.46,1.40 3.16,1.40 Q 3.02,1.40 2.89,1.37 Q 2.75,1.33 2.60,1.27 L 2.60,2.55 Z" fill="#484f58"/></g>
<rect x="291.2" y="334.8" width="28.0" height="25.3" rx="2" fill="#21262d" stroke="#30363d" stroke-width="0.8"/>
<g transform="translate(303.08,369.14) scale(1,-1)"><path d="M 0.43,0.29 L 1.00,0.29 L 1.00,2.24 L 0.38,2.11 L 0.38,2.43 L 0.99,2.55 L 1.34,2.55 L 1.34,0.29 L 1.90,0.29 L 1.90,0.00 L 0.43,0.00 L 0.43,0.29 Z M 3.38,1.41 Q 3.15,1.41 3.01,1.25 Q 2.88,1.10 2.88,0.82 Q 2.88,0.54 3.01,0.38 Q 3.15,0.22 3.38,0.22 Q 3.61,0.22 3.75,0.38 Q 3.89,0.54 3.89,0.82 Q 3.89,1.10 3.75,1.25 Q 3.61,1.41 3.38,1.41 Z M 4.07,2.50 L 4.07,2.18 Q 3.94,2.24 3.81,2.27 Q 3.67,2.31 3.54,2.31 Q 3.20,2.31 3.02,2.08 Q 2.84,1.85 2.81,1.38 Q 2.92,1.53 3.07,1.61 Q 3.22,1.69 3.40,1.69 Q 3.79,1.69 4.01,1.45 Q 4.23,1.22 4.23,0.82 Q 4.23,0.43 4.00,0.19 Q 3.77,-0.05 3.38,-0.05 Q 2.94,-0.05 2.71,0.29 Q 2.47,0.63 2.47,1.27 Q 2.47,1.88 2.76,2.24 Q 3.05,2.60 3.53,2.60 Q 3.66,2.60 3.79,2.57 Q 3.92,2.55 4.07,2.50 Z" fill="#484f58"/></g>
<rect x="337.4" y="322.1" width="26.6" height="16.3" rx="1.5" fill="#231a38" stroke="#8957e5" stroke-width="0.9"/>
<g transform="translate(345.20,334.76) scale(1,-1)"><path d="M 2.48,2.59 L 2.48,2.19 Q 2.29,2.37 2.07,2.46 Q 1.85,2.55 1.61,2.55 Q 1.13,2.55 0.87,2.25 Q 0.62,1.96 0.62,1.40 Q 0.62,0.85 0.87,0.55 Q 1.13,0.26 1.61,0.26 Q 1.85,0.26 2.07,0.35 Q 2.29,0.43 2.48,0.61 L 2.48,0.22 Q 2.28,0.08 2.06,0.01 Q 1.83,-0.05 1.59,-0.05 Q 0.95,-0.05 0.58,0.34 Q 0.22,0.73 0.22,1.40 Q 0.22,2.08 0.58,2.47 Q 0.95,2.86 1.59,2.86 Q 1.84,2.86 2.06,2.79 Q 2.28,2.72 2.48,2.59 Z M 3.07,2.81 L 3.45,2.81 L 3.45,1.66 L 4.83,1.66 L 4.83,2.81 L 5.21,2.81 L 5.21,0.00 L 4.83,0.00 L 4.83,1.34 L 3.45,1.34 L 3.45,0.00 L 3.07,0.00 L 3.07,2.81 Z M 7.29,1.32 Q 7.41,1.27 7.53,1.14 Q 7.65,1.00 7.76,0.77 L 8.15,0.00 L 7.74,0.00 L 7.38,0.72 Q 7.24,1.00 7.11,1.09 Q 6.98,1.19 6.75,1.19 L 6.34,1.19 L 6.34,0.00 L 5.96,0.00 L 5.96,2.81 L 6.82,2.81 Q 7.30,2.81 7.54,2.61 Q 7.77,2.40 7.77,2.00 Q 7.77,1.73 7.65,1.56 Q 7.53,1.38 7.29,1.32 Z M 6.34,2.49 L 6.34,1.50 L 6.82,1.50 Q 7.09,1.50 7.23,1.63 Q 7.37,1.75 7.37,2.00 Q 7.37,2.24 7.23,2.37 Q 7.09,2.49 6.82,2.49 L 6.34,2.49 Z M 9.02,2.49 L 9.02,0.31 L 9.47,0.31 Q 10.06,0.31 10.33,0.58 Q 10.59,0.84 10.59,1.41 Q 10.59,1.97 10.33,2.23 Q 10.06,2.49 9.47,2.49 L 9.02,2.49 Z M 8.64,2.81 L 9.42,2.81 Q 10.23,2.81 10.61,2.47 Q 11.00,2.13 11.00,1.41 Q 11.00,0.68 10.61,0.34 Q 10.23,0.00 9.42,0.00 L 8.64,0.00 L 8.64,2.81 Z" fill="#a371f7"/></g>
<rect x="369.6" y="322.1" width="26.6" height="16.3" rx="1.5" fill="#231a38" stroke="#8957e5" stroke-width="0.9"/>
<g transform="translate(377.70,334.76) scale(1,-1)"><path d="M 0.76,2.49 L 0.76,1.44 L 1.24,1.44 Q 1.50,1.44 1.64,1.58 Q 1.79,1.71 1.79,1.97 Q 1.79,2.22 1.64,2.36 Q 1.50,2.49 1.24,2.49 L 0.76,2.49 Z M 0.38,2.81 L 1.24,2.81 Q 1.71,2.81 1.95,2.59 Q 2.19,2.38 2.19,1.97 Q 2.19,1.55 1.95,1.34 Q 1.71,1.13 1.24,1.13 L 0.76,1.13 L 0.76,0.00 L 0.38,0.00 L 0.38,2.81 Z M 4.03,1.32 Q 4.15,1.27 4.27,1.14 Q 4.38,1.00 4.50,0.77 L 4.89,0.00 L 4.48,0.00 L 4.12,0.72 Q 3.98,1.00 3.85,1.09 Q 3.72,1.19 3.49,1.19 L 3.08,1.19 L 3.08,0.00 L 2.70,0.00 L 2.70,2.81 L 3.56,2.81 Q 4.04,2.81 4.27,2.61 Q 4.51,2.40 4.51,2.00 Q 4.51,1.73 4.39,1.56 Q 4.27,1.38 4.03,1.32 Z M 3.08,2.49 L 3.08,1.50 L 3.56,1.50 Q 3.83,1.50 3.97,1.63 Q 4.11,1.75 4.11,2.00 Q 4.11,2.24 3.97,2.37 Q 3.83,2.49 3.56,2.49 L 3.08,2.49 Z M 6.51,2.55 Q 6.10,2.55 5.86,2.24 Q 5.61,1.93 5.61,1.40 Q 5.61,0.87 5.86,0.56 Q 6.10,0.25 6.51,0.25 Q 6.93,0.25 7.17,0.56 Q 7.41,0.87 7.41,1.40 Q 7.41,1.93 7.17,2.24 Q 6.93,2.55 6.51,2.55 Z M 6.51,2.86 Q 7.10,2.86 7.46,2.46 Q 7.81,2.07 7.81,1.40 Q 7.81,0.74 7.46,0.34 Q 7.10,-0.05 6.51,-0.05 Q 5.92,-0.05 5.57,0.34 Q 5.21,0.74 5.21,1.40 Q 5.21,2.07 5.57,2.46 Q 5.92,2.86 6.51,2.86 Z M 8.78,1.34 L 8.78,0.31 L 9.39,0.31 Q 9.70,0.31 9.85,0.44 Q 10.00,0.57 10.00,0.83 Q 10.00,1.09 9.85,1.22 Q 9.70,1.34 9.39,1.34 L 8.78,1.34 Z M 8.78,2.49 L 8.78,1.65 L 9.35,1.65 Q 9.62,1.65 9.76,1.75 Q 9.90,1.86 9.90,2.07 Q 9.90,2.28 9.76,2.39 Q 9.62,2.49 9.35,2.49 L 8.78,2.49 Z M 8.40,2.81 L 9.38,2.81 Q 9.81,2.81 10.04,2.63 Q 10.28,2.45 10.28,2.11 Q 10.28,1.86 10.16,1.70 Q 10.04,1.55 9.81,1.51 Q 10.09,1.45 10.24,1.26 Q 10.40,1.07 10.40,0.79 Q 10.40,0.41 10.14,0.20 Q 9.88,0.00 9.41,0.00 L 8.40,0.00 L 8.40,2.81 Z" fill="#a371f7"/></g>
<rect x="337.4" y="343.8" width="26.6" height="16.3" rx="1.5" fill="#2a1f00" stroke="#9e6a03" stroke-width="0.9"/>
<g transform="translate(345.84,356.48) scale(1,-1)"><path d="M 2.06,2.71 L 2.06,2.34 Q 1.84,2.45 1.65,2.50 Q 1.46,2.55 1.28,2.55 Q 0.97,2.55 0.80,2.43 Q 0.64,2.31 0.64,2.09 Q 0.64,1.90 0.75,1.81 Q 0.86,1.71 1.17,1.65 L 1.40,1.61 Q 1.83,1.52 2.03,1.32 Q 2.23,1.12 2.23,0.77 Q 2.23,0.37 1.96,0.16 Q 1.68,-0.05 1.15,-0.05 Q 0.96,-0.05 0.73,-0.01 Q 0.51,0.04 0.27,0.12 L 0.27,0.51 Q 0.50,0.39 0.72,0.32 Q 0.94,0.25 1.15,0.25 Q 1.48,0.25 1.66,0.38 Q 1.83,0.51 1.83,0.75 Q 1.83,0.95 1.71,1.07 Q 1.58,1.19 1.29,1.24 L 1.06,1.29 Q 0.63,1.37 0.44,1.55 Q 0.25,1.73 0.25,2.06 Q 0.25,2.43 0.52,2.64 Q 0.78,2.86 1.24,2.86 Q 1.44,2.86 1.64,2.82 Q 1.85,2.79 2.06,2.71 Z M 3.83,2.43 L 3.32,1.04 L 4.35,1.04 L 3.83,2.43 Z M 3.62,2.81 L 4.05,2.81 L 5.12,0.00 L 4.72,0.00 L 4.47,0.72 L 3.20,0.72 L 2.95,0.00 L 2.55,0.00 L 3.62,2.81 Z M 6.01,0.00 L 4.93,2.81 L 5.33,2.81 L 6.22,0.44 L 7.11,2.81 L 7.51,2.81 L 6.44,0.00 L 6.01,0.00 Z M 7.92,2.81 L 9.69,2.81 L 9.69,2.49 L 8.30,2.49 L 8.30,1.66 L 9.63,1.66 L 9.63,1.34 L 8.30,1.34 L 8.30,0.32 L 9.72,0.32 L 9.72,0.00 L 7.92,0.00 L 7.92,2.81 Z" fill="#d29922"/></g>
<rect x="369.6" y="343.8" width="26.6" height="16.3" rx="1.5" fill="#2a1f00" stroke="#9e6a03" stroke-width="0.9"/>
<g transform="translate(379.25,356.48) scale(1,-1)"><path d="M 1.71,1.32 Q 1.83,1.27 1.95,1.14 Q 2.06,1.00 2.18,0.77 L 2.56,0.00 L 2.16,0.00 L 1.80,0.72 Q 1.66,1.00 1.53,1.09 Q 1.40,1.19 1.17,1.19 L 0.76,1.19 L 0.76,0.00 L 0.38,0.00 L 0.38,2.81 L 1.24,2.81 Q 1.72,2.81 1.95,2.61 Q 2.19,2.40 2.19,2.00 Q 2.19,1.73 2.07,1.56 Q 1.94,1.38 1.71,1.32 Z M 0.76,2.49 L 0.76,1.50 L 1.24,1.50 Q 1.51,1.50 1.65,1.63 Q 1.79,1.75 1.79,2.00 Q 1.79,2.24 1.65,2.37 Q 1.51,2.49 1.24,2.49 L 0.76,2.49 Z M 4.96,2.59 L 4.96,2.19 Q 4.77,2.37 4.55,2.46 Q 4.34,2.55 4.09,2.55 Q 3.61,2.55 3.35,2.25 Q 3.10,1.96 3.10,1.40 Q 3.10,0.85 3.35,0.55 Q 3.61,0.26 4.09,0.26 Q 4.34,0.26 4.55,0.35 Q 4.77,0.43 4.96,0.61 L 4.96,0.22 Q 4.76,0.08 4.54,0.01 Q 4.32,-0.05 4.07,-0.05 Q 3.43,-0.05 3.06,0.34 Q 2.70,0.73 2.70,1.40 Q 2.70,2.08 3.06,2.47 Q 3.43,2.86 4.07,2.86 Q 4.32,2.86 4.54,2.79 Q 4.77,2.72 4.96,2.59 Z M 5.55,2.81 L 5.93,2.81 L 5.93,0.32 L 7.29,0.32 L 7.29,0.00 L 5.55,0.00 L 5.55,2.81 Z" fill="#d29922"/></g>
</svg>