<svg xmlns="http://www.w3.org/2000/svg" viewBox="0 0 420 380" width="420" height="380">
    <defs>
        <!-- Soft skeuomorphic vertical faceplate gradient -->
        <linearGradient id="bg-grad" x1="0%" y1="0%" x2="0%" y2="100%">
            <stop offset="0%" stop-color="#fdfdfd"/>
            <stop offset="35%" stop-color="#f6f4f1"/>
            <stop offset="100%" stop-color="#e8e5e0"/>
        </linearGradient>

        <!-- Dynamic metal texture gradient for jacks -->
        <linearGradient id="metal-grad" x1="0" y1="0" x2="1" y2="1">
            <stop offset="0%" stop-color="#ffffff"/>
            <stop offset="30%" stop-color="#dfdfdf"/>
            <stop offset="70%" stop-color="#9e9e9e"/>
            <stop offset="100%" stop-color="#6a6a6a"/>
        </linearGradient>

        <!-- Recessed display/button inset gradient -->
        <linearGradient id="display-inset" x1="0" y1="0" x2="0" y2="1">
            <stop offset="0%" stop-color="#e0e0e0"/>
            <stop offset="20%" stop-color="#f8f8f8"/>
            <stop offset="100%" stop-color="#ffffff"/>
        </linearGradient>

        <!-- Fader track inner shadow -->
        <linearGradient id="track-shadow" x1="0" y1="0" x2="1" y2="0">
            <stop offset="0%" stop-color="#999184"/>
            <stop offset="30%" stop-color="#d6cfc5"/>
            <stop offset="100%" stop-color="#ffffff"/>
        </linearGradient>

        <!-- Standard Jack Template -->
        <g id="jack-standard">
            <circle cx="0" cy="0" r="8.5" fill="#e2dad0" stroke="#c4b9a8" stroke-width="0.5"/>
            <circle cx="0" cy="0" r="7.2" fill="url(#metal-grad)"/>
            <circle cx="0" cy="0" r="4.2" fill="#181818"/>
            <circle cx="0" cy="0" r="3.2" fill="none" stroke="#4a4a4a" stroke-width="0.6"/>
            <circle cx="-1.8" cy="-1.8" r="5" fill="none" stroke="#ffffff" stroke-width="0.4" opacity="0.6"/>
        </g>

        <!-- Amber Accent Jack Template (EXT IN) -->
        <g id="jack-amber">
            <circle cx="0" cy="0" r="8.5" fill="#f5a623" stroke="#cb820e" stroke-width="0.5"/>
            <circle cx="0" cy="0" r="7.2" fill="url(#metal-grad)"/>
            <circle cx="0" cy="0" r="4.2" fill="#181818"/>
            <circle cx="0" cy="0" r="3.2" fill="none" stroke="#4a4a4a" stroke-width="0.6"/>
            <circle cx="-1.8" cy="-1.8" r="5" fill="none" stroke="#ffffff" stroke-width="0.4" opacity="0.6"/>
        </g>

        <!-- Crimson Accent Jack Template (DUCK) -->
        <g id="jack-red">
            <circle cx="0" cy="0" r="8.5" fill="#d0021b" stroke="#9b0110" stroke-width="0.5"/>
            <circle cx="0" cy="0" r="7.2" fill="url(#metal-grad)"/>
            <circle cx="0" cy="0" r="4.2" fill="#181818"/>
            <circle cx="0" cy="0" r="3.2" fill="none" stroke="#4a4a4a" stroke-width="0.6"/>
            <circle cx="-1.8" cy="-1.8" r="5" fill="none" stroke="#ffffff" stroke-width="0.4" opacity="0.6"/>
        </g>

        <!-- Static 7-Segment Mockup background elements for displays -->
        <g id="seven-segment-mock">
            <path d="M -4 -14 L 4 -14 L 3 -12 L -3 -12 Z" fill="#e4e4e4"/> <!-- A -->
            <path d="M 4 -13 L 5 -5 L 3 -6 L 3 -12 Z" fill="#e4e4e4"/> <!-- B -->
            <path d="M 3 -4 L 3 2 L 5 3 L 4 -5 Z" fill="#e4e4e4"/> <!-- C -->
            <path d="M -3 2 L 3 2 L 4 4 L -4 4 Z" fill="#e4e4e4"/> <!-- D -->
            <path d="M -5 3 L -3 2 L -3 -4 L -4 -5 Z" fill="#e4e4e4"/> <!-- E -->
            <path d="M -4 -13 L -3 -12 L -3 -6 L -5 -5 Z" fill="#e4e4e4"/> <!-- F -->
            <path d="M -3 -5 L 3 -5 L 4 -4 L 3 -3 L -3 -3 L -4 -4 Z" fill="#e4e4e4"/> <!-- G -->
        </g>
    </defs>

    <!-- Faceplate Base -->
    <rect width="420" height="380" fill="url(#bg-grad)" rx="5" ry="5"/>
    <rect x="0.5" y="0.5" width="419" height="379" fill="none" stroke="#dcd3c3" stroke-width="1" rx="4.5" ry="4.5"/>
    <rect x="1.5" y="1.5" width="417" height="377" fill="none" stroke="#ffffff" stroke-width="1" opacity="0.8" rx="3.5" ry="3.5"/>

    <!-- Left Input Sidebar Divider -->
    <line x1="45" y1="0" x2="45" y2="380" stroke="#d2c9b9" stroke-width="1"/>
    <line x1="46" y1="0" x2="46" y2="380" stroke="#ffffff" stroke-width="1" opacity="0.9"/>

    <!-- ================================================================= -->
    <!-- I. LEFT INPUT SIDEBAR (X = 22.5)                                  -->
    <!-- ================================================================= -->
    <g id="sidebar-inputs">
        <use href="#jack-standard" x="22.5" y="55"/>
        <text x="22.5" y="69" font-family="'Roboto Mono', monospace" font-size="5.5" font-weight="bold" fill="#7d7160" text-anchor="middle">CLK</text>

        <use href="#jack-standard" x="22.5" y="102"/>
        <text x="22.5" y="116" font-family="'Roboto Mono', monospace" font-size="5.5" font-weight="bold" fill="#7d7160" text-anchor="middle">RST</text>

        <use href="#jack-standard" x="22.5" y="149"/>
        <text x="22.5" y="163" font-family="'Roboto Mono', monospace" font-size="5.5" font-weight="bold" fill="#7d7160" text-anchor="middle">V/OCT</text>

        <use href="#jack-standard" x="22.5" y="196"/>
        <text x="22.5" y="210" font-family="'Roboto Mono', monospace" font-size="5.5" font-weight="bold" fill="#7d7160" text-anchor="middle">GATE</text>

        <use href="#jack-standard" x="22.5" y="243"/>
        <text x="22.5" y="257" font-family="'Roboto Mono', monospace" font-size="5.5" font-weight="bold" fill="#7d7160" text-anchor="middle">VEL</text>

        <use href="#jack-amber" x="22.5" y="290"/>
        <text x="22.5" y="304" font-family="'Roboto Mono', monospace" font-size="5.5" font-weight="bold" fill="#d47d00" text-anchor="middle">EXT IN</text>

        <use href="#jack-red" x="22.5" y="337"/>
        <text x="22.5" y="351" font-family="'Roboto Mono', monospace" font-size="5.5" font-weight="bold" fill="#d0021b" text-anchor="middle">DUCK</text>
    </g>

    <!-- ================================================================= -->
    <!-- II. MAIN MODULE HEADER (Symmetrically aligned to X = 210.0)       -->
    <!-- ================================================================= -->
    <g id="header-text">
        <text x="210" y="25" font-family="'Roboto Mono', monospace" font-size="14.5" font-weight="bold" fill="#111111" letter-spacing="4" text-anchor="middle">SOUNDSCAPES</text>
        <text x="210" y="36" font-family="'Roboto Mono', monospace" font-size="6.5" font-weight="bold" fill="#6d6558" letter-spacing="0.8" text-anchor="middle">8-Channel Poly-Engine</text>
    </g>

    <!-- ================================================================= -->
    <!-- III. ROW 1 (OUTPUTS & DISPLAYS - CONTIGUOUS SPACED)               -->
    <!-- ================================================================= -->
    <g id="row1-contiguous-grid">
        <!-- CH1 (X = 65) -->
        <use href="#jack-standard" x="65" y="55"/>
        <circle cx="65" cy="71" r="1.8" fill="#1b5b1b" stroke="#2ecc71" stroke-width="0.5"/>
        <text x="65" y="81" font-family="'Roboto Mono', monospace" font-size="6" font-weight="bold" fill="#5c5346" text-anchor="middle">1</text>
        <rect x="51" y="95" width="28" height="40" rx="2.5" ry="2.5" fill="url(#display-inset)" stroke="#dcd3c3" stroke-width="1"/>
        <use href="#seven-segment-mock" x="65" y="115"/>
        <text x="65" y="143" font-family="'Roboto Mono', monospace" font-size="6.5" font-weight="bold" fill="#5c5346" text-anchor="middle">1</text>

        <!-- CH2 (X = 106) -->
        <use href="#jack-standard" x="106" y="55"/>
        <circle cx="106" cy="71" r="1.8" fill="#1b5b1b" stroke="#2ecc71" stroke-width="0.5"/>
        <text x="106" y="81" font-family="'Roboto Mono', monospace" font-size="6" font-weight="bold" fill="#5c5346" text-anchor="middle">2</text>
        <rect x="92" y="95" width="28" height="40" rx="2.5" ry="2.5" fill="url(#display-inset)" stroke="#dcd3c3" stroke-width="1"/>
        <use href="#seven-segment-mock" x="106" y="115"/>
        <text x="106" y="143" font-family="'Roboto Mono', monospace" font-size="6.5" font-weight="bold" fill="#5c5346" text-anchor="middle">2</text>

        <!-- CH3 (X = 147) -->
        <use href="#jack-standard" x="147" y="55"/>
        <circle cx="147" cy="71" r="1.8" fill="#1b5b1b" stroke="#2ecc71" stroke-width="0.5"/>
        <text x="147" y="81" font-family="'Roboto Mono', monospace" font-size="6" font-weight="bold" fill="#5c5346" text-anchor="middle">3</text>
        <rect x="133" y="95" width="28" height="40" rx="2.5" ry="2.5" fill="url(#display-inset)" stroke="#dcd3c3" stroke-width="1"/>
        <use href="#seven-segment-mock" x="147" y="115"/>
        <text x="147" y="143" font-family="'Roboto Mono', monospace" font-size="6.5" font-weight="bold" fill="#5c5346" text-anchor="middle">3</text>

        <!-- CH4 (X = 188) -->
        <use href="#jack-standard" x="188" y="55"/>
        <circle cx="188" cy="71" r="1.8" fill="#1b5b1b" stroke="#2ecc71" stroke-width="0.5"/>
        <text x="188" y="81" font-family="'Roboto Mono', monospace" font-size="6" font-weight="bold" fill="#5c5346" text-anchor="middle">4</text>
        <rect x="174" y="95" width="28" height="40" rx="2.5" ry="2.5" fill="url(#display-inset)" stroke="#dcd3c3" stroke-width="1"/>
        <use href="#seven-segment-mock" x="188" y="115"/>
        <text x="188" y="143" font-family="'Roboto Mono', monospace" font-size="6.5" font-weight="bold" fill="#5c5346" text-anchor="middle">4</text>

        <!-- CH5 (X = 229) -->
        <use href="#jack-standard" x="229" y="55"/>
        <circle cx="229" cy="71" r="1.8" fill="#1b5b1b" stroke="#2ecc71" stroke-width="0.5"/>
        <text x="229" y="81" font-family="'Roboto Mono', monospace" font-size="6" font-weight="bold" fill="#5c5346" text-anchor="middle">5</text>
        <rect x="215" y="95" width="28" height="40" rx="2.5" ry="2.5" fill="url(#display-inset)" stroke="#dcd3c3" stroke-width="1"/>
        <use href="#seven-segment-mock" x="229" y="115"/>
        <text x="229" y="143" font-family="'Roboto Mono', monospace" font-size="6.5" font-weight="bold" fill="#5c5346" text-anchor="middle">5</text>

        <!-- CH6 (X = 270) -->
        <use href="#jack-standard" x="270" y="55"/>
        <circle cx="270" cy="71" r="1.8" fill="#1b5b1b" stroke="#2ecc71" stroke-width="0.5"/>
        <text x="270" y="81" font-family="'Roboto Mono', monospace" font-size="6" font-weight="bold" fill="#5c5346" text-anchor="middle">6</text>
        <rect x="256" y="95" width="28" height="40" rx="2.5" ry="2.5" fill="url(#display-inset)" stroke="#dcd3c3" stroke-width="1"/>
        <use href="#seven-segment-mock" x="270" y="115"/>
        <text x="270" y="143" font-family="'Roboto Mono', monospace" font-size="6.5" font-weight="bold" fill="#5c5346" text-anchor="middle">6</text>

        <!-- CH7 (X = 311) -->
        <use href="#jack-standard" x="311" y="55"/>
        <circle cx="311" cy="71" r="1.8" fill="#1b5b1b" stroke="#2ecc71" stroke-width="0.5"/>
        <text x="311" y="81" font-family="'Roboto Mono', monospace" font-size="6" font-weight="bold" fill="#5c5346" text-anchor="middle">7</text>
        <rect x="297" y="95" width="28" height="40" rx="2.5" ry="2.5" fill="url(#display-inset)" stroke="#dcd3c3" stroke-width="1"/>
        <use href="#seven-segment-mock" x="311" y="115"/>
        <text x="311" y="143" font-family="'Roboto Mono', monospace" font-size="6.5" font-weight="bold" fill="#5c5346" text-anchor="middle">7</text>

        <!-- CH8 (X = 352) -->
        <use href="#jack-standard" x="352" y="55"/>
        <circle cx="352" cy="71" r="1.8" fill="#1b5b1b" stroke="#2ecc71" stroke-width="0.5"/>
        <text x="352" y="81" font-family="'Roboto Mono', monospace" font-size="6" font-weight="bold" fill="#5c5346" text-anchor="middle">8</text>
        <rect x="338" y="95" width="28" height="40" rx="2.5" ry="2.5" fill="url(#display-inset)" stroke="#dcd3c3" stroke-width="1"/>
        <use href="#seven-segment-mock" x="352" y="115"/>
        <text x="352" y="143" font-family="'Roboto Mono', monospace" font-size="6.5" font-weight="bold" fill="#5c5346" text-anchor="middle">8</text>
    </g>

    <!-- ================================================================= -->
    <!-- IV. ROW 2 (THE SYNTH DECK)                                        -->
    <!-- ================================================================= -->
    <g id="synth-deck">
        <!-- MODE Window (X = 65) -->
        <rect x="53" y="150" width="24" height="40" rx="3" ry="3" fill="#1e1e1f" stroke="#323234" stroke-width="1"/>
        <rect x="54.5" y="151.5" width="21" height="37" fill="none" stroke="#000000" stroke-width="0.8" opacity="0.6"/>
        <text x="65" y="201" font-family="'Roboto Mono', monospace" font-size="5.5" font-weight="bold" fill="#5c5346" text-anchor="middle">MODE</text>

        <!-- 2x2 FX Buttons -->
        <!-- FM (X = 106) -->
        <rect x="92" y="153" width="28" height="14" rx="2" ry="2" fill="#ffffff" stroke="#ccc4b6" stroke-width="0.8"/>
        <text x="106" y="162" font-family="'Roboto Mono', monospace" font-size="5" font-weight="bold" fill="#5c5346" text-anchor="middle">FM</text>
        <!-- DELAY (X = 147) -->
        <rect x="133" y="153" width="28" height="14" rx="2" ry="2" fill="#ffffff" stroke="#ccc4b6" stroke-width="0.8"/>
        <text x="147" y="162" font-family="'Roboto Mono', monospace" font-size="5" font-weight="bold" fill="#5c5346" text-anchor="middle">DELAY</text>
        <!-- REVERB (X = 106) -->
        <rect x="92" y="173" width="28" height="14" rx="2" ry="2" fill="#ffffff" stroke="#ccc4b6" stroke-width="0.8"/>
        <text x="106" y="182" font-family="'Roboto Mono', monospace" font-size="5" font-weight="bold" fill="#5c5346" text-anchor="middle">REVERB</text>
        <!-- FILTER (X = 147) -->
        <rect x="133" y="173" width="28" height="14" rx="2" ry="2" fill="#ffffff" stroke="#ccc4b6" stroke-width="0.8"/>
        <text x="147" y="182" font-family="'Roboto Mono', monospace" font-size="5" font-weight="bold" fill="#5c5346" text-anchor="middle">FILTER</text>

        <!-- 6 Knobs (Perfect 35px intervals between X = 175 and 350) -->
        <!-- Knob 1: RATE (X = 175) -->
        <circle cx="175" cy="170" r="14" fill="#000000" opacity="0.08"/>
        <circle cx="175" cy="170" r="13" fill="#fbfaf8" stroke="#ccc4b6" stroke-width="1"/>
        <line x1="175" y1="165" x2="175" y2="159" stroke="#605548" stroke-width="1.6" stroke-linecap="round"/>
        <text x="175" y="191" font-family="'Roboto Mono', monospace" font-size="5" font-weight="bold" fill="#6c6457" text-anchor="middle">RATE</text>

        <!-- Knob 2: DENSITY (X = 210) -->
        <circle cx="210" cy="170" r="14" fill="#000000" opacity="0.08"/>
        <circle cx="210" cy="170" r="13" fill="#fbfaf8" stroke="#ccc4b6" stroke-width="1"/>
        <line x1="210" y1="165" x2="210" y2="159" stroke="#605548" stroke-width="1.6" stroke-linecap="round"/>
        <text x="210" y="191" font-family="'Roboto Mono', monospace" font-size="5" font-weight="bold" fill="#6c6457" text-anchor="middle">DENSITY</text>

        <!-- Knob 3: TIMBRE (X = 245) -->
        <circle cx="245" cy="170" r="14" fill="#000000" opacity="0.08"/>
        <circle cx="245" cy="170" r="13" fill="#fbfaf8" stroke="#ccc4b6" stroke-width="1"/>
        <line x1="245" y1="165" x2="245" y2="159" stroke="#605548" stroke-width="1.6" stroke-linecap="round"/>
        <text x="245" y="191" font-family="'Roboto Mono', monospace" font-size="5" font-weight="bold" fill="#6c6457" text-anchor="middle">TIMBRE</text>

        <!-- Knob 4: TEXTURE (X = 280) -->
        <circle cx="280" cy="170" r="14" fill="#000000" opacity="0.08"/>
        <circle cx="280" cy="170" r="13" fill="#fbfaf8" stroke="#ccc4b6" stroke-width="1"/>
        <line x1="280" y1="165" x2="280" y2="159" stroke="#605548" stroke-width="1.6" stroke-linecap="round"/>
        <text x="280" y="191" font-family="'Roboto Mono', monospace" font-size="5" font-weight="bold" fill="#6c6457" text-anchor="middle">TEXTURE</text>

        <!-- Knob 5: SPREAD (X = 315) -->
        <circle cx="315" cy="170" r="14" fill="#000000" opacity="0.08"/>
        <circle cx="315" cy="170" r="13" fill="#fbfaf8" stroke="#ccc4b6" stroke-width="1"/>
        <line x1="315" y1="165" x2="315" y2="159" stroke="#605548" stroke-width="1.6" stroke-linecap="round"/>
        <text x="315" y="191" font-family="'Roboto Mono', monospace" font-size="5" font-weight="bold" fill="#6c6457" text-anchor="middle">SPREAD</text>

        <!-- Knob 6: DYNAMICS (X = 350) -->
        <circle cx="350" cy="170" r="14" fill="#000000" opacity="0.08"/>
        <circle cx="350" cy="170" r="13" fill="#fbfaf8" stroke="#ccc4b6" stroke-width="1"/>
        <line x1="350" y1="165" x2="350" y2="159" stroke="#605548" stroke-width="1.6" stroke-linecap="round"/>
        <text x="350" y="191" font-family="'Roboto Mono', monospace" font-size="5" font-weight="bold" fill="#6c6457" text-anchor="middle">DYNAMICS</text>
    </g>

    <!-- ================================================================= -->
    <!-- V. ROW 3 (MIXING FADERS & CENTER NESTLED QUANTIZERS)               -->
    <!-- ================================================================= -->
    <g id="fader-row">
        <!-- Faders 1–4 (CH 1–4) -->
        <rect x="63" y="210" width="4" height="46" rx="1.5" ry="1.5" fill="url(#track-shadow)" stroke="#dbd3c5" stroke-width="0.5"/>
        <text x="65" y="267" font-family="'Roboto Mono', monospace" font-size="6" font-weight="bold" fill="#7a7061" text-anchor="middle">1</text>
        
        <rect x="104" y="210" width="4" height="46" rx="1.5" ry="1.5" fill="url(#track-shadow)" stroke="#dbd3c5" stroke-width="0.5"/>
        <text x="106" y="267" font-family="'Roboto Mono', monospace" font-size="6" font-weight="bold" fill="#7a7061" text-anchor="middle">2</text>
        
        <rect x="145" y="210" width="4" height="46" rx="1.5" ry="1.5" fill="url(#track-shadow)" stroke="#dbd3c5" stroke-width="0.5"/>
        <text x="147" y="267" font-family="'Roboto Mono', monospace" font-size="6" font-weight="bold" fill="#7a7061" text-anchor="middle">3</text>
        
        <rect x="186" y="210" width="4" height="46" rx="1.5" ry="1.5" fill="url(#track-shadow)" stroke="#dbd3c5" stroke-width="0.5"/>
        <text x="188" y="267" font-family="'Roboto Mono', monospace" font-size="6" font-weight="bold" fill="#7a7061" text-anchor="middle">4</text>

        <!-- Nestle Quantizers (Centered symmetrically in the 41px gap between 188 and 229) -->
        <!-- ROOT Knob (X = 197.5) -->
        <circle cx="197.5" cy="233" r="10" fill="#000000" opacity="0.06"/>
        <circle cx="197.5" cy="233" r="9.5" fill="#fcfbf9" stroke="#ccc4b6" stroke-width="0.8"/>
        <line x1="197.5" y1="229.5" x2="197.5" y2="225" stroke="#605548" stroke-width="1.3" stroke-linecap="round"/>
        <text x="197.5" y="251" font-family="'Roboto Mono', monospace" font-size="5" font-weight="bold" fill="#7c7365" text-anchor="middle">ROOT</text>
        
        <!-- SCALE Knob (X = 219.5) -->
        <circle cx="219.5" cy="233" r="10" fill="#000000" opacity="0.06"/>
        <circle cx="219.5" cy="233" r="9.5" fill="#fcfbf9" stroke="#ccc4b6" stroke-width="0.8"/>
        <line x1="219.5" y1="229.5" x2="219.5" y2="225" stroke="#605548" stroke-width="1.3" stroke-linecap="round"/>
        <text x="219.5" y="251" font-family="'Roboto Mono', monospace" font-size="5" font-weight="bold" fill="#7c7365" text-anchor="middle">SCALE</text>

        <!-- Faders 5–8 (CH 5–8) -->
        <rect x="227" y="210" width="4" height="46" rx="1.5" ry="1.5" fill="url(#track-shadow)" stroke="#dbd3c5" stroke-width="0.5"/>
        <text x="229" y="267" font-family="'Roboto Mono', monospace" font-size="6" font-weight="bold" fill="#7a7061" text-anchor="middle">5</text>
        
        <rect x="268" y="210" width="4" height="46" rx="1.5" ry="1.5" fill="url(#track-shadow)" stroke="#dbd3c5" stroke-width="0.5"/>
        <text x="270" y="267" font-family="'Roboto Mono', monospace" font-size="6" font-weight="bold" fill="#7a7061" text-anchor="middle">6</text>
        
        <rect x="309" y="210" width="4" height="46" rx="1.5" ry="1.5" fill="url(#track-shadow)" stroke="#dbd3c5" stroke-width="0.5"/>
        <text x="311" y="267" font-family="'Roboto Mono', monospace" font-size="6" font-weight="bold" fill="#7a7061" text-anchor="middle">7</text>
        
        <rect x="350" y="210" width="4" height="46" rx="1.5" ry="1.5" fill="url(#track-shadow)" stroke="#dbd3c5" stroke-width="0.5"/>
        <text x="352" y="267" font-family="'Roboto Mono', monospace" font-size="6" font-weight="bold" fill="#7a7061" text-anchor="middle">8</text>
    </g>

    <!-- ================================================================= -->
    <!-- VI. ROW 4 (THE SEQUENCER - UNIFIED CONTIGUOUS DESIGN)             -->
    <!-- ================================================================= -->
    <g id="step-pads">
        <!-- Section Titles (Offset safely to the left of Pad 1 to prevent overlaps) -->
        <text x="50" y="267" font-family="'Roboto Mono', monospace" font-size="5" font-weight="bold" fill="#8d8170" letter-spacing="0.5" text-anchor="start">MELODY</text>
        <text x="50" y="315" font-family="'Roboto Mono', monospace" font-size="5" font-weight="bold" fill="#8d8170" letter-spacing="0.5" text-anchor="start">CHORD</text>

        <!-- === MELODY ROW (Y = 278 - Contiguous CH 1-8) === -->
        <rect x="50" y="278" width="30" height="24" rx="4" ry="4" fill="#ffffff" stroke="#d5cfc5" stroke-width="1"/>
        <text x="65" y="310" font-family="'Roboto Mono', monospace" font-size="5.5" fill="#a29889" text-anchor="middle">1</text>
        
        <rect x="91" y="278" width="30" height="24" rx="4" ry="4" fill="#ffffff" stroke="#d5cfc5" stroke-width="1"/>
        <text x="106" y="310" font-family="'Roboto Mono', monospace" font-size="5.5" fill="#a29889" text-anchor="middle">2</text>
        
        <rect x="132" y="278" width="30" height="24" rx="4" ry="4" fill="#ffffff" stroke="#d5cfc5" stroke-width="1"/>
        <text x="147" y="310" font-family="'Roboto Mono', monospace" font-size="5.5" fill="#a29889" text-anchor="middle">3</text>
        
        <rect x="173" y="278" width="30" height="24" rx="4" ry="4" fill="#ffffff" stroke="#d5cfc5" stroke-width="1"/>
        <text x="188" y="310" font-family="'Roboto Mono', monospace" font-size="5.5" fill="#a29889" text-anchor="middle">4</text>
        
        <rect x="214" y="278" width="30" height="24" rx="4" ry="4" fill="#ffffff" stroke="#d5cfc5" stroke-width="1"/>
        <text x="229" y="310" font-family="'Roboto Mono', monospace" font-size="5.5" fill="#a29889" text-anchor="middle">5</text>
        
        <rect x="255" y="278" width="30" height="24" rx="4" ry="4" fill="#ffffff" stroke="#d5cfc5" stroke-width="1"/>
        <text x="270" y="310" font-family="'Roboto Mono', monospace" font-size="5.5" fill="#a29889" text-anchor="middle">6</text>
        
        <rect x="296" y="278" width="30" height="24" rx="4" ry="4" fill="#ffffff" stroke="#d5cfc5" stroke-width="1"/>
        <text x="311" y="310" font-family="'Roboto Mono', monospace" font-size="5.5" fill="#a29889" text-anchor="middle">7</text>
        
        <rect x="337" y="278" width="30" height="24" rx="4" ry="4" fill="#ffffff" stroke="#d5cfc5" stroke-width="1"/>
        <text x="352" y="310" font-family="'Roboto Mono', monospace" font-size="5.5" fill="#a29889" text-anchor="middle">8</text>


        <!-- === CHORD ROW (Y = 326 - Contiguous CH 9-16) === -->
        <rect x="50" y="326" width="30" height="24" rx="4" ry="4" fill="#ffffff" stroke="#d5cfc5" stroke-width="1"/>
        <text x="65" y="358" font-family="'Roboto Mono', monospace" font-size="5.5" fill="#a29889" text-anchor="middle">9</text>
        
        <rect x="91" y="326" width="30" height="24" rx="4" ry="4" fill="#ffffff" stroke="#d5cfc5" stroke-width="1"/>
        <text x="106" y="358" font-family="'Roboto Mono', monospace" font-size="5.5" fill="#a29889" text-anchor="middle">10</text>
        
        <rect x="132" y="326" width="30" height="24" rx="4" ry="4" fill="#ffffff" stroke="#d5cfc5" stroke-width="1"/>
        <text x="147" y="358" font-family="'Roboto Mono', monospace" font-size="5.5" fill="#a29889" text-anchor="middle">11</text>
        
        <rect x="173" y="326" width="30" height="24" rx="4" ry="4" fill="#ffffff" stroke="#d5cfc5" stroke-width="1"/>
        <text x="188" y="358" font-family="'Roboto Mono', monospace" font-size="5.5" fill="#a29889" text-anchor="middle">12</text>
        
        <rect x="214" y="326" width="30" height="24" rx="4" ry="4" fill="#ffffff" stroke="#d5cfc5" stroke-width="1"/>
        <text x="229" y="358" font-family="'Roboto Mono', monospace" font-size="5.5" fill="#a29889" text-anchor="middle">13</text>
        
        <rect x="255" y="326" width="30" height="24" rx="4" ry="4" fill="#ffffff" stroke="#d5cfc5" stroke-width="1"/>
        <text x="270" y="358" font-family="'Roboto Mono', monospace" font-size="5.5" fill="#a29889" text-anchor="middle">14</text>
        
        <rect x="296" y="326" width="30" height="24" rx="4" ry="4" fill="#ffffff" stroke="#d5cfc5" stroke-width="1"/>
        <text x="311" y="358" font-family="'Roboto Mono', monospace" font-size="5.5" fill="#a29889" text-anchor="middle">15</text>
        
        <rect x="337" y="326" width="30" height="24" rx="4" ry="4" fill="#ffffff" stroke="#d5cfc5" stroke-width="1"/>
        <text x="352" y="358" font-family="'Roboto Mono', monospace" font-size="5.5" fill="#a29889" text-anchor="middle">16</text>
    </g>

    <!-- ================================================================= -->
    <!-- VII. THE 2x4 PERFORMANCE BUTTON GRID (FAR RIGHT)                 -->
    <!-- ================================================================= -->
    <!-- Positioned to the right of Pad 8 (X = 352) with clean alignments.
         Buttons are 18x14px with rx = 2.5px. -->
    <g id="performance-block">
        <!-- Row 1 (Y = 278) -->
        <rect x="381" y="278" width="18" height="14" rx="2.5" ry="2.5" fill="#ffffff" stroke="#ccc4b6" stroke-width="1"/>
        <rect x="401" y="278" width="18" height="14" rx="2.5" ry="2.5" fill="#ffffff" stroke="#ccc4b6" stroke-width="1"/>

        <!-- Row 2 (Y = 297) -->
        <rect x="381" y="297" width="18" height="14" rx="2.5" ry="2.5" fill="#ffffff" stroke="#ccc4b6" stroke-width="1"/>
        <rect x="401" y="297" width="18" height="14" rx="2.5" ry="2.5" fill="#ffffff" stroke="#ccc4b6" stroke-width="1"/>

        <!-- Row 3 (Y = 316) -->
        <rect x="381" y="316" width="18" height="14" rx="2.5" ry="2.5" fill="#ffffff" stroke="#ccc4b6" stroke-width="1"/>
        <rect x="401" y="316" width="18" height="14" rx="2.5" ry="2.5" fill="#ffffff" stroke="#ccc4b6" stroke-width="1"/>

        <!-- Row 4 (Y = 335) -->
        <rect x="381" y="335" width="18" height="14" rx="2.5" ry="2.5" fill="#ffffff" stroke="#ccc4b6" stroke-width="1"/>
        <rect x="401" y="335" width="18" height="14" rx="2.5" ry="2.5" fill="#ffffff" stroke="#ccc4b6" stroke-width="1"/>
    </g>
</svg>
