<svg xmlns="http://www.w3.org/2000/svg" viewBox="0 0 420 380" width="420" height="380">
    <defs>
        <!-- Soft skeuomorphic faceplate background -->
        <linearGradient id="bg-grad" x1="0%" y1="0%" x2="0%" y2="100%">
            <stop offset="0%" stop-color="#faf8f5"/>
            <stop offset="35%" stop-color="#f5f3ef"/>
            <stop offset="100%" stop-color="#e7e4df"/>
        </linearGradient>

        <!-- Premium warm-bronze smoked glass inset for screens -->
        <linearGradient id="bronze-display" x1="0" y1="0" x2="0" y2="1">
            <stop offset="0%" stop-color="#1b1612"/>
            <stop offset="25%" stop-color="#2d251f"/>
            <stop offset="100%" stop-color="#362e27"/>
        </linearGradient>

        <!-- Deep, darkened fader track slot -->
        <linearGradient id="track-shadow" x1="0" y1="0" x2="1" y2="0">
            <stop offset="0%" stop-color="#080706"/>
            <stop offset="50%" stop-color="#12100f"/>
            <stop offset="100%" stop-color="#1c1917"/>
        </linearGradient>

        <!-- Flat VCV-optimised Jack Port Template -->
        <g id="jack-placeholder">
            <circle cx="0" cy="0" r="8.5" fill="#e2dad0" stroke="#c2b7a5" stroke-width="0.8"/>
            <circle cx="0" cy="0" r="5.5" fill="#121212"/>
        </g>

        <!-- Colored Accent Jack Port templates for Sidebar inputs -->
        <g id="jack-amber">
            <circle cx="0" cy="0" r="8.5" fill="#f5a623" stroke="#cb820e" stroke-width="0.8"/>
            <circle cx="0" cy="0" r="5.5" fill="#121212"/>
        </g>
        <g id="jack-red">
            <circle cx="0" cy="0" r="8.5" fill="#d0021b" stroke="#9b0110" stroke-width="0.8"/>
            <circle cx="0" cy="0" r="5.5" fill="#121212"/>
        </g>

        <!-- Standard Jack Status LED template -->
        <g id="status-led">
            <circle cx="0" cy="0" r="2.2" fill="#154a21" stroke="#2ecc71" stroke-width="0.5"/>
        </g>

        <!-- Flat dynamic Knob template -->
        <g id="knob-large">
            <circle cx="0" cy="0" r="14" fill="#000000" opacity="0.08"/>
            <circle cx="0" cy="0" r="13" fill="#faf9f6" stroke="#cbc4b5" stroke-width="0.8"/>
        </g>
    </defs>

    <!-- Faceplate Base -->
    <rect width="420" height="380" fill="url(#bg-grad)" rx="5" ry="5"/>
    <rect x="0.5" y="0.5" width="419" height="379" fill="none" stroke="#dcd3c3" stroke-width="1" rx="4.5" ry="4.5"/>
    <rect x="1.5" y="1.5" width="417" height="377" fill="none" stroke="#ffffff" stroke-width="1" opacity="0.8" rx="3.5" ry="3.5"/>

    <!-- Left Input Sidebar Divider Line -->
    <line x1="45" y1="0" x2="45" y2="380" stroke="#d2c9b9" stroke-width="1"/>
    <line x1="46" y1="0" x2="46" y2="380" stroke="#ffffff" stroke-width="1" opacity="0.9"/>

    <!-- ================================================================= -->
    <!-- I. LEFT INPUT SIDEBAR (X = 22.5) AND STATUS LEDs (X = 34.5)        -->
    <!-- ================================================================= -->
    <g id="sidebar-inputs">
        <use href="#jack-placeholder" x="22.5" y="55"/>
        <use href="#status-led" x="34.5" y="55"/>

        <use href="#jack-placeholder" x="22.5" y="102"/>
        <use href="#status-led" x="34.5" y="102"/>

        <use href="#jack-placeholder" x="22.5" y="149"/>
        <use href="#status-led" x="34.5" y="149"/>

        <use href="#jack-placeholder" x="22.5" y="196"/>
        <use href="#status-led" x="34.5" y="196"/>

        <use href="#jack-placeholder" x="22.5" y="243"/>
        <use href="#status-led" x="34.5" y="243"/>

        <use href="#jack-amber" x="22.5" y="290"/>
        <use href="#status-led" x="34.5" y="290"/>

        <use href="#jack-red" x="22.5" y="337"/>
        <use href="#status-led" x="34.5" y="337"/>
    </g>

    <!-- ================================================================= -->
    <!-- II. ROW 1 (EXPANDED OUTPUTS AND SMOKED BRONZE DISPLAYS)          -->
    <!-- ================================================================= -->
    <!-- Green background LED circles have been removed to avoid duplicates -->
    <g id="row1-expanded-grid">
        <!-- CH1 -->
        <use href="#jack-placeholder" x="79" y="55"/>
        <rect x="65" y="95" width="28" height="40" rx="3" ry="3" fill="url(#bronze-display)" stroke="#534a41" stroke-width="1"/>

        <!-- CH2 -->
        <use href="#jack-placeholder" x="123" y="55"/>
        <rect x="109" y="95" width="28" height="40" rx="3" ry="3" fill="url(#bronze-display)" stroke="#534a41" stroke-width="1"/>

        <!-- CH3 -->
        <use href="#jack-placeholder" x="167" y="55"/>
        <rect x="153" y="95" width="28" height="40" rx="3" ry="3" fill="url(#bronze-display)" stroke="#534a41" stroke-width="1"/>

        <!-- CH4 -->
        <use href="#jack-placeholder" x="211" y="55"/>
        <rect x="197" y="95" width="28" height="40" rx="3" ry="3" fill="url(#bronze-display)" stroke="#534a41" stroke-width="1"/>

        <!-- CH5 -->
        <use href="#jack-placeholder" x="254" y="55"/>
        <rect x="240" y="95" width="28" height="40" rx="3" ry="3" fill="url(#bronze-display)" stroke="#534a41" stroke-width="1"/>

        <!-- CH6 -->
        <use href="#jack-placeholder" x="298" y="55"/>
        <rect x="284" y="95" width="28" height="40" rx="3" ry="3" fill="url(#bronze-display)" stroke="#534a41" stroke-width="1"/>

        <!-- CH7 -->
        <use href="#jack-placeholder" x="342" y="55"/>
        <rect x="328" y="95" width="28" height="40" rx="3" ry="3" fill="url(#bronze-display)" stroke="#534a41" stroke-width="1"/>

        <!-- CH8 -->
        <use href="#jack-placeholder" x="386" y="55"/>
        <rect x="372" y="95" width="28" height="40" rx="3" ry="3" fill="url(#bronze-display)" stroke="#534a41" stroke-width="1"/>
    </g>

    <!-- ================================================================= -->
    <!-- III. ROW 2 (THE SYNTH DECK)                                       -->
    <!-- ================================================================= -->
    <g id="synth-deck">
        <!-- MODE Window Backplate (X = 67 to 91 - Centered at 79) -->
        <rect x="67" y="150" width="24" height="40" rx="3" ry="3" fill="url(#bronze-display)" stroke="#534a41" stroke-width="1"/>
        <rect x="68.5" y="151.5" width="21" height="37" fill="none" stroke="#000000" stroke-width="0.8" opacity="0.3"/>

        <!-- 6 Large Parameter Knobs (41px spacing starting at CH4 = 181) -->
        <!-- Knob 1: RATE (X = 181) -->
        <use href="#knob-large" x="181" y="170"/>

        <!-- Knob 2: DENSITY (X = 222) -->
        <use href="#knob-large" x="222" y="170"/>

        <!-- Knob 3: TIMBRE (X = 263) -->
        <use href="#knob-large" x="263" y="170"/>

        <!-- Knob 4: TEXTURE (X = 304) -->
        <use href="#knob-large" x="304" y="170"/>

        <!-- Knob 5: SPREAD (X = 345) -->
        <use href="#knob-large" x="345" y="170"/>

        <!-- Knob 6: DYNAMICS (X = 386) -->
        <use href="#knob-large" x="386" y="170"/>
    </g>

    <!-- ================================================================= -->
    <!-- IV. ROW 3 (DARK FADERS 1-8 AND DIAGONAL ROOT / SCALE KNOBS)       -->
    <!-- ================================================================= -->
    <g id="fader-row">
        <!-- Faders (CH 1–8) -->
        <rect x="77" y="210" width="4" height="46" rx="1.5" ry="1.5" fill="url(#track-shadow)" stroke="#221e1a" stroke-width="0.8"/>
        <rect x="111" y="210" width="4" height="46" rx="1.5" ry="1.5" fill="url(#track-shadow)" stroke="#221e1a" stroke-width="0.8"/>
        <rect x="145" y="210" width="4" height="46" rx="1.5" ry="1.5" fill="url(#track-shadow)" stroke="#221e1a" stroke-width="0.8"/>
        <rect x="179" y="210" width="4" height="46" rx="1.5" ry="1.5" fill="url(#track-shadow)" stroke="#221e1a" stroke-width="0.8"/>
        <rect x="213" y="210" width="4" height="46" rx="1.5" ry="1.5" fill="url(#track-shadow)" stroke="#221e1a" stroke-width="0.8"/>
        <rect x="247" y="210" width="4" height="46" rx="1.5" ry="1.5" fill="url(#track-shadow)" stroke="#221e1a" stroke-width="0.8"/>
        <rect x="281" y="210" width="4" height="46" rx="1.5" ry="1.5" fill="url(#track-shadow)" stroke="#221e1a" stroke-width="0.8"/>
        <rect x="315" y="210" width="4" height="46" rx="1.5" ry="1.5" fill="url(#track-shadow)" stroke="#221e1a" stroke-width="0.8"/>

        <!-- Diagonal ROOT and SCALE Knobs -->
        <use href="#knob-large" x="351" y="220"/>
        <use href="#knob-large" x="386" y="246"/>
    </g>
</svg>
